<?xml version="1.0" encoding="utf-8"?>
<!-- Generator: Adobe Illustrator 19.0.0, SVG Export Plug-In . SVG Version: 6.00 Build 0)  -->
<svg version="1.1" id="Layer_1" xmlns="http://www.w3.org/2000/svg" xmlns:xlink="http://www.w3.org/1999/xlink" x="0px" y="0px"
	 viewBox="0 0 91 14" style="enable-background:new 0 0 91 14;" xml:space="preserve">
<style type="text/css">
	.st0{fill-rule:evenodd;clip-rule:evenodd;fill:#FFFFFF;}
</style>
<g id="XMLID_2_">
	<g id="XMLID_58_">
		<path id="XMLID_59_" class="st0" d="M91,5.3l-5-0.9L83.5,0L81,4.4l-5,0.9L79.5,9l-0.6,5l4.6-2.1l4.6,2.1l-0.6-5L91,5.3z M67,4.4
			L64.5,0L62,4.4l-5,0.9L60.5,9l-0.6,5l4.6-2.1l4.6,2.1l-0.6-5L72,5.3L67,4.4z M48,4.4L45.5,0L43,4.4l-5,0.9L41.5,9l-0.6,5l4.6-2.1
			l4.6,2.1l-0.6-5L53,5.3L48,4.4z M29,4.4L26.5,0L24,4.4l-5,0.9L22.5,9l-0.6,5l4.6-2.1l4.6,2.1l-0.6-5L34,5.3L29,4.4z M10,4.4L7.5,0
			L5,4.4L0,5.3L3.5,9l-0.6,5l4.6-2.1l4.6,2.1l-0.6-5L15,5.3L10,4.4z"/>
	</g>
</g>
</svg>
