<svg width="112" height="112" xmlns="http://www.w3.org/2000/svg" viewBox="0 0 100 100" preserveAspectRatio="xMidYMid" class="uil-default"><path fill="none" class="bk" d="M0 0h100v100H0z"/><rect x="46" y="40" width="8" height="20" rx="5" ry="5" fill="#4d4f5b" transform="translate(0 -35)"><animate attributeName="opacity" from="1" to="0" dur="1s" begin="0s" repeatCount="indefinite"/></rect><rect x="46" y="40" width="8" height="20" rx="5" ry="5" fill="#4d4f5b" transform="rotate(30 115.31 67.5)"><animate attributeName="opacity" from="1" to="0" dur="1s" begin="0.08333333333333333s" repeatCount="indefinite"/></rect><rect x="46" y="40" width="8" height="20" rx="5" ry="5" fill="#4d4f5b" transform="rotate(60 80.31 67.5)"><animate attributeName="opacity" from="1" to="0" dur="1s" begin="0.16666666666666666s" repeatCount="indefinite"/></rect><rect x="46" y="40" width="8" height="20" rx="5" ry="5" fill="#4d4f5b" transform="rotate(90 67.5 67.5)"><animate attributeName="opacity" from="1" to="0" dur="1s" begin="0.25s" repeatCount="indefinite"/></rect><rect x="46" y="40" width="8" height="20" rx="5" ry="5" fill="#4d4f5b" transform="rotate(120 60.104 67.5)"><animate attributeName="opacity" from="1" to="0" dur="1s" begin="0.3333333333333333s" repeatCount="indefinite"/></rect><rect x="46" y="40" width="8" height="20" rx="5" ry="5" fill="#4d4f5b" transform="rotate(150 54.69 67.5)"><animate attributeName="opacity" from="1" to="0" dur="1s" begin="0.4166666666666667s" repeatCount="indefinite"/></rect><rect x="46" y="40" width="8" height="20" rx="5" ry="5" fill="#4d4f5b" transform="rotate(180 50 67.5)"><animate attributeName="opacity" from="1" to="0" dur="1s" begin="0.5s" repeatCount="indefinite"/></rect><rect x="46" y="40" width="8" height="20" rx="5" ry="5" fill="#4d4f5b" transform="rotate(-150 45.31 67.5)"><animate attributeName="opacity" from="1" to="0" dur="1s" begin="0.5833333333333334s" repeatCount="indefinite"/></rect><rect x="46" y="40" width="8" height="20" rx="5" ry="5" fill="#4d4f5b" transform="rotate(-120 39.896 67.5)"><animate attributeName="opacity" from="1" to="0" dur="1s" begin="0.6666666666666666s" repeatCount="indefinite"/></rect><rect x="46" y="40" width="8" height="20" rx="5" ry="5" fill="#4d4f5b" transform="rotate(-90 32.5 67.5)"><animate attributeName="opacity" from="1" to="0" dur="1s" begin="0.75s" repeatCount="indefinite"/></rect><rect x="46" y="40" width="8" height="20" rx="5" ry="5" fill="#4d4f5b" transform="rotate(-60 19.69 67.5)"><animate attributeName="opacity" from="1" to="0" dur="1s" begin="0.8333333333333334s" repeatCount="indefinite"/></rect><rect x="46" y="40" width="8" height="20" rx="5" ry="5" fill="#4d4f5b" transform="rotate(-30 -15.31 67.5)"><animate attributeName="opacity" from="1" to="0" dur="1s" begin="0.9166666666666666s" repeatCount="indefinite"/></rect></svg>