<svg xmlns="http://www.w3.org/2000/svg" xmlns:xlink="http://www.w3.org/1999/xlink">
    <symbol id="apple" viewBox="0 0 25.955235 31.999996">
    <g transform="translate(186.86589,-168.14542)">
        <path
                d="m -172.23677,170.56922 c 1.14915,-1.3511 3.09153,-2.35625 4.69436,-2.4238 0.20444,1.87696 -0.54791,3.75641 -1.66008,5.11071 -1.11394,1.35181 -2.93721,2.40495 -4.72671,2.26451 -0.2432,-1.83643 0.65813,-3.75143 1.69243,-4.95142 z m 9.11849,25.60332 c -1.33012,1.9502 -2.70575,3.88903 -4.87746,3.92991 -2.13758,0.0405 -2.82238,-1.26967 -5.26182,-1.26967 -2.44122,0 -3.20566,1.22914 -5.22306,1.31056 -2.09669,0.0789 -3.69135,-2.107 -5.03178,-4.04867 -2.73882,-3.97081 -4.83017,-11.22692 -2.01847,-16.12429 1.39235,-2.43198 3.88761,-3.97046 6.59087,-4.01134 2.05936,-0.038 4.00459,1.39269 5.26182,1.39269 1.26008,0 3.6213,-1.71767 6.10306,-1.46558 1.03892,0.043 3.9548,0.4199 5.82785,3.16868 -0.14826,0.0974 -3.4805,2.04265 -3.44032,6.09452 0.0405,4.84049 4.22787,6.44865 4.27694,6.47069 -0.0384,0.11378 -0.66986,2.29652 -2.20763,4.5525 z" />
    </g>
    </symbol>
    <symbol id="apple_icon" viewBox="0 0 25.955235 31.999996">
        <g transform="translate(186.86589,-168.14542)">
            <path
                    d="m -172.23677,170.56922 c 1.14915,-1.3511 3.09153,-2.35625 4.69436,-2.4238 0.20444,1.87696 -0.54791,3.75641 -1.66008,5.11071 -1.11394,1.35181 -2.93721,2.40495 -4.72671,2.26451 -0.2432,-1.83643 0.65813,-3.75143 1.69243,-4.95142 z m 9.11849,25.60332 c -1.33012,1.9502 -2.70575,3.88903 -4.87746,3.92991 -2.13758,0.0405 -2.82238,-1.26967 -5.26182,-1.26967 -2.44122,0 -3.20566,1.22914 -5.22306,1.31056 -2.09669,0.0789 -3.69135,-2.107 -5.03178,-4.04867 -2.73882,-3.97081 -4.83017,-11.22692 -2.01847,-16.12429 1.39235,-2.43198 3.88761,-3.97046 6.59087,-4.01134 2.05936,-0.038 4.00459,1.39269 5.26182,1.39269 1.26008,0 3.6213,-1.71767 6.10306,-1.46558 1.03892,0.043 3.9548,0.4199 5.82785,3.16868 -0.14826,0.0974 -3.4805,2.04265 -3.44032,6.09452 0.0405,4.84049 4.22787,6.44865 4.27694,6.47069 -0.0384,0.11378 -0.66986,2.29652 -2.20763,4.5525 z" />
        </g>
    </symbol>

    <symbol id="android" viewBox="0 0 27.295265 32.000023">
        <g transform="translate(-37.134003,-473.14498)">
            <path
                    d="m 39.123577,483.57938 -0.08197,0 c -1.05082,0 -1.907604,0.8595 -1.907604,1.9076 l 0,8.30539 c 0,1.05221 0.856784,1.90893 1.907604,1.90893 l 0.08337,0 c 1.05082,0 1.907604,-0.85951 1.907604,-1.90893 l 0,-8.30545 c -0.0014,-1.04804 -0.859508,-1.90754 -1.908997,-1.90754 z" />
            <path
                    d="m 41.945358,496.9981 c 0,0.96473 0.788431,1.75044 1.753161,1.75044 l 1.873459,0 0,4.48613 c 0,1.05354 0.859508,1.91033 1.907604,1.91033 l 0.08197,0 c 1.052213,0 1.910328,-0.85812 1.910328,-1.91033 l 0,-4.48613 2.61818,0 0,4.48613 c 0,1.05354 0.862232,1.91033 1.910328,1.91033 l 0.08064,0 c 1.05215,0 1.908934,-0.85812 1.908934,-1.91033 l 0,-4.48613 1.87479,0 c 0.963335,0 1.75183,-0.78571 1.75183,-1.75044 l 0,-13.11402 -17.671228,0 0,13.11402 z" />
            <path
                    d="m 55.18234,475.93122 1.488112,-2.297 c 0.09566,-0.14488 0.05328,-0.34297 -0.09293,-0.43729 -0.144814,-0.0957 -0.342967,-0.056 -0.437293,0.0929 l -1.542718,2.37631 c -1.157371,-0.47416 -2.450054,-0.7406 -3.815208,-0.7406 -1.366483,0 -2.656442,0.26644 -3.816537,0.7406 l -1.539995,-2.37631 c -0.09426,-0.14893 -0.293809,-0.18859 -0.440016,-0.0929 -0.146208,0.0943 -0.188588,0.29241 -0.09293,0.43729 l 1.489442,2.297 c -2.685139,1.31593 -4.495693,3.79608 -4.495693,6.64105 0,0.1749 0.01096,0.34708 0.02597,0.51787 l 17.740847,0 c 0.01501,-0.17079 0.02458,-0.34297 0.02458,-0.51787 6.3e-5,-2.84497 -1.811885,-5.32512 -4.495631,-6.64105 z m -8.513108,4.11307 c -0.471437,0 -0.85406,-0.3799 -0.85406,-0.85266 0,-0.47277 0.382623,-0.85134 0.85406,-0.85134 0.474161,0 0.85406,0.37851 0.85406,0.85134 0,0.47283 -0.382623,0.85266 -0.85406,0.85266 z m 8.224811,0 c -0.471437,0 -0.85406,-0.3799 -0.85406,-0.85266 0,-0.47277 0.382623,-0.85134 0.85406,-0.85134 0.472767,0 0.852666,0.37851 0.852666,0.85134 0,0.47276 -0.379899,0.85266 -0.852666,0.85266 z" />
            <path
                    d="m 62.520277,483.57938 -0.07925,0 c -1.05082,0 -1.910328,0.8595 -1.910328,1.9076 l 0,8.30539 c 0,1.05221 0.860902,1.90893 1.910328,1.90893 l 0.08064,0 c 1.05215,0 1.907604,-0.85951 1.907604,-1.90893 l 0,-8.30545 c 0,-1.04804 -0.858178,-1.90754 -1.908997,-1.90754 z" />
        </g>
    </symbol>
</svg>