<svg xmlns="http://www.w3.org/2000/svg" xmlns:xlink="http://www.w3.org/1999/xlink">
    <symbol viewBox="0 0 31 31" id="browsers">
        <path d="M16.440,30.942 C16.269,30.962 16.098,30.990 15.923,30.990 C15.873,30.990 15.822,30.978 15.772,30.976 C15.681,30.978 15.592,30.990 15.500,30.990 C6.957,30.990 0.007,24.035 0.007,15.488 C0.007,6.939 6.957,-0.015 15.500,-0.015 C15.592,-0.015 15.681,-0.003 15.772,-0.001 C15.822,-0.003 15.873,-0.015 15.923,-0.015 C16.098,-0.015 16.268,0.013 16.440,0.033 C24.545,0.523 30.994,7.257 30.994,15.488 C30.994,23.718 24.545,30.452 16.440,30.942 ZM27.222,22.239 C26.607,22.085 25.408,21.832 23.515,21.615 C22.942,24.150 22.034,26.332 20.876,27.943 C23.560,26.779 25.768,24.754 27.222,22.239 ZM14.506,12.559 C12.312,12.537 10.431,12.449 8.868,12.326 C8.737,13.346 8.659,14.402 8.659,15.488 C8.659,16.883 8.776,18.236 8.989,19.514 C10.528,19.395 12.368,19.311 14.506,19.290 L14.506,12.559 ZM16.435,19.289 C18.584,19.310 20.414,19.397 21.934,19.520 C22.141,18.240 22.254,16.885 22.254,15.488 C22.254,14.399 22.178,13.341 22.051,12.319 C20.508,12.447 18.639,12.538 16.435,12.559 L16.435,19.289 ZM21.538,21.428 C20.117,21.318 18.418,21.240 16.435,21.220 L16.435,28.918 C18.643,28.274 20.552,25.362 21.538,21.428 ZM14.506,28.892 L14.506,21.221 C12.542,21.241 10.838,21.316 9.399,21.422 C10.401,25.306 12.322,28.195 14.506,28.892 ZM10.862,28.225 C9.441,26.583 8.266,24.285 7.534,21.586 C5.672,21.781 4.410,22.008 3.706,22.158 C5.288,24.939 7.819,27.112 10.862,28.225 ZM1.936,15.488 C1.936,17.210 2.266,18.854 2.855,20.370 C3.473,20.219 4.857,19.931 7.106,19.687 C6.867,18.354 6.727,16.952 6.727,15.488 C6.727,14.334 6.822,13.223 6.973,12.148 C4.357,11.858 2.942,11.509 2.568,11.407 C2.160,12.695 1.936,14.065 1.936,15.488 ZM3.292,9.599 C3.820,9.726 5.135,10.003 7.320,10.240 C8.022,7.169 9.294,4.562 10.862,2.750 C7.540,3.965 4.824,6.443 3.292,9.599 ZM9.191,10.412 C10.673,10.526 12.447,10.607 14.506,10.629 L14.506,2.077 C12.162,2.823 10.118,6.096 9.191,10.412 ZM16.435,2.057 L16.435,10.629 C18.516,10.608 20.281,10.525 21.739,10.409 C20.830,6.039 18.803,2.746 16.435,2.057 ZM20.875,3.032 C22.163,4.824 23.151,7.310 23.700,10.217 C26.130,9.929 27.356,9.587 27.654,9.494 C26.231,6.619 23.828,4.313 20.875,3.032 ZM28.347,11.191 C28.358,11.223 28.365,11.256 28.376,11.288 C28.271,11.325 26.951,11.770 23.984,12.126 C24.108,13.207 24.183,14.327 24.183,15.488 C24.183,16.961 24.067,18.370 23.870,19.709 C26.196,19.983 27.531,20.311 28.079,20.470 C28.694,18.922 29.065,17.252 29.065,15.488 C29.065,14.019 28.810,12.613 28.376,11.288 C28.376,11.287 28.380,11.286 28.381,11.286 L28.347,11.191 Z" class="cls-1"/>
    </symbol>

    <symbol viewBox="0 0 31 31" id="calendar">
        <path d="M29.062,30.997 L1.937,30.997 C0.867,30.997 -0.000,30.129 -0.000,29.058 L-0.000,4.841 C-0.000,3.770 0.867,2.902 1.937,2.902 L9.680,2.902 L9.680,0.972 C9.680,0.437 10.114,0.003 10.649,0.003 C11.185,0.003 11.618,0.437 11.618,0.972 L11.618,2.902 L19.368,2.902 L19.368,0.972 C19.368,0.437 19.801,0.003 20.337,0.003 C20.872,0.003 21.305,0.437 21.305,0.972 L21.305,2.902 L29.062,2.902 C30.132,2.902 31.000,3.770 31.000,4.841 L31.000,29.058 C31.000,30.129 30.132,30.997 29.062,30.997 ZM29.062,4.841 L21.305,4.841 L21.305,5.816 C21.305,6.351 20.872,6.786 20.337,6.786 C19.801,6.786 19.368,6.351 19.368,5.816 L19.368,4.841 L11.618,4.841 L11.618,5.816 C11.618,6.351 11.185,6.786 10.649,6.786 C10.114,6.786 9.680,6.351 9.680,5.816 L9.680,4.841 L1.937,4.841 L1.937,29.058 L29.062,29.058 L29.062,4.841 ZM6.781,11.621 L8.718,11.621 C9.253,11.621 9.687,12.055 9.687,12.590 L9.687,14.528 C9.687,15.064 9.253,15.497 8.718,15.497 L6.781,15.497 C6.246,15.497 5.812,15.064 5.812,14.528 L5.812,12.590 C5.812,12.055 6.246,11.621 6.781,11.621 ZM6.781,19.371 L8.718,19.371 C9.253,19.371 9.687,19.806 9.687,20.340 L9.687,22.277 C9.687,22.812 9.253,23.247 8.718,23.247 L6.781,23.247 C6.246,23.247 5.812,22.812 5.812,22.277 L5.812,20.340 C5.812,19.806 6.246,19.371 6.781,19.371 ZM14.531,11.621 L16.468,11.621 C17.003,11.621 17.437,12.055 17.437,12.590 L17.437,14.528 C17.437,15.064 17.003,15.497 16.468,15.497 L14.531,15.497 C13.996,15.497 13.562,15.064 13.562,14.528 L13.562,12.590 C13.562,12.055 13.996,11.621 14.531,11.621 ZM14.531,19.371 L16.468,19.371 C17.003,19.371 17.437,19.806 17.437,20.340 L17.437,22.277 C17.437,22.812 17.003,23.247 16.468,23.247 L14.531,23.247 C13.996,23.247 13.562,22.812 13.562,22.277 L13.562,20.340 C13.562,19.806 13.996,19.371 14.531,19.371 ZM22.281,11.621 L24.218,11.621 C24.753,11.621 25.187,12.055 25.187,12.590 L25.187,14.528 C25.187,15.064 24.753,15.497 24.218,15.497 L22.281,15.497 C21.746,15.497 21.312,15.064 21.312,14.528 L21.312,12.590 C21.312,12.055 21.746,11.621 22.281,11.621 ZM22.281,19.371 L24.218,19.371 C24.753,19.371 25.187,19.806 25.187,20.340 L25.187,22.277 C25.187,22.812 24.753,23.247 24.218,23.247 L22.281,23.247 C21.746,23.247 21.312,22.812 21.312,22.277 L21.312,20.340 C21.312,19.806 21.746,19.371 22.281,19.371 Z" class="cls-1"/>
    </symbol>

    <symbol viewBox="0 0 31 31" id="calls">
        <path d="M6.059,1.935 C6.091,1.935 6.118,1.938 6.138,1.942 C6.682,2.732 9.602,7.155 10.131,7.981 C10.133,8.068 10.104,8.289 9.938,8.605 C9.761,8.941 9.212,9.920 8.430,11.292 L7.822,12.358 L8.527,13.363 C9.053,14.110 10.304,15.736 12.776,18.208 C15.258,20.693 16.877,21.940 17.621,22.464 L18.625,23.170 L19.691,22.560 C20.724,21.970 21.973,21.263 22.379,21.049 C22.704,20.877 22.927,20.864 22.988,20.864 C22.997,20.864 23.006,20.864 23.012,20.865 C23.752,21.329 28.268,24.328 29.065,24.875 C29.078,24.953 29.066,25.121 28.919,25.332 C27.693,27.031 25.952,28.807 25.270,29.061 C21.643,28.890 16.554,25.702 10.922,20.065 C5.289,14.429 2.103,9.342 1.935,5.726 C2.179,5.043 3.954,3.289 5.637,2.072 C5.762,1.985 5.916,1.935 6.059,1.935 M6.059,0.001 C5.547,0.001 5.004,0.155 4.533,0.484 C4.488,0.515 -0.062,3.816 -0.002,5.694 C0.166,10.966 5.288,17.163 9.555,21.432 C13.821,25.703 20.015,30.828 25.307,30.998 L25.350,30.998 C27.203,30.998 30.459,26.503 30.490,26.459 C31.345,25.238 31.033,23.893 30.255,23.346 C29.782,23.014 24.603,19.569 23.969,19.181 C23.692,19.012 23.355,18.929 22.988,18.929 C22.515,18.929 21.991,19.068 21.479,19.336 C20.980,19.599 19.471,20.457 18.732,20.881 C18.082,20.424 16.553,19.252 14.144,16.840 C11.751,14.446 10.570,12.905 10.110,12.250 C10.531,11.512 11.389,10.001 11.650,9.505 C12.144,8.567 12.200,7.631 11.799,6.999 C11.422,6.404 7.993,1.201 7.639,0.712 C7.305,0.250 6.708,0.001 6.059,0.001 L6.059,0.001 Z" class="cls-1"/>
    </symbol>

    <symbol viewBox="0 0 31 31" id="instant-location">
        <path d="M30.424,16.082 L27.316,16.082 C27.021,22.152 22.152,27.021 16.082,27.315 L16.082,30.424 C16.082,30.745 15.822,31.006 15.500,31.006 C15.178,31.006 14.918,30.745 14.918,30.424 L14.918,27.315 C8.848,27.021 3.979,22.152 3.684,16.082 L0.576,16.082 C0.255,16.082 -0.006,15.822 -0.006,15.500 C-0.006,15.178 0.255,14.918 0.576,14.918 L3.684,14.918 C3.979,8.848 8.848,3.979 14.918,3.685 L14.918,0.576 C14.918,0.255 15.178,-0.006 15.500,-0.006 C15.822,-0.006 16.082,0.255 16.082,0.576 L16.082,3.685 C22.152,3.979 27.021,8.848 27.316,14.918 L30.424,14.918 C30.745,14.918 31.006,15.178 31.006,15.500 C31.006,15.822 30.745,16.082 30.424,16.082 ZM15.500,4.835 C9.610,4.835 4.835,9.610 4.835,15.500 C4.835,21.390 9.610,26.165 15.500,26.165 C21.390,26.165 26.165,21.390 26.165,15.500 C26.165,9.610 21.390,4.835 15.500,4.835 ZM15.864,21.688 C15.572,21.873 15.132,21.831 14.772,21.761 C13.696,20.988 13.778,18.567 13.025,18.048 C11.901,17.274 10.036,17.686 9.458,16.374 C9.433,16.155 9.300,15.473 9.822,15.063 C10.344,14.654 18.000,11.000 18.000,11.000 C18.000,11.000 19.507,10.542 20.000,11.000 C20.493,11.458 20.373,12.413 19.941,13.389 C19.173,14.782 16.582,21.233 15.864,21.688 ZM11.065,15.696 C10.882,15.790 11.119,15.803 11.146,15.856 C14.308,16.722 14.283,16.596 15.279,20.015 C15.306,19.962 15.333,19.829 15.360,19.775 C16.664,17.176 17.896,14.587 19.006,12.017 C16.359,13.243 13.712,14.470 11.065,15.696 Z" class="cls-1"/>

    </symbol>

    <symbol viewBox="0 0 31 19" id="keylogger">
        <path d="M28.979,18.990 L2.027,18.990 C0.916,18.990 0.012,18.089 0.012,16.982 L0.012,7.536 C0.012,6.429 0.916,5.528 2.027,5.528 L25.320,5.528 C25.049,4.603 24.192,3.925 23.178,3.925 L21.115,3.925 C20.031,3.925 19.149,3.046 19.149,1.965 C19.149,0.885 20.031,0.006 21.115,0.006 L21.549,0.006 C21.894,0.006 22.173,0.285 22.173,0.628 C22.173,0.971 21.894,1.250 21.549,1.250 L21.115,1.250 C20.719,1.250 20.397,1.571 20.397,1.965 C20.397,2.360 20.719,2.681 21.115,2.681 L23.178,2.681 C24.884,2.681 26.307,3.911 26.601,5.528 L28.979,5.528 C30.090,5.528 30.994,6.429 30.994,7.536 L30.994,16.982 C30.994,18.089 30.090,18.990 28.979,18.990 ZM29.746,7.536 C29.746,7.115 29.402,6.772 28.979,6.772 L2.027,6.772 C1.604,6.772 1.260,7.115 1.260,7.536 L1.260,16.982 C1.260,17.403 1.604,17.746 2.027,17.746 L28.979,17.746 C29.402,17.746 29.746,17.403 29.746,16.982 L29.746,7.536 ZM27.770,16.012 L26.882,16.012 C26.723,16.012 26.594,15.883 26.594,15.725 L26.594,14.841 C26.594,14.682 26.723,14.554 26.882,14.554 L27.770,14.554 C27.929,14.554 28.058,14.682 28.058,14.841 L28.058,15.725 C28.058,15.883 27.929,16.012 27.770,16.012 ZM27.770,14.007 L26.882,14.007 C26.723,14.007 26.594,13.878 26.594,13.720 L26.594,12.836 C26.594,12.677 26.723,12.549 26.882,12.549 L27.770,12.549 C27.929,12.549 28.058,12.677 28.058,12.836 L28.058,13.720 C28.058,13.878 27.929,14.007 27.770,14.007 ZM27.770,12.002 L26.882,12.002 C26.723,12.002 26.594,11.874 26.594,11.715 L26.594,10.831 C26.594,10.673 26.723,10.544 26.882,10.544 L27.770,10.544 C27.929,10.544 28.058,10.673 28.058,10.831 L28.058,11.715 C28.058,11.874 27.929,12.002 27.770,12.002 ZM27.770,9.997 L26.882,9.997 C26.723,9.997 26.594,9.869 26.594,9.710 L26.594,8.826 C26.594,8.668 26.723,8.539 26.882,8.539 L27.770,8.539 C27.929,8.539 28.058,8.668 28.058,8.826 L28.058,9.710 C28.058,9.869 27.929,9.997 27.770,9.997 ZM25.261,16.012 L21.864,16.012 C21.705,16.012 21.576,15.883 21.576,15.725 L21.576,14.841 C21.576,14.682 21.705,14.554 21.864,14.554 L25.261,14.554 C25.420,14.554 25.549,14.682 25.549,14.841 L25.549,15.725 C25.549,15.883 25.420,16.012 25.261,16.012 ZM25.261,14.007 L24.373,14.007 C24.214,14.007 24.085,13.878 24.085,13.720 L24.085,12.836 C24.085,12.677 24.214,12.549 24.373,12.549 L25.261,12.549 C25.420,12.549 25.549,12.677 25.549,12.836 L25.549,13.720 C25.549,13.878 25.420,14.007 25.261,14.007 ZM25.261,12.002 L24.373,12.002 C24.214,12.002 24.085,11.874 24.085,11.715 L24.085,10.831 C24.085,10.673 24.214,10.544 24.373,10.544 L25.261,10.544 C25.420,10.544 25.549,10.673 25.549,10.831 L25.549,11.715 C25.549,11.874 25.420,12.002 25.261,12.002 ZM25.261,9.997 L24.373,9.997 C24.214,9.997 24.085,9.869 24.085,9.710 L24.085,8.826 C24.085,8.668 24.214,8.539 24.373,8.539 L25.261,8.539 C25.420,8.539 25.549,8.668 25.549,8.826 L25.549,9.710 C25.549,9.869 25.420,9.997 25.261,9.997 ZM22.752,14.007 L21.864,14.007 C21.705,14.007 21.576,13.878 21.576,13.720 L21.576,12.836 C21.576,12.677 21.705,12.549 21.864,12.549 L22.752,12.549 C22.911,12.549 23.040,12.677 23.040,12.836 L23.040,13.720 C23.040,13.878 22.911,14.007 22.752,14.007 ZM22.752,12.002 L21.864,12.002 C21.705,12.002 21.576,11.874 21.576,11.715 L21.576,10.831 C21.576,10.673 21.705,10.544 21.864,10.544 L22.752,10.544 C22.911,10.544 23.040,10.673 23.040,10.831 L23.040,11.715 C23.040,11.874 22.911,12.002 22.752,12.002 ZM22.752,9.997 L21.864,9.997 C21.705,9.997 21.576,9.869 21.576,9.710 L21.576,8.826 C21.576,8.668 21.705,8.539 21.864,8.539 L22.752,8.539 C22.911,8.539 23.040,8.668 23.040,8.826 L23.040,9.710 C23.040,9.869 22.911,9.997 22.752,9.997 ZM19.229,16.012 L6.993,16.012 C6.834,16.012 6.705,15.883 6.705,15.725 L6.705,14.841 C6.705,14.682 6.834,14.554 6.993,14.554 L19.229,14.554 C19.388,14.554 19.517,14.682 19.517,14.841 L19.517,15.725 C19.517,15.883 19.388,16.012 19.229,16.012 ZM19.229,14.007 L18.341,14.007 C18.182,14.007 18.053,13.878 18.053,13.720 L18.053,12.836 C18.053,12.677 18.182,12.549 18.341,12.549 L19.229,12.549 C19.388,12.549 19.517,12.677 19.517,12.836 L19.517,13.720 C19.517,13.878 19.388,14.007 19.229,14.007 ZM19.229,12.002 L18.341,12.002 C18.182,12.002 18.053,11.874 18.053,11.715 L18.053,10.831 C18.053,10.673 18.182,10.544 18.341,10.544 L19.229,10.544 C19.388,10.544 19.517,10.673 19.517,10.831 L19.517,11.715 C19.517,11.874 19.388,12.002 19.229,12.002 ZM19.229,9.997 L18.341,9.997 C18.182,9.997 18.053,9.869 18.053,9.710 L18.053,8.826 C18.053,8.668 18.182,8.539 18.341,8.539 L19.229,8.539 C19.388,8.539 19.517,8.668 19.517,8.826 L19.517,9.710 C19.517,9.869 19.388,9.997 19.229,9.997 ZM16.720,14.007 L15.832,14.007 C15.673,14.007 15.544,13.878 15.544,13.720 L15.544,12.836 C15.544,12.677 15.673,12.549 15.832,12.549 L16.720,12.549 C16.879,12.549 17.008,12.677 17.008,12.836 L17.008,13.720 C17.008,13.878 16.879,14.007 16.720,14.007 ZM16.720,12.002 L15.832,12.002 C15.673,12.002 15.544,11.874 15.544,11.715 L15.544,10.831 C15.544,10.673 15.673,10.544 15.832,10.544 L16.720,10.544 C16.879,10.544 17.008,10.673 17.008,10.831 L17.008,11.715 C17.008,11.874 16.879,12.002 16.720,12.002 ZM16.720,9.997 L15.832,9.997 C15.673,9.997 15.544,9.869 15.544,9.710 L15.544,8.826 C15.544,8.668 15.673,8.539 15.832,8.539 L16.720,8.539 C16.879,8.539 17.008,8.668 17.008,8.826 L17.008,9.710 C17.008,9.869 16.879,9.997 16.720,9.997 ZM14.211,14.007 L13.323,14.007 C13.164,14.007 13.035,13.878 13.035,13.720 L13.035,12.836 C13.035,12.677 13.164,12.549 13.323,12.549 L14.211,12.549 C14.370,12.549 14.499,12.677 14.499,12.836 L14.499,13.720 C14.499,13.878 14.370,14.007 14.211,14.007 ZM14.211,12.002 L13.323,12.002 C13.164,12.002 13.035,11.874 13.035,11.715 L13.035,10.831 C13.035,10.673 13.164,10.544 13.323,10.544 L14.211,10.544 C14.370,10.544 14.499,10.673 14.499,10.831 L14.499,11.715 C14.499,11.874 14.370,12.002 14.211,12.002 ZM14.211,9.997 L13.323,9.997 C13.164,9.997 13.035,9.869 13.035,9.710 L13.035,8.826 C13.035,8.668 13.164,8.539 13.323,8.539 L14.211,8.539 C14.370,8.539 14.499,8.668 14.499,8.826 L14.499,9.710 C14.499,9.869 14.370,9.997 14.211,9.997 ZM11.702,14.007 L10.814,14.007 C10.655,14.007 10.526,13.878 10.526,13.720 L10.526,12.836 C10.526,12.677 10.655,12.549 10.814,12.549 L11.702,12.549 C11.861,12.549 11.990,12.677 11.990,12.836 L11.990,13.720 C11.990,13.878 11.861,14.007 11.702,14.007 ZM11.702,12.002 L10.814,12.002 C10.655,12.002 10.526,11.874 10.526,11.715 L10.526,10.831 C10.526,10.673 10.655,10.544 10.814,10.544 L11.702,10.544 C11.861,10.544 11.990,10.673 11.990,10.831 L11.990,11.715 C11.990,11.874 11.861,12.002 11.702,12.002 ZM11.702,9.997 L10.814,9.997 C10.655,9.997 10.526,9.869 10.526,9.710 L10.526,8.826 C10.526,8.668 10.655,8.539 10.814,8.539 L11.702,8.539 C11.861,8.539 11.990,8.668 11.990,8.826 L11.990,9.710 C11.990,9.869 11.861,9.997 11.702,9.997 ZM9.193,14.007 L8.305,14.007 C8.146,14.007 8.017,13.878 8.017,13.720 L8.017,12.836 C8.017,12.677 8.146,12.549 8.305,12.549 L9.193,12.549 C9.352,12.549 9.481,12.677 9.481,12.836 L9.481,13.720 C9.481,13.878 9.352,14.007 9.193,14.007 ZM9.193,12.002 L8.305,12.002 C8.146,12.002 8.017,11.874 8.017,11.715 L8.017,10.831 C8.017,10.673 8.146,10.544 8.305,10.544 L9.193,10.544 C9.352,10.544 9.481,10.673 9.481,10.831 L9.481,11.715 C9.481,11.874 9.352,12.002 9.193,12.002 ZM9.193,9.997 L8.305,9.997 C8.146,9.997 8.017,9.869 8.017,9.710 L8.017,8.826 C8.017,8.668 8.146,8.539 8.305,8.539 L9.193,8.539 C9.352,8.539 9.481,8.668 9.481,8.826 L9.481,9.710 C9.481,9.869 9.352,9.997 9.193,9.997 ZM6.684,14.007 L5.796,14.007 C5.637,14.007 5.508,13.878 5.508,13.720 L5.508,12.836 C5.508,12.677 5.637,12.549 5.796,12.549 L6.684,12.549 C6.843,12.549 6.972,12.677 6.972,12.836 L6.972,13.720 C6.972,13.878 6.843,14.007 6.684,14.007 ZM6.684,12.002 L5.796,12.002 C5.637,12.002 5.508,11.874 5.508,11.715 L5.508,10.831 C5.508,10.673 5.637,10.544 5.796,10.544 L6.684,10.544 C6.843,10.544 6.972,10.673 6.972,10.831 L6.972,11.715 C6.972,11.874 6.843,12.002 6.684,12.002 ZM6.684,9.997 L5.796,9.997 C5.637,9.997 5.508,9.869 5.508,9.710 L5.508,8.826 C5.508,8.668 5.637,8.539 5.796,8.539 L6.684,8.539 C6.843,8.539 6.972,8.668 6.972,8.826 L6.972,9.710 C6.972,9.869 6.843,9.997 6.684,9.997 ZM5.508,15.725 C5.508,15.883 5.379,16.012 5.219,16.012 L3.287,16.012 C3.128,16.012 2.999,15.883 2.999,15.725 L2.999,14.841 C2.999,14.682 3.128,14.554 3.287,14.554 L5.219,14.554 C5.379,14.554 5.508,14.682 5.508,14.841 L5.508,15.725 ZM4.175,14.007 L3.287,14.007 C3.128,14.007 2.999,13.878 2.999,13.720 L2.999,12.836 C2.999,12.677 3.128,12.549 3.287,12.549 L4.175,12.549 C4.334,12.549 4.463,12.677 4.463,12.836 L4.463,13.720 C4.463,13.878 4.334,14.007 4.175,14.007 ZM4.175,12.002 L3.287,12.002 C3.128,12.002 2.999,11.874 2.999,11.715 L2.999,10.831 C2.999,10.673 3.128,10.544 3.287,10.544 L4.175,10.544 C4.334,10.544 4.463,10.673 4.463,10.831 L4.463,11.715 C4.463,11.874 4.334,12.002 4.175,12.002 ZM4.175,9.997 L3.287,9.997 C3.128,9.997 2.999,9.869 2.999,9.710 L2.999,8.826 C2.999,8.668 3.128,8.539 3.287,8.539 L4.175,8.539 C4.334,8.539 4.463,8.668 4.463,8.826 L4.463,9.710 C4.463,9.869 4.334,9.997 4.175,9.997 Z" class="cls-1"/>
    </symbol>

    <symbol viewBox="0 0 24 31" id="location">
        <path d="M13.994,30.227 C13.977,30.247 13.282,30.999 12.419,30.999 C12.416,30.999 12.345,30.999 12.343,30.999 C11.480,30.999 10.780,30.247 10.764,30.227 C6.433,25.402 -0.006,18.536 -0.006,11.822 C-0.006,5.413 5.550,-0.000 12.109,-0.000 C19.661,-0.000 23.995,5.413 23.995,11.822 C23.995,18.238 18.059,25.702 13.994,30.227 ZM12.109,1.937 C6.626,1.937 1.994,6.465 1.994,11.822 C1.994,17.533 7.617,23.782 11.723,28.345 L12.247,28.927 C12.283,28.961 12.334,29.000 12.380,29.031 C12.425,29.000 12.475,28.961 12.511,28.927 C18.804,21.912 21.994,16.158 21.994,11.822 C21.994,6.901 18.938,1.937 12.109,1.937 ZM12.030,17.491 C8.716,17.491 6.030,14.888 6.030,11.679 C6.030,8.468 8.716,5.867 12.030,5.867 C15.343,5.867 18.030,8.468 18.030,11.679 C18.030,14.888 15.343,17.491 12.030,17.491 ZM11.984,7.761 C9.778,7.761 7.984,9.500 7.984,11.636 C7.984,13.774 9.824,15.554 12.030,15.554 C14.236,15.554 15.984,13.774 15.984,11.636 C15.984,9.500 14.190,7.761 11.984,7.761 Z" class="cls-1"/>
    </symbol>

    <symbol viewBox="0 0 24 31" id="lock">
        <path d="M20.308,31.000 L3.692,31.000 C1.656,31.000 -0.000,29.262 -0.000,27.125 L-0.000,15.500 C-0.000,13.362 1.656,11.625 3.692,11.625 L4.615,11.625 L4.615,7.927 C4.615,3.556 7.595,-0.000 11.966,-0.000 C16.320,-0.000 19.385,3.482 19.385,7.927 L19.385,11.625 L20.308,11.625 C22.344,11.625 24.000,13.362 24.000,15.500 L24.000,27.125 C24.000,29.262 22.344,31.000 20.308,31.000 ZM17.538,7.927 C17.538,4.568 15.285,1.937 11.966,1.937 C8.612,1.937 6.461,4.625 6.461,7.927 L6.461,11.625 L17.538,11.625 L17.538,7.927 ZM22.154,15.500 C22.154,14.432 21.325,13.562 20.308,13.562 L3.692,13.562 C2.675,13.562 1.846,14.432 1.846,15.500 L1.846,27.125 C1.846,28.193 2.675,29.062 3.692,29.062 L20.308,29.062 C21.325,29.062 22.154,28.193 22.154,27.125 L22.154,15.500 ZM12.923,21.043 L12.923,24.218 C12.923,24.753 12.510,25.187 12.000,25.187 C11.490,25.187 11.077,24.753 11.077,24.218 L11.077,21.043 C10.527,20.708 10.154,20.090 10.154,19.375 C10.154,18.305 10.980,17.437 12.000,17.437 C13.020,17.437 13.846,18.305 13.846,19.375 C13.846,20.090 13.473,20.708 12.923,21.043 Z" class="cls-1"/>
    </symbol>

    <symbol viewBox="0 0 31 22" id="mail">
        <path d="M31.000,18.496 C31.000,20.153 30.183,21.996 28.578,21.996 L3.390,21.996 C1.785,21.996 -0.000,20.153 -0.000,18.496 L-0.000,2.496 C-0.000,2.416 0.022,2.346 0.031,2.270 C-0.021,1.981 0.036,1.674 0.236,1.435 C0.272,1.393 0.320,1.371 0.360,1.336 C0.960,0.450 2.219,-0.004 3.390,-0.004 L28.578,-0.004 C29.905,-0.004 30.683,0.581 30.917,1.716 C30.982,1.879 31.004,2.050 30.982,2.221 C30.987,2.313 31.000,2.398 31.000,2.496 L31.000,18.496 ZM3.390,19.996 L28.578,19.996 C29.112,19.996 29.062,19.049 29.062,18.496 L29.062,4.170 L16.134,14.846 C15.952,15.009 15.726,15.090 15.500,15.090 C15.274,15.090 15.048,15.009 14.865,14.846 L1.937,4.170 L1.937,18.496 C1.937,19.049 2.856,19.996 3.390,19.996 ZM28.093,1.996 L3.390,1.996 C3.123,1.996 2.758,1.983 2.461,2.040 L15.500,12.767 L28.591,1.996 C28.585,1.996 28.584,1.996 28.578,1.996 L28.093,1.996 Z" class="cls-1"/>
    </symbol>

    <symbol viewBox="0 0 31 26" id="photos">
        <path d="M28.154,26.003 L2.704,26.003 C1.453,26.003 -0.000,24.659 -0.000,23.004 L-0.000,6.973 C-0.000,5.004 1.937,4.004 2.906,4.004 L7.362,4.004 L9.687,0.003 L21.312,0.003 L23.638,4.004 L28.094,4.004 C30.031,4.004 31.000,6.004 31.000,7.004 L31.000,23.035 C31.000,24.598 29.426,26.003 28.154,26.003 ZM29.062,7.004 C29.053,6.924 28.777,6.004 28.094,6.004 L23.638,6.004 L22.541,6.004 L22.009,5.034 L20.279,2.004 L10.784,2.004 L9.024,5.033 L8.459,6.004 L7.362,6.004 L2.906,6.004 C2.762,6.020 1.937,6.339 1.937,6.973 L1.937,23.004 C1.937,23.534 2.485,23.985 2.710,24.004 L28.154,24.004 C28.443,23.981 29.062,23.430 29.062,23.035 L29.062,7.004 ZM15.500,21.004 C11.754,21.004 8.718,17.870 8.718,14.004 C8.718,10.138 11.754,7.004 15.500,7.004 C19.245,7.004 22.281,10.138 22.281,14.004 C22.281,17.870 19.245,21.004 15.500,21.004 ZM15.500,9.004 C12.829,9.004 10.656,11.247 10.656,14.004 C10.656,16.761 12.829,19.003 15.500,19.003 C18.170,19.003 20.344,16.761 20.344,14.004 C20.344,11.247 18.170,9.004 15.500,9.004 Z" class="cls-1"/>
    </symbol>

    <symbol viewBox="0 0 28 31" id="reboot">
        <path d="M22.411,25.281 C21.985,25.600 21.380,25.515 21.060,25.088 C20.740,24.660 20.826,24.052 21.252,23.732 C24.318,21.418 26.077,17.887 26.077,14.042 C26.077,7.365 20.636,1.934 13.986,1.934 C7.336,1.934 1.926,7.365 1.926,14.042 C1.926,20.401 6.869,25.709 13.179,26.125 C13.190,26.126 13.198,26.132 13.208,26.133 L11.521,23.505 C11.318,23.171 11.341,22.688 11.683,22.499 L11.907,22.342 C12.250,22.155 12.690,22.274 12.893,22.608 L15.748,27.087 C15.752,27.093 15.758,27.099 15.761,27.104 L15.944,27.406 C16.046,27.574 16.068,27.764 16.021,27.935 C15.975,28.109 15.863,28.263 15.691,28.358 L15.381,28.528 C15.375,28.532 15.369,28.531 15.363,28.533 L10.740,30.911 C10.398,31.099 9.957,30.980 9.754,30.646 L9.656,30.391 C9.453,30.055 9.657,29.631 9.999,29.444 L12.781,28.027 C5.591,27.411 -0.004,21.326 -0.004,14.042 C-0.004,6.297 6.271,-0.005 13.986,-0.005 C21.700,-0.005 28.007,6.297 28.007,14.042 C28.007,18.502 25.968,22.598 22.411,25.281 ZM14.019,27.397 L14.017,27.393 C14.017,27.395 14.016,27.397 14.016,27.398 L14.019,27.397 Z" class="cls-1"/>
    </symbol>

    <symbol viewBox="0 0 22.438 31.094" id="remote">
        <path d="M12.231,8.223 L16.015,9.096 L15.796,10.041 L12.013,9.167 L12.231,8.223 ZM8.839,0.012 L7.869,0.012 L7.869,3.896 L8.839,3.896 L8.839,0.012 ZM14.745,3.262 L14.136,2.505 L11.119,4.948 L11.728,5.704 L14.745,3.262 ZM4.750,9.137 L4.532,8.192 L0.749,9.066 L0.967,10.010 L4.750,9.137 ZM22.434,17.008 L22.434,22.837 C22.434,27.402 18.742,31.094 14.176,31.094 C11.068,31.094 7.960,29.636 5.726,25.655 C2.623,19.922 -1.461,16.134 0.485,14.189 C1.846,12.828 3.984,14.189 5.924,15.936 L5.924,7.294 C5.924,5.933 6.990,4.866 8.351,4.866 C9.712,4.866 10.779,5.933 10.779,7.294 L10.779,12.148 C11.165,11.859 11.652,11.661 12.236,11.661 C13.206,11.661 14.080,12.244 14.471,13.214 C14.958,12.823 15.537,12.630 16.121,12.630 C17.482,12.630 18.549,13.697 18.549,15.058 C18.935,14.768 19.422,14.570 20.006,14.570 C21.367,14.580 22.434,15.647 22.434,17.008 ZM21.464,17.008 C21.464,16.231 20.783,15.550 20.006,15.550 C19.229,15.550 18.549,16.231 18.549,17.008 L18.549,17.495 L17.579,17.495 L17.579,15.068 C17.579,14.291 16.898,13.610 16.121,13.610 C15.344,13.610 14.664,14.291 14.664,15.068 L14.664,16.525 L13.694,16.525 L13.694,14.098 C13.694,13.321 13.013,12.641 12.236,12.641 C11.459,12.641 10.779,13.321 10.779,14.098 L10.779,17.495 L9.809,17.495 L9.809,7.294 C9.809,6.517 9.128,5.836 8.351,5.836 C7.574,5.836 6.894,6.517 6.894,7.294 L6.894,18.267 C4.852,16.129 2.232,13.798 1.165,14.870 C0.195,15.936 2.912,18.851 6.604,25.259 C8.351,28.077 10.489,30.114 14.181,30.114 C18.163,30.114 21.464,26.615 21.464,22.832 L21.464,19.140 L21.464,17.008 L21.464,17.008 ZM5.705,4.963 L2.689,2.520 L2.079,3.277 L5.096,5.719 L5.705,4.963 Z" class="cls-1"/>
    </symbol>

    <symbol viewBox="0 0 27 31.156" id="removal">
        <path d="M23.263,23.179 C23.258,23.181 23.257,23.187 23.251,23.190 C23.250,23.192 23.249,23.192 23.249,23.192 C18.198,28.209 14.128,31.148 13.500,31.148 C12.872,31.148 9.470,29.131 2.974,22.447 C2.967,22.440 2.957,22.438 2.951,22.430 C2.942,22.421 2.939,22.408 2.930,22.398 C1.316,20.410 0.537,19.219 -0.012,17.017 L-0.012,4.532 C-0.012,4.245 0.175,3.992 0.447,3.909 L13.315,0.005 C13.436,-0.033 13.563,-0.033 13.684,0.005 L26.552,3.909 C26.825,3.992 27.012,4.245 27.011,4.532 L27.011,17.017 C26.461,19.564 25.222,20.896 23.263,23.179 ZM24.937,5.754 L13.530,1.929 L2.124,5.754 L2.124,16.823 C2.124,18.294 3.880,20.308 4.168,20.573 C8.220,25.210 12.288,28.647 13.530,28.647 C14.773,28.647 18.043,25.586 22.329,21.173 C22.712,20.818 24.937,18.508 24.937,16.823 L24.937,5.754 ZM17.270,19.597 L13.518,15.845 L9.808,19.554 L8.428,18.174 L12.138,14.465 L8.428,10.755 L9.808,9.375 L13.518,13.084 L17.270,9.332 L18.651,10.712 L14.898,14.465 L18.651,18.217 L17.270,19.597 Z" class="cls-1"/>
    </symbol>

    <symbol viewBox="0 0 31 22.469" id="sim-change">
        <path d="M30.998,3.315 L30.998,19.145 C30.998,20.982 29.509,22.471 27.672,22.471 L3.328,22.471 C1.491,22.471 0.002,20.982 0.002,19.145 L0.002,8.304 C0.002,3.712 3.725,-0.011 8.316,-0.011 L27.672,-0.011 C29.509,-0.011 30.998,1.478 30.998,3.315 ZM7.651,1.453 C4.508,1.453 1.333,5.574 1.333,7.772 C1.333,10.555 1.333,19.478 1.333,19.478 C1.333,20.200 2.226,21.141 2.995,21.141 L27.938,21.141 C28.613,21.141 29.601,20.295 29.601,19.478 L29.601,3.116 C29.601,2.298 28.702,1.453 27.938,1.453 C27.938,1.453 7.912,1.453 7.651,1.453 ZM28.404,5.843 L28.404,16.684 C28.404,18.521 26.915,20.010 25.078,20.010 L13.438,20.010 C11.601,20.010 10.112,18.521 10.112,16.684 L10.112,5.843 C10.112,4.006 11.601,2.517 13.438,2.517 L25.078,2.517 C26.915,2.517 28.404,4.006 28.404,5.843 ZM27.140,10.632 L27.140,8.104 L23.282,8.104 L23.282,10.632 L27.140,10.632 ZM27.140,14.423 L27.140,11.895 L23.282,11.895 L23.282,14.423 L27.140,14.423 ZM25.477,18.680 C26.395,18.680 27.140,17.935 27.140,17.017 L27.140,15.687 L23.282,15.687 L23.282,18.680 L25.477,18.680 ZM11.443,15.687 L11.443,17.017 C11.443,17.935 12.187,18.680 13.105,18.680 L15.300,18.680 L15.300,15.687 L11.443,15.687 ZM11.443,11.895 L11.443,14.423 L15.300,14.423 L15.300,11.895 L11.443,11.895 ZM11.443,8.104 L11.443,10.632 L15.300,10.632 L15.300,8.104 L11.443,8.104 ZM13.105,3.781 C12.187,3.781 11.443,4.525 11.443,5.444 L11.443,6.774 L15.300,6.774 L15.300,3.781 L13.105,3.781 ZM21.952,3.781 L21.686,3.781 L16.631,3.781 L16.631,18.680 L22.018,18.680 L22.018,8.068 C22.018,8.068 22.049,7.420 22.417,7.106 C22.786,6.793 23.415,6.774 23.415,6.774 L27.206,6.774 L27.206,5.444 C27.206,4.525 26.462,3.781 25.544,3.781 L21.952,3.781 Z" class="cls-1"/>
    </symbol>

    <symbol viewBox="0 0 31 27" id="sms-commands">
        <path d="M15.500,22.552 C15.210,22.552 14.925,22.538 14.640,22.525 L14.621,22.524 L7.099,26.939 C7.021,26.985 6.931,27.008 6.841,27.008 C6.765,27.008 6.688,26.991 6.618,26.958 C6.466,26.886 6.371,26.744 6.371,26.591 L6.371,20.652 C2.259,18.755 -0.000,15.433 -0.000,11.271 C-0.000,4.838 6.663,-0.012 15.500,-0.012 C24.337,-0.012 31.000,4.838 31.000,11.271 C31.000,17.702 24.337,22.552 15.500,22.552 ZM15.500,0.822 C7.200,0.822 0.939,5.314 0.939,11.271 C0.939,14.041 1.999,17.808 7.048,20.023 C7.208,20.093 7.309,20.238 7.309,20.397 L7.309,25.816 L14.232,21.753 C14.316,21.703 14.419,21.674 14.516,21.684 L14.690,21.693 C14.959,21.706 15.227,21.719 15.499,21.719 C23.800,21.719 30.060,17.227 30.060,11.271 C30.060,5.314 23.800,0.822 15.500,0.822 ZM22.062,12.944 L20.844,13.248 C20.753,13.526 20.640,13.794 20.509,14.052 L21.160,15.137 C21.403,15.526 21.526,16.097 21.160,16.463 L20.497,17.126 C20.131,17.492 19.513,17.426 19.140,17.168 L18.083,16.494 C17.812,16.634 17.530,16.754 17.235,16.849 L16.965,18.070 C16.884,18.517 16.494,19.000 15.976,19.000 L15.039,19.000 C14.521,19.000 14.204,18.509 14.101,18.062 L13.801,16.863 C13.481,16.761 13.175,16.631 12.882,16.477 L11.799,17.168 C11.425,17.426 10.807,17.492 10.442,17.126 L9.778,16.463 C9.413,16.097 9.535,15.526 9.778,15.137 L10.464,13.995 C10.345,13.754 10.240,13.506 10.156,13.248 L8.937,12.944 C8.491,12.841 8.000,12.524 8.000,12.006 L8.000,11.069 C8.000,10.551 8.483,10.161 8.930,10.080 L10.133,9.813 C10.221,9.533 10.335,9.266 10.463,9.007 L9.778,7.866 C9.535,7.477 9.412,6.906 9.778,6.540 L10.441,5.877 C10.807,5.511 11.425,5.577 11.798,5.835 L12.880,6.524 C13.170,6.371 13.475,6.242 13.793,6.140 L14.094,4.937 C14.196,4.491 14.514,4.000 15.031,4.000 L15.969,4.000 C16.486,4.000 16.877,4.483 16.958,4.930 L17.228,6.148 C17.525,6.244 17.811,6.365 18.085,6.508 L19.140,5.835 C19.513,5.577 20.131,5.511 20.497,5.877 L21.160,6.540 C21.526,6.906 21.403,7.477 21.160,7.866 L20.509,8.950 C20.650,9.226 20.773,9.513 20.867,9.813 L22.070,10.080 C22.517,10.161 23.000,10.551 23.000,11.069 L23.000,12.006 C23.000,12.524 22.509,12.841 22.062,12.944 ZM21.867,10.995 L20.134,10.611 L19.972,10.093 C19.900,9.861 19.802,9.626 19.674,9.376 L19.438,8.913 L20.366,7.368 C20.417,7.286 20.442,7.206 20.451,7.157 L19.835,6.559 C19.775,6.559 19.707,6.583 19.644,6.626 L18.133,7.589 L17.653,7.340 C17.419,7.218 17.179,7.117 16.939,7.040 L16.429,6.875 L16.035,5.097 C16.023,5.029 15.962,4.947 15.969,4.937 L15.097,4.937 C15.068,4.978 15.028,5.057 15.003,5.165 L14.576,6.875 L14.077,7.034 C13.820,7.116 13.564,7.223 13.317,7.354 L12.836,7.608 L11.264,6.606 C11.231,6.583 11.164,6.559 11.104,6.540 L10.488,7.156 C10.496,7.205 10.523,7.289 10.582,7.383 L11.531,8.964 L11.303,9.424 C11.184,9.664 11.094,9.884 11.027,10.094 L10.865,10.611 L9.097,11.003 C9.032,11.014 8.955,11.069 8.940,11.069 C8.939,11.069 8.938,11.069 8.937,11.069 L8.937,11.940 C8.978,11.969 9.057,12.009 9.165,12.034 L10.886,12.464 L11.047,12.958 C11.113,13.159 11.197,13.362 11.304,13.578 L11.532,14.037 L10.573,15.635 C10.522,15.717 10.496,15.797 10.488,15.846 L11.103,16.444 C11.164,16.444 11.232,16.420 11.295,16.377 L12.838,15.393 L13.320,15.648 C13.570,15.780 13.827,15.888 14.084,15.969 L14.583,16.127 L15.015,17.853 C15.036,17.948 15.076,18.023 15.104,18.062 L15.948,18.062 C15.982,18.035 16.032,17.960 16.050,17.867 L16.436,16.122 L16.947,15.957 C17.183,15.880 17.420,15.781 17.651,15.661 L18.131,15.413 L19.674,16.397 C19.707,16.420 19.775,16.444 19.834,16.463 L20.451,15.847 C20.442,15.797 20.415,15.714 20.356,15.620 L19.438,14.089 L19.673,13.626 C19.786,13.404 19.881,13.179 19.954,12.957 L20.115,12.464 L21.853,12.030 C21.948,12.008 22.023,11.969 22.063,11.940 L22.070,11.108 C22.053,11.075 21.971,11.015 21.867,10.995 ZM15.506,14.317 C13.950,14.317 12.683,13.053 12.683,11.500 C12.683,9.947 13.950,8.683 15.506,8.683 C17.063,8.683 18.330,9.947 18.330,11.500 C18.330,13.053 17.063,14.317 15.506,14.317 ZM15.500,9.625 C14.466,9.625 13.625,10.466 13.625,11.500 C13.625,12.534 14.466,13.375 15.500,13.375 C16.534,13.375 17.375,12.534 17.375,11.500 C17.375,10.466 16.534,9.625 15.500,9.625 Z" class="cls-1"/>

    </symbol>

    <symbol viewBox="0 0 15.531 31.062" id="facebook">
        <path d="M10.912,5.737 C10.547,6.122 10.508,6.486 10.508,6.486 L10.508,10.187 L15.524,10.187 L14.877,15.689 L10.427,15.689 L10.427,31.061 L3.469,31.061 L3.469,15.689 L-0.010,15.689 L-0.010,10.187 L3.469,10.187 L3.469,5.818 C3.469,2.601 6.077,-0.007 9.294,-0.007 L10.184,-0.007 L10.427,-0.007 L15.524,-0.007 L15.524,5.333 L11.804,5.333 C11.804,5.333 11.277,5.353 10.912,5.737 ZM12.146,3.715 L14.067,3.715 L14.067,1.449 L8.889,1.449 C6.789,1.449 5.087,3.152 5.087,5.252 L5.087,11.805 L1.446,11.805 L1.446,14.071 L5.087,14.071 L5.087,29.605 L8.889,29.605 L8.889,14.071 L13.582,14.071 L13.906,11.805 L8.889,11.805 L8.889,6.836 C8.889,6.836 8.815,5.563 9.779,4.605 C10.744,3.646 12.146,3.715 12.146,3.715 Z" class="cls-1"/>
    </symbol>

    <symbol viewBox="0 0 31 27" id="texts">
        <path d="M26.771,22.410 C26.771,22.426 26.776,22.439 26.776,22.456 C26.776,23.614 27.407,25.529 27.809,26.184 L27.807,26.184 C27.838,26.253 27.858,26.332 27.858,26.415 C27.858,26.738 27.581,27.000 27.238,27.000 C27.187,27.000 27.104,26.990 27.076,26.990 C27.066,26.990 27.064,26.990 27.065,26.992 C24.928,26.663 22.305,24.295 21.836,23.759 C21.356,23.825 21.032,23.834 20.630,23.834 C20.460,23.834 20.278,23.833 20.064,23.833 C16.119,23.833 12.974,22.432 11.051,20.210 C11.121,20.152 14.272,20.151 13.820,20.177 C15.483,21.409 17.433,22.001 20.064,22.001 C20.064,22.001 21.153,22.001 21.556,21.946 L22.574,21.797 C22.574,21.797 23.223,22.890 25.113,24.201 C24.965,23.607 24.864,21.260 24.864,21.260 L25.828,20.808 C28.090,19.714 29.063,18.281 29.063,16.305 C29.063,14.692 28.591,13.582 26.937,12.501 C27.154,11.878 27.353,11.171 27.415,10.510 C29.974,11.929 30.999,13.822 30.999,16.305 C30.999,18.972 29.660,21.011 26.771,22.410 ZM12.858,18.284 C12.609,18.284 12.399,18.286 12.202,18.286 C11.737,18.286 11.362,18.274 10.807,18.196 C10.266,18.819 6.618,21.450 4.146,21.831 C4.147,21.829 4.144,21.829 4.134,21.829 C4.100,21.829 4.005,21.840 3.946,21.840 C3.549,21.840 3.229,21.540 3.229,21.163 C3.229,21.068 3.251,20.979 3.288,20.896 L3.286,20.896 C3.751,20.138 4.932,18.298 4.932,16.957 C4.932,16.936 4.938,16.922 4.938,16.904 C1.594,15.286 -0.006,11.995 -0.006,8.908 C-0.006,3.952 5.658,-0.009 12.646,-0.009 C19.634,-0.009 25.178,3.952 25.178,8.908 C25.261,14.509 19.846,18.284 12.858,18.284 ZM12.646,1.823 C6.737,1.823 1.930,4.969 1.930,8.908 C1.930,11.274 3.137,13.975 5.819,15.273 L6.875,15.782 L6.784,16.904 C6.784,16.904 6.812,17.462 6.157,19.228 C7.233,18.588 8.483,17.601 8.770,17.287 L10.010,16.313 L11.091,16.385 C12.017,16.515 12.919,16.481 12.919,16.481 C18.828,16.481 23.223,13.275 23.242,8.908 C23.242,4.969 18.555,1.823 12.646,1.823 Z" class="cls-1"/>
    </symbol>

    <symbol viewBox="0 0 31.969 32" id="application">
        <path d="M23.170,15.611 C22.537,15.750 21.931,15.883 21.390,16.019 C20.447,16.257 19.861,16.724 18.579,18.006 L18.435,18.149 L18.295,18.290 L18.186,18.399 L18.011,18.575 C16.731,19.857 16.264,20.443 16.027,21.385 C15.891,21.930 15.758,22.538 15.618,23.173 C14.735,27.176 13.735,31.714 10.210,31.990 C10.113,31.998 10.018,32.001 9.922,32.001 C6.506,32.001 4.419,27.536 2.400,23.217 C2.025,22.415 1.672,21.659 1.327,20.970 C-0.891,16.533 -0.340,13.013 3.115,9.556 L4.966,7.702 L6.642,6.024 L7.718,4.947 L8.459,4.205 L9.569,3.094 C10.900,1.763 13.023,-0.007 16.090,-0.007 C17.613,-0.007 19.210,0.422 20.972,1.305 C21.660,1.649 22.415,2.003 23.214,2.378 C27.661,4.461 32.259,6.614 31.982,10.197 C31.707,13.727 27.171,14.727 23.170,15.611 ZM20.033,3.059 C18.528,2.304 17.223,1.959 16.042,1.959 C14.109,1.959 12.513,2.889 10.928,4.475 C10.437,4.967 9.829,5.575 9.083,6.322 C8.009,7.397 7.102,8.304 6.339,9.068 C5.593,9.815 4.984,10.425 4.494,10.914 C1.942,13.470 1.090,16.051 3.079,20.030 C5.038,23.943 7.257,29.942 9.896,29.942 C9.941,29.942 9.986,29.942 10.030,29.938 C12.517,29.742 13.250,24.163 14.083,20.844 C14.452,19.375 15.226,18.483 16.574,17.134 C16.668,17.041 16.762,16.945 16.857,16.851 C16.952,16.755 17.047,16.661 17.140,16.568 C18.488,15.220 19.380,14.443 20.847,14.072 C24.163,13.240 29.737,12.506 29.931,10.016 C30.140,7.317 24.010,5.053 20.033,3.059 ZM17.958,8.985 L19.955,8.985 L19.955,10.982 L17.958,10.982 L17.958,8.985 ZM17.958,5.989 L19.955,5.989 L19.955,7.986 L17.958,7.986 L17.958,5.989 ZM14.962,8.985 L16.959,8.985 L16.959,10.982 L14.962,10.982 L14.962,8.985 ZM14.962,5.989 L16.959,5.989 L16.959,7.986 L14.962,7.986 L14.962,5.989 ZM11.098,19.117 C10.723,19.491 10.116,19.491 9.742,19.117 L8.960,18.335 L8.200,19.095 C7.826,19.469 7.219,19.469 6.844,19.095 C6.470,18.720 6.470,18.113 6.844,17.738 L7.604,16.978 L6.844,16.218 C6.470,15.844 6.470,15.236 6.844,14.862 C7.219,14.487 7.826,14.487 8.200,14.862 L8.960,15.622 L9.720,14.862 C10.094,14.487 10.701,14.487 11.076,14.862 C11.450,15.236 11.450,15.844 11.076,16.218 L10.316,16.978 L11.098,17.760 C11.472,18.135 11.472,18.742 11.098,19.117 Z" class="cls-1"/>
    </symbol>
    <symbol viewBox="0 0 31 24" id="geo-fencing">
        <path d="M30.768,3.461 L28.236,0.359 C28.049,0.129 27.766,-0.004 27.468,-0.004 C27.169,-0.004 26.887,0.129 26.699,0.359 L24.167,3.461 C24.024,3.636 23.947,3.853 23.947,4.078 L23.947,7.134 L19.017,7.134 L19.017,4.078 C19.017,3.853 18.940,3.636 18.797,3.461 L16.265,0.359 C16.077,0.129 15.795,-0.004 15.496,-0.004 C15.198,-0.004 14.916,0.129 14.728,0.359 L12.196,3.461 C12.053,3.636 11.975,3.853 11.975,4.078 L11.975,7.134 L7.046,7.134 L7.046,4.078 C7.046,3.853 6.969,3.636 6.826,3.461 L4.294,0.359 C4.106,0.129 3.824,-0.004 3.525,-0.004 C3.227,-0.004 2.944,0.129 2.757,0.359 L0.225,3.461 C0.082,3.636 0.004,3.853 0.004,4.078 L0.004,8.114 L0.004,20.802 L0.004,23.025 C0.004,23.567 0.447,24.005 0.993,24.005 L6.057,24.005 C6.604,24.005 7.046,23.567 7.046,23.025 L7.046,21.782 L11.976,21.782 L11.976,23.025 C11.976,23.567 12.418,24.005 12.964,24.005 L18.029,24.005 C18.575,24.005 19.018,23.567 19.018,23.025 L19.018,21.782 L23.947,21.782 L23.947,23.025 C23.947,23.567 24.389,24.005 24.936,24.005 L30.000,24.005 C30.546,24.005 30.989,23.567 30.989,23.025 L30.989,20.802 L30.989,8.114 L30.989,4.078 C30.988,3.853 30.911,3.636 30.768,3.461 ZM25.924,4.425 L27.468,2.535 L29.011,4.425 L29.011,9.094 L29.011,19.821 L29.011,22.045 L25.924,22.045 L25.924,4.425 ZM13.953,22.045 L13.953,4.425 L15.496,2.535 L17.040,4.425 L17.040,22.045 L13.953,22.045 ZM1.982,22.045 L1.982,19.821 L1.982,9.095 L1.982,4.425 L3.525,2.535 L5.069,4.425 L5.069,22.045 L1.982,22.045 ZM7.046,9.095 L11.976,9.095 L11.976,19.821 L7.046,19.821 L7.046,9.095 ZM19.017,9.095 L23.947,9.095 L23.947,19.821 L19.017,19.821 L19.017,9.095 Z" class="cls-1"/>
    </symbol>

    <symbol viewBox="0 0 31.125 31.125" id="instagram">
        <path d="M23.819,31.114 L7.285,31.114 C3.257,31.114 -0.009,27.848 -0.009,23.819 L-0.009,7.285 C-0.009,3.257 3.257,-0.009 7.285,-0.009 L23.819,-0.009 C27.848,-0.009 31.114,3.257 31.114,7.285 L31.114,23.819 C31.114,27.848 27.848,31.114 23.819,31.114 ZM29.290,7.164 C29.290,4.209 26.895,1.814 23.941,1.814 L7.164,1.814 C4.209,1.814 1.814,4.209 1.814,7.164 L1.814,10.993 L8.812,10.993 C10.400,9.028 12.829,7.772 15.552,7.772 C18.275,7.772 20.704,9.028 22.292,10.993 L29.290,10.993 L29.290,7.164 ZM8.592,16.434 C8.592,20.278 11.708,23.394 15.552,23.394 C19.396,23.394 22.512,20.278 22.512,16.434 C22.512,12.590 19.396,9.474 15.552,9.474 C11.708,9.474 8.592,12.590 8.592,16.434 ZM29.290,12.817 L23.425,12.817 C23.932,13.918 24.214,15.143 24.214,16.434 C24.214,21.218 20.336,25.096 15.552,25.096 C10.768,25.096 6.890,21.218 6.890,16.434 C6.890,15.143 7.173,13.918 7.680,12.817 L1.814,12.817 L1.814,23.941 C1.814,26.895 4.209,29.290 7.164,29.290 L23.941,29.290 C26.895,29.290 29.290,26.895 29.290,23.941 L29.290,12.817 ZM21.935,7.224 L21.935,4.975 C21.935,4.472 22.343,4.064 22.847,4.064 L25.582,4.064 C26.086,4.064 26.494,4.472 26.494,4.975 L26.494,7.224 C26.494,7.728 26.086,8.136 25.582,8.136 L22.847,8.136 C22.343,8.136 21.935,7.728 21.935,7.224 Z" class="cls-1"/>
    </symbol>

    <symbol viewBox="0 0 31 22.031" id="kik">
        <path d="M27.905,17.369 L15.193,17.369 L8.992,22.020 L8.992,17.369 L3.101,17.369 C1.388,17.369 -0.000,15.981 -0.000,14.269 L-0.000,3.107 C-0.000,1.394 1.388,0.006 3.101,0.006 L27.905,0.006 C29.617,0.006 31.006,1.394 31.006,3.107 L31.006,14.269 C31.006,15.981 29.617,17.369 27.905,17.369 ZM29.765,3.727 C29.765,2.357 28.655,1.246 27.285,1.246 L3.721,1.246 C2.351,1.246 1.240,2.357 1.240,3.727 L1.240,13.649 C1.240,15.019 2.351,16.129 3.721,16.129 L10.542,16.129 L10.542,18.920 L14.263,16.129 L27.285,16.129 C28.655,16.129 29.765,15.019 29.765,13.649 L29.765,3.727 ZM26.045,10.858 C25.531,10.858 25.115,10.442 25.115,9.928 C25.115,9.414 25.531,8.998 26.045,8.998 C26.558,8.998 26.975,9.414 26.975,9.928 C26.975,10.442 26.558,10.858 26.045,10.858 ZM23.032,13.422 C22.731,13.723 22.243,13.723 21.942,13.422 L19.534,10.858 L19.068,10.858 C18.893,10.858 18.851,10.858 18.603,10.858 L18.603,12.874 C18.603,13.302 18.256,13.649 17.828,13.649 C17.400,13.649 17.053,13.302 17.053,12.874 L17.053,5.122 C17.053,4.694 17.400,4.347 17.828,4.347 C18.256,4.347 18.603,4.694 18.603,5.122 L18.603,9.308 C18.787,9.312 18.893,9.308 19.068,9.308 L19.534,9.308 L21.920,7.021 C22.223,6.719 22.713,6.719 23.016,7.021 C23.319,7.324 23.319,7.815 23.016,8.118 L20.918,10.216 L23.032,12.331 C23.333,12.632 23.333,13.120 23.032,13.422 ZM13.798,13.649 C13.369,13.649 13.022,13.302 13.022,12.874 L13.022,7.603 C13.022,7.175 13.369,6.827 13.798,6.827 C14.226,6.827 14.573,7.175 14.573,7.603 L14.573,12.874 C14.573,13.302 14.226,13.649 13.798,13.649 ZM9.229,13.422 L6.821,10.858 L5.891,10.858 L5.891,12.874 C5.891,13.302 5.544,13.649 5.116,13.649 C4.688,13.649 4.341,13.302 4.341,12.874 L4.341,5.122 C4.341,4.694 4.688,4.347 5.116,4.347 C5.544,4.347 5.891,4.694 5.891,5.122 L5.891,9.308 L6.821,9.308 L8.898,7.021 C9.200,6.719 9.691,6.719 9.994,7.021 C10.297,7.324 10.297,7.815 9.994,8.118 L8.041,10.070 C8.075,10.094 8.109,10.120 8.139,10.150 L10.320,12.331 C10.621,12.632 10.621,13.120 10.320,13.422 C10.019,13.723 9.531,13.723 9.229,13.422 Z" class="cls-1"/>
    </symbol>

    <symbol viewBox="0 0 30.75 30.75" id="notes">
        <path d="M30.072,6.329 L15.865,20.536 C14.295,22.106 7.746,22.972 7.746,22.972 C7.746,22.972 8.612,16.423 10.181,14.853 L24.389,0.646 C25.286,-0.251 26.740,-0.251 27.637,0.646 L30.072,3.081 C30.969,3.978 30.969,5.432 30.072,6.329 ZM27.450,3.268 C26.079,1.907 25.468,2.376 24.795,3.049 L12.398,15.446 C11.725,16.119 9.897,20.820 9.897,20.820 C9.897,20.820 14.599,18.993 15.272,18.320 L27.669,5.923 C28.342,5.250 29.007,4.814 27.450,3.268 ZM1.871,7.106 L1.871,27.749 C1.871,28.383 2.385,28.897 3.019,28.897 L23.663,28.897 C24.297,28.897 24.811,28.383 24.811,27.749 L24.811,15.829 L26.671,15.829 L26.671,28.461 C26.671,29.729 25.643,30.757 24.375,30.757 L2.308,30.757 C1.039,30.757 0.011,29.729 0.011,28.461 L0.011,6.394 C0.011,5.126 1.039,4.097 2.308,4.097 L14.940,4.097 L14.940,5.957 L3.019,5.957 C2.385,5.957 1.871,6.471 1.871,7.106 Z" class="cls-1"/>
    </symbol>

    <symbol viewBox="0 0 31 31" id="skype">
        <path d="M31.011,24.918 C31.011,28.278 28.278,31.011 24.918,31.011 C22.954,31.011 21.104,30.046 19.970,28.460 C18.510,28.952 17.009,29.200 15.501,29.200 C11.744,29.200 8.213,27.738 5.558,25.082 C2.902,22.427 1.440,18.896 1.440,15.139 C1.440,13.648 1.682,12.170 2.160,10.739 C0.794,9.586 -0.009,7.880 -0.009,6.084 C-0.009,2.725 2.725,-0.009 6.084,-0.009 C7.810,-0.009 9.419,0.707 10.571,1.970 C12.142,1.378 13.798,1.078 15.501,1.078 C19.258,1.078 22.789,2.540 25.445,5.195 C28.100,7.851 29.562,11.382 29.562,15.139 C29.562,16.851 29.258,18.521 28.657,20.111 C30.141,21.267 31.011,23.027 31.011,24.918 ZM27.244,20.092 C27.906,18.518 28.242,16.852 28.242,15.139 C28.242,11.735 26.917,8.535 24.511,6.129 C22.105,3.723 18.905,2.398 15.501,2.398 C13.809,2.398 12.169,2.724 10.627,3.368 C10.351,3.483 10.033,3.399 9.850,3.163 C8.939,1.986 7.567,1.311 6.084,1.311 C3.452,1.311 1.311,3.452 1.311,6.084 C1.311,7.622 2.063,9.076 3.323,9.972 C3.566,10.146 3.663,10.460 3.559,10.740 C3.029,12.166 2.760,13.646 2.760,15.139 C2.760,18.543 4.085,21.743 6.491,24.149 C8.897,26.555 12.097,27.880 15.501,27.880 C17.023,27.880 18.539,27.600 20.006,27.046 C20.082,27.018 20.161,27.004 20.239,27.004 C20.467,27.004 20.687,27.123 20.808,27.330 C21.661,28.787 23.236,29.691 24.918,29.691 C27.550,29.691 29.691,27.550 29.691,24.918 C29.691,23.294 28.870,21.793 27.493,20.902 C27.225,20.728 27.119,20.387 27.244,20.092 ZM16.478,13.068 C21.045,13.957 22.735,15.605 22.735,18.185 C22.735,20.763 20.156,23.469 15.759,23.469 C11.363,23.469 9.164,21.821 8.487,19.749 C7.810,17.678 9.290,17.085 9.756,17.042 C10.221,17.000 11.207,17.113 11.489,17.972 C11.782,18.866 12.757,20.637 14.872,20.848 C16.985,21.059 18.382,20.087 18.804,19.073 C19.226,18.058 18.465,16.662 15.210,16.197 C11.954,15.732 8.572,14.294 8.572,11.039 C8.572,7.783 12.292,6.473 15.844,6.473 C19.396,6.473 21.197,8.478 21.594,9.263 C22.087,10.236 21.919,11.856 20.748,12.138 C19.523,12.434 18.889,11.757 18.000,10.109 C17.082,8.403 13.815,8.841 12.715,9.813 C11.616,10.786 11.912,12.181 16.478,13.068 Z" class="cls-1"/>
    </symbol>

    <symbol viewBox="0 0 31.25 30.063" id="snapchat">  <path d="M25.011,11.111 C25.432,11.055 25.951,10.838 26.491,10.971 C27.449,11.207 28.011,11.731 28.331,12.611 C28.445,12.927 28.523,13.542 28.411,13.951 C28.323,14.271 28.211,14.576 28.051,14.831 C27.649,15.469 27.005,15.761 26.271,16.071 C26.017,16.178 25.769,16.270 25.531,16.371 C25.426,16.415 25.325,16.394 25.291,16.511 C25.417,16.677 25.517,17.116 25.611,17.331 C25.788,17.737 26.040,18.142 26.291,18.491 C26.368,18.598 26.492,18.686 26.571,18.791 C26.668,18.920 26.783,19.074 26.911,19.171 C27.418,19.554 27.930,19.888 28.571,20.151 C29.437,20.506 30.386,20.605 30.891,21.311 C31.027,21.501 31.138,21.744 31.211,21.991 C31.377,22.555 31.155,23.180 30.951,23.511 C30.249,24.644 28.873,24.892 27.351,25.211 C27.295,26.226 26.680,27.126 25.931,27.451 C25.637,27.578 25.309,27.591 24.951,27.671 C24.724,27.721 24.220,27.673 24.031,27.631 C23.851,27.624 23.671,27.617 23.491,27.611 C23.014,27.509 22.074,27.538 21.671,27.671 C20.994,27.894 20.401,28.320 19.831,28.671 C18.942,29.217 18.034,29.609 16.891,29.911 C16.282,30.071 15.230,30.147 14.551,29.971 C13.436,29.682 12.498,29.321 11.631,28.791 C11.214,28.536 10.779,28.311 10.351,28.051 C10.123,27.912 9.862,27.759 9.591,27.671 C9.273,27.567 8.489,27.501 8.091,27.591 C7.891,27.597 7.691,27.604 7.491,27.611 C6.702,27.783 5.641,27.662 5.131,27.351 C4.650,27.058 4.316,26.619 4.091,26.071 C4.037,25.864 3.984,25.657 3.931,25.451 C3.906,25.351 3.944,25.259 3.871,25.211 C3.811,25.174 3.732,25.192 3.651,25.171 C3.379,25.098 3.073,25.075 2.791,24.991 C2.057,24.770 1.391,24.571 0.851,24.171 C0.427,23.857 -0.202,22.937 0.031,22.051 C0.112,21.741 0.243,21.476 0.411,21.251 C0.957,20.516 2.179,20.379 3.071,19.991 C4.312,19.449 5.129,18.458 5.671,17.211 C5.772,16.977 5.906,16.719 5.971,16.451 C5.666,16.384 5.366,16.207 5.091,16.091 C4.805,15.970 4.528,15.898 4.251,15.771 C3.709,15.521 3.225,14.988 2.991,14.431 C2.905,14.228 2.862,13.996 2.811,13.771 C2.720,13.370 2.826,12.876 2.931,12.591 C3.252,11.716 3.815,11.209 4.771,10.971 C5.303,10.838 5.818,11.056 6.231,11.111 C6.292,9.990 6.180,8.551 6.431,7.591 C6.568,7.064 6.673,6.527 6.871,6.051 C7.722,3.997 9.012,2.452 10.791,1.331 C11.572,0.838 12.470,0.528 13.451,0.231 C13.771,0.134 14.080,0.150 14.431,0.071 C14.784,-0.009 15.200,-0.009 15.631,-0.009 C17.243,-0.010 18.427,0.384 19.531,0.871 C21.776,1.861 23.401,3.682 24.351,5.971 C24.579,6.522 24.691,7.130 24.851,7.751 C24.937,8.084 24.969,8.559 24.971,8.931 C24.971,9.191 24.971,9.451 24.971,9.711 C25.010,9.889 24.991,10.158 24.991,10.371 C24.997,10.617 25.004,10.864 25.011,11.111 ZM15.251,1.671 C14.951,1.704 14.651,1.737 14.351,1.771 C13.788,1.911 13.242,2.018 12.751,2.231 C10.571,3.173 9.044,4.839 8.271,7.191 C8.158,7.534 8.115,7.909 8.031,8.271 C7.985,8.464 8.010,8.671 7.971,8.851 C7.971,9.004 7.971,9.157 7.971,9.311 C7.964,9.557 7.957,9.804 7.951,10.051 C7.951,10.269 7.971,10.546 7.931,10.731 C7.931,10.904 7.931,11.077 7.931,11.251 C7.832,11.703 7.936,12.227 7.731,12.551 C7.274,13.271 6.155,12.850 5.431,12.651 C4.935,12.514 4.577,12.861 4.491,13.211 C4.381,13.653 4.718,14.078 4.931,14.211 C5.030,14.273 5.136,14.282 5.251,14.331 C5.735,14.535 6.246,14.746 6.731,14.951 C7.078,15.097 7.414,15.179 7.611,15.471 C7.737,15.658 7.865,16.043 7.771,16.371 C7.175,18.438 6.202,20.082 4.571,21.111 C3.960,21.496 3.241,21.721 2.511,21.991 C2.247,22.088 1.803,22.129 1.711,22.391 C1.690,22.422 1.690,22.472 1.691,22.531 C1.770,22.626 1.791,22.756 1.891,22.831 C2.443,23.245 3.300,23.335 4.071,23.531 C4.418,23.619 5.312,23.649 5.411,23.931 C5.544,24.109 5.471,24.388 5.531,24.651 C5.634,25.106 5.610,25.620 5.931,25.851 C6.223,26.060 6.956,25.969 7.371,25.931 C8.340,25.840 9.486,25.826 10.251,26.111 C10.839,26.330 11.367,26.661 11.871,26.971 C12.290,27.229 12.733,27.437 13.151,27.691 C13.717,28.034 14.396,28.179 15.131,28.351 C15.796,28.506 16.800,28.229 17.231,28.051 C17.632,27.885 18.016,27.766 18.371,27.551 C19.208,27.041 20.048,26.496 20.991,26.111 C21.623,25.852 23.063,25.805 23.911,25.931 C24.338,25.994 25.065,26.039 25.351,25.831 C25.670,25.598 25.627,25.025 25.731,24.571 C25.737,24.451 25.744,24.331 25.751,24.211 C25.781,24.086 25.840,23.965 25.871,23.851 C26.705,23.466 27.942,23.469 28.791,23.111 C29.120,22.971 29.556,22.855 29.571,22.411 C29.525,22.366 29.503,22.287 29.451,22.251 C29.232,22.098 28.944,22.070 28.671,21.971 C28.116,21.769 27.511,21.602 27.031,21.311 C25.684,20.494 24.729,19.477 24.071,17.971 C23.891,17.561 23.743,17.139 23.591,16.671 C23.529,16.483 23.398,16.192 23.471,15.891 C23.532,15.638 23.686,15.364 23.871,15.231 C24.095,15.068 24.400,15.005 24.671,14.891 C25.089,14.714 25.533,14.527 25.951,14.351 C26.067,14.301 26.187,14.294 26.291,14.231 C26.563,14.064 26.935,13.584 26.731,13.091 C26.574,12.713 26.154,12.550 25.651,12.691 C24.925,12.894 23.953,13.239 23.511,12.531 C23.387,12.332 23.411,12.068 23.351,11.791 C23.351,11.664 23.351,11.537 23.351,11.411 C23.281,11.094 23.315,10.710 23.311,10.351 C23.301,9.588 23.342,8.613 23.171,7.971 C23.038,7.471 22.942,6.975 22.751,6.531 C21.906,4.570 20.486,3.098 18.531,2.251 C18.028,2.033 17.468,1.912 16.891,1.771 C16.397,1.650 15.835,1.675 15.251,1.671 Z" class="cls-1"/>
    </symbol>

    <symbol viewBox="0 0 26 26" id="contacts">
        <path d="M13.003,1.618 C15.763,1.618 18.691,3.945 18.691,5.682 L18.691,9.745 C18.691,11.310 18.041,14.303 16.297,15.676 C15.852,16.027 15.621,16.584 15.688,17.146 C15.754,17.709 16.109,18.196 16.624,18.433 L23.698,21.790 C23.754,21.815 24.376,21.919 24.376,22.789 L24.377,24.376 L1.629,24.377 L1.629,22.727 C1.629,22.081 2.114,21.878 2.307,21.789 L9.447,18.418 C9.959,18.183 10.312,17.698 10.380,17.139 C10.450,16.579 10.224,16.025 9.785,15.672 C8.096,14.316 7.309,11.333 7.309,9.745 L7.309,5.682 C7.309,3.981 10.266,1.618 13.003,1.618 M13.003,-0.008 C9.413,-0.008 5.683,2.989 5.683,5.682 L5.683,9.745 C5.683,11.521 6.493,15.114 8.767,16.941 L1.627,20.312 C1.627,20.312 0.003,21.035 0.003,21.937 L0.003,24.377 C0.003,25.276 0.730,26.004 1.627,26.004 L24.377,26.004 C25.275,26.004 26.002,25.276 26.002,24.377 L26.002,21.937 C26.002,20.980 24.377,20.312 24.377,20.312 L17.302,16.954 C19.555,15.182 20.316,11.697 20.316,9.745 L20.316,5.682 C20.316,2.989 16.592,-0.008 13.003,-0.008 L13.003,-0.008 Z" class="cls-1"/>
    </symbol>

    <symbol viewBox="0 0 31.062 31.125" id="chats">
        <path d="M15.856,30.427 C13.131,30.427 10.574,29.710 8.362,28.456 L-0.001,31.137 L2.763,22.966 C1.416,20.695 0.641,18.045 0.641,15.212 C0.641,6.810 7.453,-0.002 15.856,-0.002 C24.259,-0.002 31.071,6.810 31.071,15.212 C31.071,23.615 24.259,30.427 15.856,30.427 ZM15.856,2.364 C8.760,2.364 3.008,8.117 3.008,15.212 C3.008,17.979 3.882,20.541 5.370,22.638 L3.853,27.351 L8.638,25.842 C10.695,27.242 13.180,28.061 15.856,28.061 C22.952,28.061 28.704,22.308 28.704,15.212 C28.704,8.117 22.952,2.364 15.856,2.364 ZM20.287,21.829 L20.185,21.839 C20.024,21.855 19.842,21.873 19.614,21.873 C19.614,21.873 19.614,21.873 19.614,21.873 C19.071,21.873 18.117,21.780 16.102,20.977 C14.009,20.143 11.945,18.355 10.289,15.943 C10.260,15.901 10.240,15.872 10.229,15.858 C9.797,15.289 8.790,13.794 8.790,12.211 C8.790,10.452 9.634,9.452 10.133,9.138 C10.603,8.842 11.668,8.702 11.863,8.694 C12.024,8.687 11.985,8.687 12.024,8.687 C12.436,8.687 12.733,8.937 12.957,9.473 C13.051,9.695 13.929,11.810 13.978,11.908 C14.038,12.026 14.224,12.389 14.007,12.819 L13.960,12.913 C13.871,13.093 13.794,13.248 13.622,13.448 C13.567,13.512 13.510,13.579 13.454,13.647 C13.335,13.790 13.213,13.937 13.099,14.049 C13.061,14.088 12.986,14.163 12.977,14.193 C12.978,14.193 12.979,14.218 13.012,14.275 C13.245,14.667 14.939,16.992 17.171,17.959 C17.268,18.002 17.590,18.134 17.609,18.134 C17.629,18.134 17.664,18.099 17.689,18.070 C17.884,17.851 18.513,17.118 18.721,16.809 C18.905,16.535 19.141,16.395 19.422,16.395 C19.594,16.395 19.755,16.448 19.906,16.502 C20.276,16.635 22.357,17.657 22.412,17.684 C22.685,17.814 22.900,17.917 23.025,18.122 C23.207,18.423 23.135,19.253 22.861,20.013 C22.513,20.977 20.983,21.768 20.287,21.829 Z" class="cls-1"/>
    </symbol>

    <symbol viewBox="0 0 31.031 31.031" id="viber">
        <path d="M25.866,31.039 L5.173,31.039 C2.316,31.039 0.000,28.723 0.000,25.866 L0.000,5.173 C0.000,2.316 2.316,-0.000 5.173,-0.000 L25.866,-0.000 C28.723,-0.000 31.039,2.316 31.039,5.173 L31.039,25.866 C31.039,28.723 28.723,31.039 25.866,31.039 ZM29.487,5.432 C29.487,3.289 27.750,1.552 25.607,1.552 L5.432,1.552 C3.289,1.552 1.552,3.289 1.552,5.432 L1.552,25.607 C1.552,27.750 3.289,29.487 5.432,29.487 L25.607,29.487 C27.750,29.487 29.487,27.750 29.487,25.607 L29.487,5.432 ZM26.696,15.546 C26.624,15.566 26.552,15.576 26.481,15.576 C26.137,15.576 25.821,15.348 25.723,15.001 C24.398,10.301 20.658,6.552 15.964,5.216 C15.546,5.097 15.303,4.661 15.422,4.242 C15.541,3.822 15.976,3.579 16.396,3.699 C21.613,5.185 25.768,9.351 27.240,14.574 C27.358,14.992 27.114,15.428 26.696,15.546 ZM16.827,10.528 C18.522,11.011 19.873,12.366 20.351,14.063 C20.469,14.482 20.225,14.917 19.807,15.036 C19.735,15.055 19.663,15.065 19.593,15.065 C19.248,15.065 18.932,14.837 18.835,14.490 C18.504,13.315 17.569,12.378 16.395,12.044 C15.976,11.925 15.734,11.489 15.853,11.071 C15.972,10.651 16.407,10.408 16.827,10.528 ZM15.762,7.913 C15.881,7.494 16.317,7.249 16.735,7.370 C20.028,8.307 22.651,10.937 23.581,14.233 C23.699,14.652 23.455,15.088 23.036,15.206 C22.964,15.226 22.893,15.235 22.822,15.235 C22.478,15.235 22.162,15.008 22.064,14.661 C21.282,11.888 19.075,9.674 16.304,8.886 C15.886,8.767 15.643,8.331 15.762,7.913 ZM16.399,21.216 C16.427,21.216 16.473,21.206 16.536,21.184 C16.600,21.163 16.645,21.138 16.674,21.110 L17.880,19.881 C18.134,19.655 18.430,19.542 18.769,19.542 C19.009,19.542 19.199,19.585 19.340,19.669 L19.361,19.669 L23.446,22.085 C23.742,22.268 23.919,22.501 23.975,22.784 C24.017,23.109 23.919,23.391 23.679,23.631 L20.864,26.428 C20.737,26.569 20.571,26.689 20.367,26.788 C20.162,26.887 19.961,26.951 19.764,26.979 C19.750,26.979 19.707,26.982 19.637,26.990 C19.566,26.997 19.474,27.000 19.362,27.000 C19.093,27.000 18.660,26.954 18.060,26.862 C17.460,26.771 16.727,26.545 15.859,26.184 C14.991,25.824 14.007,25.284 12.907,24.564 C11.806,23.843 10.635,22.855 9.393,21.598 C8.406,20.623 7.587,19.691 6.938,18.801 C6.289,17.911 5.767,17.088 5.372,16.333 C4.977,15.577 4.681,14.892 4.483,14.278 C4.286,13.663 4.152,13.133 4.081,12.688 C4.011,12.244 3.983,11.894 3.997,11.640 C4.011,11.386 4.018,11.244 4.018,11.216 C4.046,11.018 4.110,10.817 4.208,10.612 C4.307,10.407 4.427,10.241 4.568,10.114 L7.383,7.296 C7.580,7.099 7.806,7.000 8.060,7.000 C8.243,7.000 8.406,7.053 8.547,7.159 C8.688,7.265 8.808,7.395 8.907,7.551 L11.171,11.852 C11.298,12.078 11.333,12.325 11.277,12.593 C11.221,12.862 11.101,13.088 10.917,13.271 L9.880,14.309 C9.852,14.338 9.827,14.383 9.806,14.447 C9.785,14.511 9.774,14.564 9.774,14.606 C9.831,14.903 9.958,15.241 10.155,15.623 C10.325,15.962 10.586,16.375 10.938,16.862 C11.291,17.350 11.792,17.911 12.441,18.547 C13.076,19.196 13.640,19.701 14.134,20.061 C14.628,20.422 15.041,20.686 15.372,20.856 C15.704,21.025 15.958,21.128 16.134,21.163 L16.399,21.216 Z" class="cls-1"/>
    </symbol>

    <symbol viewBox="0 0 29 20" id="video">
        <path d="M18.072,1.811 C18.108,1.811 18.137,1.838 18.137,1.873 L18.137,5.501 C18.137,6.173 18.507,6.790 19.100,7.105 C19.366,7.247 19.659,7.317 19.950,7.317 C20.306,7.317 20.716,7.212 21.021,7.005 L27.187,3.509 L27.187,16.458 L20.988,13.066 C20.677,12.849 20.314,12.739 19.950,12.739 C19.663,12.739 19.376,12.807 19.112,12.944 C18.514,13.256 18.138,13.876 18.137,14.551 L18.133,18.122 C18.133,18.158 18.104,18.185 18.068,18.185 L1.877,18.185 C1.841,18.185 1.812,18.158 1.812,18.123 L1.817,1.873 C1.817,1.838 1.845,1.811 1.881,1.811 L18.072,1.811 M28.047,0.901 C27.855,0.901 27.473,0.959 27.255,1.175 L19.950,5.501 L19.950,1.873 C19.950,0.836 19.109,-0.005 18.072,-0.005 L1.881,-0.005 C0.843,-0.005 0.004,0.836 0.004,1.873 L-0.000,18.122 C-0.000,19.159 0.839,20.001 1.877,20.001 L18.068,20.001 C19.106,20.001 19.945,19.159 19.945,18.122 L19.950,14.554 L27.397,18.904 C27.616,19.122 27.857,19.094 28.051,19.094 C28.252,19.094 28.402,19.032 28.420,19.024 C28.772,18.878 29.000,18.536 29.000,18.154 L29.000,1.843 C29.000,1.459 28.772,1.118 28.420,0.973 C28.400,0.964 28.249,0.901 28.047,0.901 L28.047,0.901 Z" class="cls-1"/>
    </symbol>

    <symbol viewBox="0 0 31 29.824644" id="bookmarks">
    <path
            id="path3349"
            transform="translate(616.92858,-132.609) matrix(0.14691943,0,0,0.14691943,-629.97293,124.29681)"
            d="m 137.98571,243.3765 c -1.92246,-1.92246 -1.47322,-6.45278 3.4813,-35.10664 l 4.68131,-27.07377 -21.68611,-21.0598 c -14.67892,-14.25497 -21.68455,-21.73672 -21.6813,-23.1548 0.0103,-4.49259 2.49195,-5.23072 32.08108,-9.54212 15.63304,-2.27788 29.06895,-4.64138 29.85756,-5.25223 0.78862,-0.61085 6.92681,-12.36064 13.64043,-26.110636 6.71361,-13.75 13.15771,-25.858899 14.32022,-26.908664 4.35856,-3.935878 6.0218,-1.744067 20.20705,26.628709 7.2264,14.453971 13.54541,26.538061 14.04224,26.853531 0.49682,0.31546 12.70522,2.2663 27.12977,4.3352 14.42455,2.0689 27.6924,4.20933 29.48413,4.75652 3.7946,1.15885 5.7664,4.07582 4.40255,6.51288 -0.50838,0.90842 -10.30903,11.01738 -21.77923,22.46436 l -20.8549,20.8127 4.97928,29.52643 c 3.79049,22.47711 4.71828,29.94328 3.88609,31.27238 -2.38302,3.80594 -5.67845,2.65784 -32.13315,-11.19497 -14.24159,-7.45749 -26.16464,-13.55908 -26.49567,-13.55908 -0.33103,0 -12.14097,6.075 -26.2443,13.5 -14.10334,7.425 -26.64952,13.5 -27.88039,13.5 -1.23088,0 -2.77796,-0.54 -3.43796,-1.2 z m 37.30671,-31.77844 c 10.44631,-5.48815 19.6111,-9.98815 20.36619,-10 0.7551,-0.0119 9.83426,4.47844 20.17592,9.97844 10.34165,5.5 19.28635,10 19.87709,10 1.56373,0 1.43164,-1.27207 -2.53673,-24.42926 l -3.61083,-21.07074 16.12545,-15.5 c 14.73437,-14.16287 17.94625,-18 15.06697,-18 -4.34166,0 -42.77668,-6.42414 -43.90151,-7.33782 -0.78691,-0.6392 -5.64255,-9.82468 -10.7903,-20.41218 -5.14776,-10.5875 -9.78928,-19.249996 -10.31449,-19.249996 -0.52522,0 -5.46849,9.018496 -10.98505,20.041106 -5.51655,11.02261 -10.5812,20.2395 -11.25476,20.48197 -1.21759,0.43831 -41.16237,6.47692 -42.84415,6.47692 -2.84317,0 0.85189,4.45084 15.16828,18.27073 13.71945,13.24366 15.96943,15.836 15.5019,17.86075 -0.3008,1.30269 -1.90317,10.24352 -3.56084,19.86852 -1.65766,9.625 -3.26927,18.7375 -3.58135,20.25 -0.39431,1.91102 -0.15977,2.75 0.76875,2.75 0.73489,0 9.88315,-4.4903 20.32946,-9.97844 z"
            style="fill:#22aba2" />
    </symbol>

</svg>