<?xml version="1.0" encoding="UTF-8" standalone="no"?>
<svg
   xmlns:dc="http://purl.org/dc/elements/1.1/"
   xmlns:cc="http://creativecommons.org/ns#"
   xmlns:rdf="http://www.w3.org/1999/02/22-rdf-syntax-ns#"
   xmlns:svg="http://www.w3.org/2000/svg"
   xmlns="http://www.w3.org/2000/svg"
   xmlns:xlink="http://www.w3.org/1999/xlink"
   xml:space="preserve"
   style="enable-background:new -15 226 568 150;"
   viewBox="-15 226 568 150"
   y="0px"
   x="0px"
   id="Layer_1"
   version="1.1"><metadata
     id="metadata131"><rdf:RDF><cc:Work
         rdf:about=""><dc:format>image/svg+xml</dc:format><dc:type
           rdf:resource="http://purl.org/dc/dcmitype/StillImage" /><dc:title></dc:title></cc:Work></rdf:RDF></metadata><defs
     id="defs129" /><style
     id="style3"
     type="text/css">
	.st0{fill:#FFFFFF;}
	.st1{fill-rule:evenodd;clip-rule:evenodd;fill:url(#XMLID_2_);}
	.st2{opacity:0.95;fill-rule:evenodd;clip-rule:evenodd;fill:url(#XMLID_3_);}
	.st3{clip-path:url(#XMLID_4_);fill-rule:evenodd;clip-rule:evenodd;fill:url(#XMLID_5_);}
	.st4{clip-path:url(#XMLID_4_);fill-rule:evenodd;clip-rule:evenodd;fill:url(#XMLID_6_);}
	.st5{clip-path:url(#XMLID_4_);fill-rule:evenodd;clip-rule:evenodd;fill:url(#XMLID_7_);}
	.st6{clip-path:url(#XMLID_4_);fill-rule:evenodd;clip-rule:evenodd;fill:url(#XMLID_8_);}
	.st7{clip-path:url(#XMLID_4_);fill-rule:evenodd;clip-rule:evenodd;fill:url(#XMLID_9_);}
	.st8{clip-path:url(#XMLID_4_);fill-rule:evenodd;clip-rule:evenodd;fill:url(#XMLID_10_);}
	.st9{clip-path:url(#XMLID_4_);fill-rule:evenodd;clip-rule:evenodd;fill:url(#XMLID_11_);}
	.st10{opacity:0.8;fill-rule:evenodd;clip-rule:evenodd;fill:url(#XMLID_12_);}
	.st11{fill-rule:evenodd;clip-rule:evenodd;fill:url(#XMLID_13_);}
	.st12{fill-rule:evenodd;clip-rule:evenodd;fill:#FFFFFF;}
</style><g
     id="XMLID_102_"><g
       id="XMLID_145_"><path
         d="M157.8,247h28.3c3.9,0,7.3,0.6,10,1.7c2.8,1.1,5,2.7,6.7,4.5c1.7,1.9,3,4,3.8,6.4    c0.8,2.4,1.2,4.9,1.2,7.5c0,2.5-0.4,5-1.2,7.4s-2.1,4.6-3.8,6.5c-1.7,1.9-4,3.4-6.7,4.5c-2.8,1.1-6.1,1.7-10,1.7h-14.5v22.5h-13.8    V247z M171.6,276.5h10.7c1.6,0,3.1-0.1,4.6-0.4c1.5-0.2,2.8-0.7,3.9-1.4c1.1-0.7,2-1.6,2.7-2.9c0.7-1.2,1-2.8,1-4.8    c0-2-0.3-3.6-1-4.8c-0.7-1.2-1.6-2.2-2.7-2.9c-1.1-0.7-2.4-1.1-3.9-1.4c-1.5-0.2-3-0.4-4.6-0.4h-10.7V276.5z"
         class="st0"
         id="XMLID_146_" /><path
         d="M278.6,286c0,8.5-2.4,14.8-7.1,19c-4.8,4.1-11.3,6.2-19.7,6.2c-8.5,0-15.1-2.1-19.8-6.2    c-4.7-4.1-7-10.4-7-19V247h13.8V286c0,1.7,0.1,3.4,0.4,5s0.9,3.1,1.8,4.4c0.9,1.3,2.2,2.3,3.9,3.1c1.7,0.8,3.9,1.2,6.7,1.2    c4.9,0,8.3-1.1,10.2-3.3c1.9-2.2,2.8-5.6,2.8-10.3V247h13.8V286z"
         class="st0"
         id="XMLID_149_" /><path
         d="M301,247h19.4l14.7,43.2h0.2l13.9-43.2h19.4v62.8h-12.9v-44.5h-0.2l-15.4,44.5h-10.6    l-15.4-44.1H314v44.1H301V247z"
         class="st0"
         id="XMLID_151_" /><path
         d="M391.4,247h28.3c3.9,0,7.3,0.6,10,1.7c2.8,1.1,5,2.7,6.7,4.5c1.7,1.9,3,4,3.8,6.4    c0.8,2.4,1.2,4.9,1.2,7.5c0,2.5-0.4,5-1.2,7.4c-0.8,2.4-2.1,4.6-3.8,6.5c-1.7,1.9-4,3.4-6.7,4.5c-2.8,1.1-6.1,1.7-10,1.7h-14.5    v22.5h-13.8V247z M405.2,276.5h10.7c1.6,0,3.1-0.1,4.6-0.4c1.5-0.2,2.8-0.7,3.9-1.4c1.1-0.7,2-1.6,2.7-2.9c0.7-1.2,1-2.8,1-4.8    c0-2-0.3-3.6-1-4.8c-0.7-1.2-1.6-2.2-2.7-2.9c-1.1-0.7-2.4-1.1-3.9-1.4c-1.5-0.2-3-0.4-4.6-0.4h-10.7V276.5z"
         class="st0"
         id="XMLID_153_" /><path
         d="M459.8,247h13.8v62.8h-13.8V247z"
         class="st0"
         id="XMLID_156_" /><path
         d="M536.4,268.1c-0.2-1.6-0.8-3-1.6-4.4c-0.8-1.3-1.8-2.5-3.1-3.5c-1.2-1-2.6-1.8-4.2-2.3    s-3.2-0.8-4.9-0.8c-3.1,0-5.7,0.6-7.9,1.8c-2.2,1.2-3.9,2.8-5.3,4.8c-1.3,2-2.3,4.3-2.9,6.9c-0.6,2.6-0.9,5.2-0.9,8    c0,2.6,0.3,5.2,0.9,7.7c0.6,2.5,1.6,4.7,2.9,6.7c1.3,2,3.1,3.6,5.3,4.8s4.8,1.8,7.9,1.8c4.2,0,7.5-1.3,9.9-3.9    c2.4-2.6,3.8-6,4.4-10.2h13.4c-0.4,3.9-1.3,7.5-2.7,10.6c-1.5,3.2-3.4,5.9-5.8,8.1c-2.4,2.2-5.2,3.9-8.4,5.1    c-3.2,1.2-6.8,1.8-10.6,1.8c-4.8,0-9.1-0.8-13-2.5c-3.8-1.7-7.1-4-9.7-6.9c-2.6-2.9-4.7-6.4-6.1-10.3c-1.4-4-2.1-8.2-2.1-12.8    c0-4.7,0.7-9,2.1-13.1c1.4-4,3.4-7.5,6.1-10.5c2.6-3,5.9-5.3,9.7-7c3.8-1.7,8.2-2.6,13-2.6c3.5,0,6.7,0.5,9.8,1.5    c3.1,1,5.8,2.4,8.3,4.4c2.4,1.9,4.4,4.3,6,7.1c1.6,2.8,2.6,6,3,9.7H536.4z"
         class="st0"
         id="XMLID_158_" /></g><g
       id="XMLID_103_"><g
         id="g14"><path
           d="M162.6,335.3l5.5,15.6h0.1l5.3-15.6h4.8v19.9h-3.3v-15.4H175l-5.5,15.4h-2.9l-5.5-15.4h-0.1     v15.4h-3.3v-19.9H162.6z"
           class="st0"
           id="XMLID_421_" /><path
           d="M201.3,335.6c1.2,0.6,2.2,1.3,3,2.3c0.8,0.9,1.4,2.1,1.9,3.3c0.4,1.3,0.7,2.6,0.7,4     c0,1.4-0.2,2.8-0.7,4c-0.4,1.3-1.1,2.4-1.9,3.3c-0.8,0.9-1.8,1.7-3,2.2c-1.2,0.5-2.5,0.8-4,0.8c-1.5,0-2.8-0.3-4-0.8     c-1.2-0.5-2.2-1.3-3-2.2c-0.8-0.9-1.4-2.1-1.9-3.3c-0.4-1.3-0.7-2.6-0.7-4c0-1.4,0.2-2.7,0.7-4c0.4-1.3,1.1-2.4,1.9-3.3     c0.8-0.9,1.8-1.7,3-2.3c1.2-0.6,2.5-0.8,4-0.8C198.8,334.8,200.1,335.1,201.3,335.6z M194.6,338.3c-0.8,0.4-1.4,1-1.9,1.7     c-0.5,0.7-0.8,1.5-1.1,2.4c-0.2,0.9-0.3,1.8-0.3,2.8c0,0.9,0.1,1.9,0.3,2.8c0.2,0.9,0.6,1.7,1.1,2.4c0.5,0.7,1.1,1.3,1.9,1.7     c0.8,0.4,1.7,0.6,2.7,0.6c1.1,0,2-0.2,2.7-0.6c0.8-0.4,1.4-1,1.9-1.7c0.5-0.7,0.8-1.5,1.1-2.4c0.2-0.9,0.3-1.8,0.3-2.8     c0-0.9-0.1-1.9-0.3-2.8c-0.2-0.9-0.6-1.7-1.1-2.4c-0.5-0.7-1.1-1.3-1.9-1.7c-0.8-0.4-1.7-0.6-2.7-0.6     C196.2,337.6,195.3,337.9,194.6,338.3z"
           class="st0"
           id="XMLID_418_" /><path
           d="M225.9,335.3c1.8,0,3.2,0.4,4.3,1.2c1.1,0.8,1.6,2.1,1.6,3.7c0,1-0.2,1.9-0.7,2.6     c-0.5,0.7-1.2,1.3-2.1,1.7v0.1c1.2,0.3,2.2,0.8,2.8,1.7c0.6,0.9,0.9,2,0.9,3.4c0,0.8-0.1,1.5-0.4,2.2c-0.3,0.7-0.7,1.3-1.3,1.8     c-0.6,0.5-1.4,0.9-2.3,1.2c-0.9,0.3-2,0.4-3.3,0.4h-9.1v-19.9H225.9z M225.4,343.6c0.8,0,1.5-0.2,2.1-0.7c0.6-0.5,0.8-1.2,0.8-2     c0-1-0.2-1.7-0.8-2.1c-0.5-0.4-1.2-0.6-2.2-0.6h-5.7v5.5H225.4z M225.9,352.3c1.1,0,1.9-0.3,2.5-0.8c0.6-0.5,0.9-1.3,0.9-2.3     c0-1-0.3-1.7-0.9-2.3c-0.6-0.5-1.4-0.8-2.5-0.8h-6.2v6.2H225.9z"
           class="st0"
           id="XMLID_414_" /><path
           d="M245.6,335.3v19.9h-3.5v-19.9H245.6z"
           class="st0"
           id="XMLID_412_" /><path
           d="M259.7,335.3v16.9h10.1v3h-13.6v-19.9H259.7z"
           class="st0"
           id="XMLID_410_" /><path
           d="M292.8,335.3v3h-10.8v5.2h10v2.8h-10v5.8h11v3h-14.5v-19.9H292.8z"
           class="st0"
           id="XMLID_408_" /><path
           d="M321.1,335.3l5.5,15.6h0.1l5.3-15.6h4.8v19.9h-3.3v-15.4h-0.1l-5.5,15.4h-2.9l-5.5-15.4     h-0.1v15.4h-3.3v-19.9H321.1z"
           class="st0"
           id="XMLID_406_" /><path
           d="M359.8,335.6c1.2,0.6,2.2,1.3,3,2.3c0.8,0.9,1.4,2.1,1.9,3.3c0.4,1.3,0.7,2.6,0.7,4     c0,1.4-0.2,2.8-0.7,4c-0.4,1.3-1.1,2.4-1.9,3.3c-0.8,0.9-1.8,1.7-3,2.2c-1.2,0.5-2.5,0.8-4,0.8c-1.5,0-2.8-0.3-4-0.8     c-1.2-0.5-2.2-1.3-3-2.2c-0.8-0.9-1.4-2.1-1.9-3.3c-0.4-1.3-0.7-2.6-0.7-4c0-1.4,0.2-2.7,0.7-4c0.4-1.3,1.1-2.4,1.9-3.3     c0.8-0.9,1.8-1.7,3-2.3c1.2-0.6,2.5-0.8,4-0.8C357.3,334.8,358.6,335.1,359.8,335.6z M353,338.3c-0.8,0.4-1.4,1-1.9,1.7     c-0.5,0.7-0.8,1.5-1.1,2.4c-0.2,0.9-0.3,1.8-0.3,2.8c0,0.9,0.1,1.9,0.3,2.8c0.2,0.9,0.6,1.7,1.1,2.4c0.5,0.7,1.1,1.3,1.9,1.7     c0.8,0.4,1.7,0.6,2.7,0.6c1.1,0,2-0.2,2.7-0.6c0.8-0.4,1.4-1,1.9-1.7c0.5-0.7,0.8-1.5,1.1-2.4c0.2-0.9,0.3-1.8,0.3-2.8     c0-0.9-0.1-1.9-0.3-2.8c-0.2-0.9-0.6-1.7-1.1-2.4c-0.5-0.7-1.1-1.3-1.9-1.7c-0.8-0.4-1.7-0.6-2.7-0.6     C354.7,337.6,353.8,337.9,353,338.3z"
           class="st0"
           id="XMLID_403_" /><path
           d="M378.3,335.3l9.1,14.7h0.1v-14.7h3.3v19.9h-3.7l-9.1-14.6h-0.1v14.6h-3.3v-19.9H378.3z"
           class="st0"
           id="XMLID_401_" /><path
           d="M404.6,335.3v19.9h-3.5v-19.9H404.6z"
           class="st0"
           id="XMLID_399_" /><path
           d="M429.4,335.3v3h-6.3v16.9h-3.5v-16.9h-6.3v-3H429.4z"
           class="st0"
           id="XMLID_397_" /><path
           d="M450.4,335.6c1.2,0.6,2.2,1.3,3,2.3c0.8,0.9,1.4,2.1,1.9,3.3c0.4,1.3,0.7,2.6,0.7,4     c0,1.4-0.2,2.8-0.7,4c-0.4,1.3-1.1,2.4-1.9,3.3c-0.8,0.9-1.8,1.7-3,2.2c-1.2,0.5-2.5,0.8-4,0.8c-1.5,0-2.8-0.3-4-0.8     c-1.2-0.5-2.2-1.3-3-2.2c-0.8-0.9-1.4-2.1-1.9-3.3c-0.4-1.3-0.7-2.6-0.7-4c0-1.4,0.2-2.7,0.7-4c0.4-1.3,1.1-2.4,1.9-3.3     c0.8-0.9,1.8-1.7,3-2.3c1.2-0.6,2.5-0.8,4-0.8C447.9,334.8,449.2,335.1,450.4,335.6z M443.7,338.3c-0.8,0.4-1.4,1-1.9,1.7     c-0.5,0.7-0.8,1.5-1.1,2.4c-0.2,0.9-0.3,1.8-0.3,2.8c0,0.9,0.1,1.9,0.3,2.8c0.2,0.9,0.6,1.7,1.1,2.4c0.5,0.7,1.1,1.3,1.9,1.7     c0.8,0.4,1.7,0.6,2.7,0.6c1.1,0,2-0.2,2.7-0.6c0.8-0.4,1.4-1,1.9-1.7c0.5-0.7,0.8-1.5,1.1-2.4c0.2-0.9,0.3-1.8,0.3-2.8     c0-0.9-0.1-1.9-0.3-2.8c-0.2-0.9-0.6-1.7-1.1-2.4c-0.5-0.7-1.1-1.3-1.9-1.7c-0.8-0.4-1.7-0.6-2.7-0.6     C445.4,337.6,444.5,337.9,443.7,338.3z"
           class="st0"
           id="XMLID_394_" /><path
           d="M474.9,335.3c2.2,0,3.8,0.5,4.9,1.4c1.1,0.9,1.6,2.3,1.6,4c0,0.9-0.1,1.7-0.4,2.4     c-0.3,0.6-0.6,1.1-1,1.5c-0.4,0.4-0.7,0.7-1.1,0.8c-0.4,0.2-0.6,0.3-0.8,0.3v0.1c0.3,0,0.6,0.1,1,0.3c0.3,0.1,0.7,0.4,1,0.7     c0.3,0.3,0.5,0.7,0.7,1.3c0.2,0.5,0.3,1.2,0.3,2c0,1.2,0.1,2.2,0.3,3.2c0.2,1,0.4,1.6,0.8,2h-3.7c-0.3-0.4-0.4-0.9-0.5-1.4     s-0.1-1-0.1-1.5c0-0.9-0.1-1.7-0.2-2.4c-0.1-0.7-0.3-1.2-0.6-1.6c-0.3-0.4-0.7-0.8-1.2-1c-0.5-0.2-1.2-0.3-2-0.3h-5.1v8.2h-3.5     v-19.9H474.9z M474.6,344.3c1.1,0,2-0.3,2.5-0.8c0.6-0.5,0.9-1.3,0.9-2.4c0-0.6-0.1-1.1-0.3-1.5c-0.2-0.4-0.4-0.7-0.8-0.9     c-0.3-0.2-0.7-0.4-1.1-0.4c-0.4-0.1-0.8-0.1-1.3-0.1h-5.7v6.2H474.6z"
           class="st0"
           id="XMLID_391_" /><path
           d="M494.8,335.3v19.9h-3.5v-19.9H494.8z"
           class="st0"
           id="XMLID_389_" /><path
           d="M508.8,335.3l9.1,14.7h0.1v-14.7h3.3v19.9h-3.7l-9.1-14.6h-0.1v14.6h-3.3v-19.9H508.8z"
           class="st0"
           id="XMLID_387_" /><path
           d="M546.8,355.2l-0.5-2.3c-0.9,1.1-1.9,1.8-2.8,2.2c-0.9,0.4-2,0.6-3.2,0.6     c-1.5,0-2.8-0.3-4-0.8c-1.2-0.5-2.2-1.3-3-2.2c-0.8-0.9-1.4-2.1-1.9-3.3c-0.4-1.3-0.7-2.6-0.7-4c0-1.4,0.2-2.7,0.7-4     c0.4-1.3,1.1-2.4,1.9-3.3c0.8-0.9,1.8-1.7,3-2.3c1.2-0.6,2.5-0.8,4-0.8c1.1,0,2.1,0.1,3.1,0.4c1,0.3,1.8,0.7,2.6,1.3     c0.8,0.6,1.4,1.3,1.9,2.1c0.5,0.9,0.8,1.8,0.9,3h-3.4c-0.1-0.6-0.3-1.2-0.6-1.7c-0.3-0.5-0.7-0.9-1.2-1.2c-0.5-0.3-1-0.6-1.6-0.8     c-0.6-0.2-1.2-0.3-1.8-0.3c-1.1,0-2,0.2-2.7,0.6c-0.8,0.4-1.4,1-1.9,1.7c-0.5,0.7-0.8,1.5-1.1,2.4c-0.2,0.9-0.3,1.8-0.3,2.8     c0,0.9,0.1,1.9,0.3,2.8c0.2,0.9,0.6,1.7,1.1,2.4c0.5,0.7,1.1,1.3,1.9,1.7c0.8,0.4,1.7,0.6,2.7,0.6c0.9,0,1.7-0.1,2.4-0.3     c0.7-0.3,1.3-0.6,1.7-1.1c0.5-0.5,0.8-1.1,1.1-1.7s0.4-1.4,0.4-2.3h-5.3v-2.6h8.5v10.5H546.8z"
           class="st0"
           id="XMLID_385_" /></g></g><g
       id="XMLID_34_"><radialGradient
         gradientUnits="userSpaceOnUse"
         r="47.5663"
         cy="315.0105"
         cx="59.8114"
         id="XMLID_2_"><stop
           id="stop34"
           style="stop-color:#364655"
           offset="0" /><stop
           id="stop36"
           style="stop-color:#363C49"
           offset="0.5271" /><stop
           id="stop38"
           style="stop-color:#2D3243"
           offset="1" /></radialGradient><circle
         r="47.6"
         cy="315"
         cx="59.8"
         class="st1"
         id="XMLID_101_" /><radialGradient
         gradientUnits="userSpaceOnUse"
         gradientTransform="matrix(1.0889 0 0 1.2154 -17.21 -43.1527)"
         r="10.3464"
         cy="285.2618"
         cx="70.9192"
         id="XMLID_3_"><stop
           id="stop42"
           style="stop-color:#22D7FF"
           offset="0" /><stop
           id="stop44"
           style="stop-color:#22D7FF;stop-opacity:0"
           offset="0.9803" /></radialGradient><path
         d="M60,290.7c6.1,0,11,5.8,11,12.9c0,7.1-4.9,12.9-11,12.9c-6.1,0-11-5.8-11-12.9    C49,296.4,54,290.7,60,290.7z"
         class="st2"
         id="XMLID_99_" /><g
         id="XMLID_82_"><defs
           id="defs48"><circle
             r="72.1"
             cy="301.5"
             cx="59.8"
             id="XMLID_84_" /></defs><clipPath
           id="XMLID_4_"><use
             id="use52"
             style="overflow:visible;"
             xlink:href="#XMLID_84_" /></clipPath><linearGradient
           y2="277.9673"
           x2="35.5031"
           y1="373.7639"
           x1="23.7407"
           gradientUnits="userSpaceOnUse"
           id="XMLID_5_"><stop
             id="stop55"
             style="stop-color:#137482"
             offset="0.1084" /><stop
             id="stop57"
             style="stop-color:#198490"
             offset="0.2069" /><stop
             id="stop59"
             style="stop-color:#5ACFD0"
             offset="0.7783" /></linearGradient><path
           clip-path="url(#XMLID_4_)"
           d="M-10.5,272.3c0,0,40.2,40.1,46,45.9c5.6,5.6,11.2,12,23.4,12.3c10.8,0.2,19.1-6.9,19.1-6.9     l-51,50.6C27.1,374.2-31.9,353.9-10.5,272.3z"
           class="st3"
           id="XMLID_97_" /><linearGradient
           y2="300.7762"
           x2="80.91"
           y1="379.4447"
           x1="79.5368"
           gradientUnits="userSpaceOnUse"
           id="XMLID_6_"><stop
             id="stop63"
             style="stop-color:#157986"
             offset="9.852216e-002" /><stop
             id="stop65"
             style="stop-color:#3AB3B7"
             offset="0.6552" /></linearGradient><path
           clip-path="url(#XMLID_4_)"
           d="M32.3,368.8l68.2-67.6l27.4,27.4C127.9,328.5,114.6,407.2,32.3,368.8z"
           class="st4"
           id="XMLID_95_" /><linearGradient
           y2="301.572"
           x2="102.2872"
           y1="383.3731"
           x1="65.867"
           gradientUnits="userSpaceOnUse"
           id="XMLID_7_"><stop
             id="stop69"
             style="stop-color:#3D9FA3;stop-opacity:0"
             offset="0.6256" /><stop
             id="stop71"
             style="stop-color:#1D5E65"
             offset="0.931" /></linearGradient><path
           clip-path="url(#XMLID_4_)"
           d="M32.6,368.6l68.2-67.6l27.4,27.4C128.2,328.3,115,407,32.6,368.6z"
           class="st5"
           id="XMLID_93_" /><linearGradient
           y2="335.7133"
           x2="117.7938"
           y1="241.362"
           x1="67.6264"
           gradientUnits="userSpaceOnUse"
           id="XMLID_8_"><stop
             id="stop75"
             style="stop-color:#4CC0C2"
             offset="0" /><stop
             id="stop77"
             style="stop-color:#42BBBE"
             offset="0.266" /><stop
             id="stop79"
             style="stop-color:#2EA7AD"
             offset="0.5172" /><stop
             id="stop81"
             style="stop-color:#197F8A"
             offset="0.7635" /><stop
             id="stop83"
             style="stop-color:#136E84"
             offset="0.8571" /><stop
             id="stop85"
             style="stop-color:#116676"
             offset="0.9261" /></linearGradient><path
           clip-path="url(#XMLID_4_)"
           d="M129.1,329.7c0,0-40.3-38.7-45.9-44.6c-5.2-5.4-10.7-12-24-12.5c-10.8-0.4-19.1,6.9-19.1,6.9     l51-50.6C91,228.9,150.5,248.1,129.1,329.7z"
           class="st6"
           id="XMLID_91_" /><linearGradient
           y2="221.1643"
           x2="48.0661"
           y1="303.0544"
           x1="24.5844"
           gradientUnits="userSpaceOnUse"
           id="XMLID_9_"><stop
             id="stop89"
             style="stop-color:#17525D"
             offset="7.389162e-002" /><stop
             id="stop91"
             style="stop-color:#22929B"
             offset="0.4532" /><stop
             id="stop93"
             style="stop-color:#44BCBE"
             offset="0.8522" /><stop
             id="stop95"
             style="stop-color:#54CACC"
             offset="0.9557" /></linearGradient><path
           clip-path="url(#XMLID_4_)"
           d="M86.4,234l-67.9,67.4l-27.4-27.4C-8.8,273.9,4.1,195.5,86.4,234z"
           class="st7"
           id="XMLID_89_" /><linearGradient
           y2="249.6846"
           x2="59.5834"
           y1="305.2365"
           x1="145.1257"
           gradientUnits="userSpaceOnUse"
           id="XMLID_10_"><stop
             id="stop99"
             style="stop-color:#3BAAAE;stop-opacity:0"
             offset="0.803" /><stop
             id="stop101"
             style="stop-color:#1D646A"
             offset="0.9655" /></linearGradient><path
           clip-path="url(#XMLID_4_)"
           d="M129.1,329.9c0,0-40.3-38.7-45.9-44.6c-5.2-5.4-10.7-12-24-12.5c-10.8-0.4-19.1,6.9-19.1,6.9     l51-50.6C91.1,229.1,150.6,248.3,129.1,329.9z"
           class="st8"
           id="XMLID_87_" /><linearGradient
           y2="352.0878"
           x2="53.9946"
           y1="287.3058"
           x1="-23.2095"
           gradientUnits="userSpaceOnUse"
           id="XMLID_11_"><stop
             id="stop105"
             style="stop-color:#1E868F;stop-opacity:0"
             offset="0.6256" /><stop
             id="stop107"
             style="stop-color:#18585F"
             offset="0.9261" /></linearGradient><path
           clip-path="url(#XMLID_4_)"
           d="M-10.6,272.3c0,0,40.2,40.1,46,45.9c5.6,5.6,11.2,12,23.4,12.3c10.8,0.2,19.1-6.9,19.1-6.9     l-51,50.6C27,374.1-32,353.9-10.6,272.3z"
           class="st9"
           id="XMLID_85_" /></g><radialGradient
         gradientUnits="userSpaceOnUse"
         gradientTransform="matrix(1 0 0 1.0907 0 -18.4525)"
         r="9.1182"
         cy="294.2668"
         cx="59.8792"
         id="XMLID_12_"><stop
           id="stop111"
           style="stop-color:#69C9CA"
           offset="0.3251" /><stop
           id="stop113"
           style="stop-color:#0BFBFC;stop-opacity:2.805595e-002"
           offset="0.9261" /><stop
           id="stop115"
           style="stop-color:#05FEFF;stop-opacity:0"
           offset="1" /></radialGradient><path
         d="M59.9,292.3c4.9,0,8.9,4.6,8.9,10.2c0,5.6-4,10.2-8.9,10.2c-4.9,0-8.9-4.6-8.9-10.2    C51,296.9,55,292.3,59.9,292.3z"
         class="st10"
         id="XMLID_80_" /><radialGradient
         gradientUnits="userSpaceOnUse"
         r="7.8193"
         cy="301.7953"
         cx="59.8114"
         id="XMLID_13_"><stop
           id="stop119"
           style="stop-color:#69C9CA"
           offset="0.6847" /><stop
           id="stop121"
           style="stop-color:#4AD9DA;stop-opacity:0.6995"
           offset="0.7602" /><stop
           id="stop123"
           style="stop-color:#05FEFF;stop-opacity:0"
           offset="0.936" /></radialGradient><path
         d="M59.8,293.8c4.2,0,7.6,3.6,7.6,8c0,4.4-3.4,8-7.6,8c-4.2,0-7.6-3.6-7.6-8    C52.2,297.4,55.6,293.8,59.8,293.8z"
         class="st11"
         id="XMLID_46_" /><path
         d="M59.8,296.1c3,0,5.4,2.4,5.4,5.4c0,3-2.4,5.4-5.4,5.4c-3,0-5.4-2.4-5.4-5.4    C54.4,298.5,56.8,296.1,59.8,296.1z"
         class="st12"
         id="XMLID_35_" /></g></g></svg>