<?xml version="1.0" encoding="UTF-8" standalone="no"?>
<svg
   xmlns:dc="http://purl.org/dc/elements/1.1/"
   xmlns:cc="http://creativecommons.org/ns#"
   xmlns:rdf="http://www.w3.org/1999/02/22-rdf-syntax-ns#"
   xmlns:svg="http://www.w3.org/2000/svg"
   xmlns="http://www.w3.org/2000/svg"
   xmlns:xlink="http://www.w3.org/1999/xlink"
   height="143.60001"
   width="563.09998"
   xml:space="preserve"
   viewBox="-251 121.1 563.09998 143.60001"
   y="0px"
   x="0px"
   id="Layer_1"
   version="1.1"><metadata
     id="metadata175"><rdf:RDF><cc:Work
         rdf:about=""><dc:format>image/svg+xml</dc:format><dc:type
           rdf:resource="http://purl.org/dc/dcmitype/StillImage" /><dc:title></dc:title></cc:Work></rdf:RDF></metadata><defs
     id="defs173" /><style
     id="style3"
     type="text/css">
	.st0{fill:#FFFFFF;}
	.st1{fill:url(#XMLID_3_);}
	.st2{opacity:0.95;fill:url(#XMLID_4_);enable-background:new    ;}
	.st3{clip-path:url(#SVGID_2_);fill:url(#XMLID_5_);}
	.st4{clip-path:url(#SVGID_4_);fill:url(#XMLID_6_);}
	.st5{clip-path:url(#SVGID_6_);fill:url(#XMLID_7_);}
	.st6{clip-path:url(#SVGID_8_);fill:url(#XMLID_8_);}
	.st7{clip-path:url(#SVGID_10_);fill:url(#XMLID_9_);}
	.st8{clip-path:url(#SVGID_12_);fill:url(#XMLID_10_);}
	.st9{clip-path:url(#SVGID_14_);fill:url(#XMLID_11_);}
	.st10{opacity:0.8;fill:url(#XMLID_13_);enable-background:new    ;}
	.st11{fill:url(#XMLID_14_);}
</style><g
     transform="translate(-2.1999969,-2.7000046)"
     id="XMLID_64_"><path
       style="fill:#ffffff"
       d="m -76.5,141.4 28.2,0 c 3.9,0 7.2,0.6 10,1.7 2.7,1.1 5,2.6 6.7,4.5 1.7,1.9 3,4 3.8,6.4 0.8,2.4 1.2,4.9 1.2,7.4 0,2.5 -0.4,5 -1.2,7.4 -0.8,2.4 -2,4.6 -3.8,6.4 -1.7,1.9 -4,3.4 -6.7,4.5 -2.7,1.1 -6.1,1.7 -10,1.7 l -14.5,0 0,22.4 -13.8,0 0.1,-62.4 0,0 z m 13.8,29.4 10.7,0 c 1.6,0 3.1,-0.1 4.6,-0.4 1.5,-0.2 2.7,-0.7 3.9,-1.4 1.2,-0.7 2,-1.6 2.7,-2.8 0.7,-1.2 1,-2.8 1,-4.8 0,-2 -0.3,-3.6 -1,-4.8 -0.7,-1.2 -1.6,-2.2 -2.7,-2.8 -1.1,-0.6 -2.4,-1.1 -3.9,-1.4 -1.5,-0.2 -3,-0.4 -4.6,-0.4 l -10.7,0 0,18.8 z"
       class="st0"
       id="XMLID_65_" /><path
       style="fill:#ffffff"
       d="m 43.8,180.3 c 0,8.5 -2.4,14.8 -7.1,18.9 -4.7,4.1 -11.2,6.1 -19.6,6.1 -8.5,0 -15,-2 -19.7,-6.1 -4.6,-4.1 -7,-10.4 -7,-18.9 l 0,-38.9 13.8,0 0,38.9 c 0,1.7 0.1,3.4 0.4,5 0.3,1.6 0.9,3.1 1.8,4.3 0.9,1.2 2.2,2.3 3.9,3.1 1.7,0.8 3.9,1.2 6.7,1.2 4.9,0 8.3,-1.1 10.2,-3.3 1.9,-2.2 2.8,-5.6 2.8,-10.3 l 0,-38.9 13.8,0 0,38.9 z"
       class="st0"
       id="XMLID_68_" /><path
       style="fill:#ffffff"
       d="m 66.2,141.4 19.4,0 14.6,43 0.2,0 13.8,-43 19.4,0 0,62.6 -12.9,0 0,-44.3 -0.2,0 -15.3,44.3 -10.6,0 -15.3,-43.9 -0.2,0 0,43.9 -12.9,0 c 0,0 0,-62.6 0,-62.6 z"
       class="st0"
       id="XMLID_70_" /><path
       style="fill:#ffffff"
       d="m 156.2,141.4 28.2,0 c 3.9,0 7.2,0.6 10,1.7 2.7,1.1 5,2.6 6.7,4.5 1.7,1.9 3,4 3.8,6.4 0.8,2.4 1.2,4.9 1.2,7.4 0,2.5 -0.4,5 -1.2,7.4 -0.8,2.4 -2,4.6 -3.8,6.4 -1.7,1.9 -4,3.4 -6.7,4.5 -2.7,1.1 -6.1,1.7 -10,1.7 l -14.5,0 0,22.4 -13.8,0 0,-62.4 0.1,0 z m 13.7,29.4 10.7,0 c 1.6,0 3.1,-0.1 4.6,-0.4 1.5,-0.2 2.7,-0.7 3.9,-1.4 1.2,-0.7 2,-1.6 2.7,-2.8 0.7,-1.2 1,-2.8 1,-4.8 0,-2 -0.3,-3.6 -1,-4.8 -0.7,-1.2 -1.6,-2.2 -2.7,-2.8 -1.1,-0.6 -2.4,-1.1 -3.9,-1.4 -1.5,-0.2 -3,-0.4 -4.6,-0.4 l -10.7,0 0,18.8 z"
       class="st0"
       id="XMLID_72_" /><path
       style="fill:#ffffff"
       d="m 224.3,141.4 13.7,0 0,62.6 -13.8,0 0.1,-62.6 0,0 z"
       class="st0"
       id="XMLID_75_" /><path
       style="fill:#ffffff"
       d="m 300.6,162.4 c -0.2,-1.6 -0.8,-3 -1.6,-4.3 -0.8,-1.3 -1.8,-2.5 -3.1,-3.5 -1.2,-1 -2.6,-1.8 -4.2,-2.3 -1.6,-0.5 -3.2,-0.8 -4.9,-0.8 -3.1,0 -5.7,0.6 -7.9,1.8 -2.2,1.2 -3.9,2.8 -5.3,4.8 -1.3,2 -2.3,4.3 -2.9,6.9 -0.6,2.6 -0.9,5.2 -0.9,8 0,2.6 0.3,5.2 0.9,7.7 0.6,2.5 1.6,4.7 2.9,6.7 1.3,2 3.1,3.6 5.3,4.8 2.2,1.2 4.8,1.8 7.9,1.8 4.2,0 7.5,-1.3 9.9,-3.9 2.4,-2.6 3.8,-6 4.3,-10.2 l 13.3,0 c -0.4,3.9 -1.3,7.4 -2.7,10.6 -1.5,3.2 -3.4,5.8 -5.8,8.1 -2.4,2.2 -5.2,3.9 -8.4,5.1 -3.2,1.2 -6.7,1.8 -10.6,1.8 -4.8,0 -9.1,-0.8 -12.9,-2.5 -3.8,-1.7 -7.1,-4 -9.7,-6.9 -2.6,-2.9 -4.6,-6.4 -6,-10.3 -1.4,-3.9 -2.1,-8.2 -2.1,-12.7 0,-4.7 0.7,-9 2.1,-13 1.4,-4 3.4,-7.5 6,-10.5 2.6,-3 5.9,-5.3 9.7,-7 3.8,-1.7 8.1,-2.5 12.9,-2.5 3.4,0 6.7,0.5 9.8,1.5 3.1,1 5.8,2.4 8.2,4.3 2.4,1.9 4.4,4.2 6,7.1 1.6,2.9 2.6,6 3,9.6 l -13.2,0 0,-0.2 z"
       class="st0"
       id="XMLID_77_" /></g><g
     transform="translate(-2.1999969,-2.7000046)"
     id="XMLID_1_"><g
       id="XMLID_309_"><path
         style="fill:#ffffff"
         d="m -63.7,234.8 c -0.3,-0.5 -0.6,-0.9 -1,-1.2 -0.4,-0.4 -0.9,-0.6 -1.4,-0.8 -0.5,-0.2 -1.2,-0.3 -1.9,-0.3 -1.1,0 -2,0.2 -2.7,0.6 -0.7,0.4 -1.4,1 -1.9,1.7 -0.5,0.7 -0.8,1.5 -1.1,2.4 -0.2,0.9 -0.3,1.8 -0.3,2.8 0,1 0.1,1.9 0.3,2.8 0.2,0.9 0.6,1.7 1.1,2.4 0.5,0.7 1.1,1.3 1.9,1.7 0.8,0.4 1.7,0.6 2.7,0.6 0.8,0 1.5,-0.1 2.1,-0.4 0.6,-0.3 1.1,-0.6 1.5,-1.1 0.4,-0.5 0.8,-1 1,-1.7 0.2,-0.6 0.4,-1.3 0.5,-2 l 3.4,0 c -0.1,1.2 -0.3,2.3 -0.8,3.2 -0.5,0.9 -1,1.8 -1.8,2.5 -0.7,0.7 -1.6,1.3 -2.6,1.7 -1,0.4 -2.1,0.6 -3.3,0.6 -1.5,0 -2.8,-0.3 -4,-0.8 -1.2,-0.5 -2.2,-1.3 -3,-2.2 -0.8,-0.9 -1.4,-2 -1.9,-3.3 -0.4,-1.3 -0.7,-2.6 -0.7,-4 0,-1.4 0.2,-2.7 0.7,-4 0.4,-1.3 1.1,-2.4 1.9,-3.3 0.8,-0.9 1.8,-1.7 3,-2.2 1.2,-0.6 2.5,-0.8 4,-0.8 1.1,0 2.2,0.2 3.1,0.5 1,0.3 1.8,0.7 2.6,1.3 0.7,0.6 1.4,1.3 1.8,2.1 0.5,0.8 0.7,1.8 0.9,2.9 l -3.5,0 c -0.1,-0.7 -0.3,-1.2 -0.6,-1.7 z"
         class="st0"
         id="XMLID_337_" /><path
         style="fill:#ffffff"
         d="m -30.7,230.5 c 1.2,0.6 2.2,1.3 3,2.2 0.8,0.9 1.4,2 1.9,3.3 0.4,1.3 0.7,2.6 0.7,4 0,1.4 -0.2,2.8 -0.7,4 -0.4,1.3 -1.1,2.4 -1.9,3.3 -0.8,0.9 -1.8,1.7 -3,2.2 -1.2,0.5 -2.5,0.8 -4,0.8 -1.5,0 -2.8,-0.3 -4,-0.8 -1.2,-0.5 -2.2,-1.3 -3,-2.2 -0.8,-0.9 -1.4,-2 -1.9,-3.3 -0.4,-1.3 -0.7,-2.6 -0.7,-4 0,-1.4 0.2,-2.7 0.7,-4 0.4,-1.3 1.1,-2.4 1.9,-3.3 0.8,-0.9 1.8,-1.7 3,-2.2 1.2,-0.6 2.5,-0.8 4,-0.8 1.5,0 2.9,0.2 4,0.8 z m -6.7,2.6 c -0.8,0.4 -1.4,1 -1.9,1.7 -0.5,0.7 -0.8,1.5 -1.1,2.4 -0.2,0.9 -0.3,1.8 -0.3,2.8 0,1 0.1,1.9 0.3,2.8 0.2,0.9 0.6,1.7 1.1,2.4 0.5,0.7 1.1,1.3 1.9,1.7 0.8,0.4 1.7,0.6 2.7,0.6 1,0 2,-0.2 2.7,-0.6 0.7,-0.4 1.4,-1 1.9,-1.7 0.5,-0.7 0.8,-1.5 1.1,-2.4 0.2,-0.9 0.3,-1.8 0.3,-2.8 0,-1 -0.1,-1.9 -0.3,-2.8 -0.2,-0.9 -0.6,-1.7 -1.1,-2.4 -0.5,-0.7 -1.1,-1.3 -1.9,-1.7 -0.8,-0.4 -1.7,-0.6 -2.7,-0.6 -1,0 -1.9,0.2 -2.7,0.6 z"
         class="st0"
         id="XMLID_334_" /><path
         style="fill:#ffffff"
         d="m -5.2,230.1 9,14.6 0.1,0 0,-14.6 3.3,0 0,19.8 -3.7,0 -9,-14.6 -0.1,0 0,14.6 -3.3,0 0,-19.8 3.7,0 z"
         class="st0"
         id="XMLID_332_" /><path
         style="fill:#ffffff"
         d="m 38.8,230.1 0,3 -6.3,0 0,16.8 -3.5,0 0,-16.8 -6.3,0 0,-3 16.1,0 z"
         class="st0"
         id="XMLID_330_" /><path
         style="fill:#ffffff"
         d="m 63.9,230.1 c 2.2,0 3.8,0.5 4.9,1.4 1.1,0.9 1.6,2.3 1.6,3.9 0,0.9 -0.1,1.7 -0.4,2.3 -0.3,0.6 -0.6,1.1 -1,1.5 -0.4,0.4 -0.7,0.7 -1.1,0.8 -0.4,0.2 -0.6,0.3 -0.8,0.3 l 0,0.1 c 0.3,0 0.6,0.1 1,0.3 0.3,0.1 0.7,0.4 1,0.7 0.3,0.3 0.5,0.7 0.7,1.3 0.2,0.5 0.3,1.2 0.3,1.9 0,1.2 0.1,2.2 0.3,3.2 0.2,1 0.4,1.6 0.8,2 l -3.7,0 c -0.3,-0.4 -0.4,-0.9 -0.5,-1.4 0,-0.5 -0.1,-1 -0.1,-1.5 0,-0.9 -0.1,-1.7 -0.2,-2.3 -0.1,-0.7 -0.3,-1.2 -0.6,-1.6 -0.3,-0.4 -0.7,-0.8 -1.2,-1 -0.5,-0.2 -1.2,-0.3 -2,-0.3 l -5.1,0 0,8.2 -3.5,0 0,-19.8 9.6,0 0,0 z m -0.3,9 c 1.1,0 2,-0.3 2.5,-0.8 0.6,-0.5 0.9,-1.3 0.9,-2.4 0,-0.6 -0.1,-1.1 -0.3,-1.5 -0.2,-0.4 -0.4,-0.7 -0.8,-0.9 -0.3,-0.2 -0.7,-0.4 -1.1,-0.4 C 64.4,233 64,233 63.5,233 l -5.6,0 0,6.2 5.7,0 0,-0.1 z"
         class="st0"
         id="XMLID_327_" /><path
         style="fill:#ffffff"
         d="m 99.7,230.5 c 1.2,0.6 2.2,1.3 3,2.2 0.8,0.9 1.4,2 1.9,3.3 0.4,1.3 0.7,2.6 0.7,4 0,1.4 -0.2,2.8 -0.7,4 -0.4,1.3 -1.1,2.4 -1.9,3.3 -0.8,0.9 -1.8,1.7 -3,2.2 -1.2,0.5 -2.5,0.8 -4,0.8 -1.5,0 -2.8,-0.3 -4,-0.8 -1.2,-0.5 -2.2,-1.3 -3,-2.2 -0.8,-0.9 -1.4,-2 -1.9,-3.3 -0.4,-1.3 -0.7,-2.6 -0.7,-4 0,-1.4 0.2,-2.7 0.7,-4 0.4,-1.3 1.1,-2.4 1.9,-3.3 0.8,-0.9 1.8,-1.7 3,-2.2 1.2,-0.6 2.5,-0.8 4,-0.8 1.5,0 2.8,0.2 4,0.8 z m -6.7,2.6 c -0.8,0.4 -1.4,1 -1.9,1.7 -0.5,0.7 -0.8,1.5 -1.1,2.4 -0.2,0.9 -0.3,1.8 -0.3,2.8 0,1 0.1,1.9 0.3,2.8 0.2,0.9 0.6,1.7 1.1,2.4 0.5,0.7 1.1,1.3 1.9,1.7 0.8,0.4 1.7,0.6 2.7,0.6 1,0 2,-0.2 2.7,-0.6 0.7,-0.4 1.4,-1 1.9,-1.7 0.5,-0.7 0.8,-1.5 1.1,-2.4 0.2,-0.9 0.3,-1.8 0.3,-2.8 0,-1 -0.1,-1.9 -0.3,-2.8 -0.2,-0.9 -0.6,-1.7 -1.1,-2.4 -0.5,-0.7 -1.1,-1.3 -1.9,-1.7 -0.8,-0.4 -1.7,-0.6 -2.7,-0.6 -1,0 -1.9,0.2 -2.7,0.6 z"
         class="st0"
         id="XMLID_324_" /><path
         style="fill:#ffffff"
         d="m 125.2,230.1 0,16.8 10.1,0 0,3 -13.5,0 0,-19.8 3.4,0 z"
         class="st0"
         id="XMLID_322_" /><path
         style="fill:#ffffff"
         d="m 180.7,230.1 c 1.4,0 2.6,0.2 3.4,0.6 0.9,0.4 1.6,0.9 2.1,1.5 0.5,0.6 0.8,1.3 1,2 0.2,0.7 0.3,1.4 0.3,2 0,0.6 -0.1,1.3 -0.3,2 -0.2,0.7 -0.5,1.4 -1,2 -0.5,0.6 -1.2,1.1 -2.1,1.5 -0.9,0.4 -2,0.6 -3.4,0.6 l -5.3,0 0,7.6 -3.4,0 0,-19.8 8.7,0 0,0 z m -0.2,9.4 c 0.4,0 0.8,-0.1 1.2,-0.2 0.4,-0.1 0.8,-0.3 1.1,-0.5 0.3,-0.3 0.6,-0.6 0.8,-1 0.2,-0.4 0.3,-0.9 0.3,-1.6 0,-0.6 -0.1,-1.2 -0.3,-1.6 -0.2,-0.4 -0.4,-0.8 -0.7,-1 -0.3,-0.2 -0.7,-0.4 -1.1,-0.5 -0.4,-0.1 -0.8,-0.1 -1.3,-0.1 l -5.1,0 0,6.5 5.1,0 0,0 z"
         class="st0"
         id="XMLID_319_" /><path
         style="fill:#ffffff"
         d="m 210.7,230.1 7.6,19.8 -3.7,0 -1.9,-5.2 -7.9,0 -1.9,5.2 -3.6,0 7.6,-19.8 3.8,0 z m 1.2,11.9 -3,-8.5 -0.1,0 -3,8.5 6.1,0 z"
         class="st0"
         id="XMLID_316_" /><path
         style="fill:#ffffff"
         d="m 237.1,230.1 9,14.6 0.1,0 0,-14.6 3.3,0 0,19.8 -3.7,0 -9,-14.6 -0.1,0 0,14.6 -3.3,0 0,-19.8 3.7,0 z"
         class="st0"
         id="XMLID_314_" /><path
         style="fill:#ffffff"
         d="m 281.2,230.1 0,3 -10.8,0 0,5.2 10,0 0,2.8 -10,0 0,5.8 11,0 0,3 -14.5,0 0,-19.8 14.3,0 z"
         class="st0"
         id="XMLID_312_" /><path
         style="fill:#ffffff"
         d="m 301.2,230.1 0,16.8 10.1,0 0,3 -13.5,0 0,-19.8 3.4,0 z"
         class="st0"
         id="XMLID_310_" /></g></g><g
     transform="translate(-2.1999969,-2.7000046)"
     id="XMLID_12_"><radialGradient
       gradientUnits="userSpaceOnUse"
       gradientTransform="matrix(1,0,0,-1,0,140.39)"
       r="47.400002"
       cy="-68.739998"
       cx="-177"
       id="XMLID_3_"><stop
         id="stop28"
         style="stop-color:#364655"
         offset="0" /><stop
         id="stop30"
         style="stop-color:#363C49"
         offset="0.5271" /><stop
         id="stop32"
         style="stop-color:#2D3243"
         offset="1" /></radialGradient><circle
       style="fill:url(#XMLID_3_)"
       r="47.400002"
       cy="209.10001"
       cx="-177"
       class="st1"
       id="XMLID_60_" /><radialGradient
       gradientUnits="userSpaceOnUse"
       gradientTransform="matrix(1.0889,0,0,-1.2154,-21.0174,121.8784)"
       r="10.3027"
       cy="-62.408699"
       cx="-143.06419"
       id="XMLID_4_"><stop
         id="stop36"
         style="stop-color:#22D7FF"
         offset="0" /><stop
         id="stop38"
         style="stop-color:#22D7FF;stop-opacity:0"
         offset="0.9803" /></radialGradient><path
       style="opacity:0.95;fill:url(#XMLID_4_);enable-background:new"
       d="m -176.8,184.9 c 6,0 10.9,5.7 10.9,12.8 0,7.1 -4.9,12.8 -10.9,12.8 -6,0 -10.9,-5.7 -10.9,-12.8 0,-7.1 4.9,-12.8 10.9,-12.8 z"
       class="st2"
       id="XMLID_58_" /><g
       id="XMLID_39_"><g
         id="g42"><defs
           id="defs44"><circle
             r="71.800003"
             cy="195.60001"
             cx="-177"
             id="SVGID_1_" /></defs><clipPath
           id="SVGID_2_"><use
             height="100%"
             width="100%"
             y="0"
             x="0"
             id="use48"
             style="overflow:visible"
             xlink:href="#SVGID_1_" /></clipPath><linearGradient
           gradientTransform="matrix(1,0,0,-1,0,140.39)"
           y2="-31.8613"
           x2="-201.2184"
           y1="-127.2313"
           x1="-212.9283"
           gradientUnits="userSpaceOnUse"
           id="XMLID_5_"><stop
             id="stop51"
             style="stop-color:#137482"
             offset="0.1084" /><stop
             id="stop53"
             style="stop-color:#198490"
             offset="0.2069" /><stop
             id="stop55"
             style="stop-color:#5ACFD0"
             offset="0.7783" /></linearGradient><path
           style="fill:url(#XMLID_5_)"
           clip-path="url(#SVGID_2_)"
           d="m -247,166.6 c 0,0 40,39.9 45.8,45.7 5.6,5.5 11.2,11.9 23.3,12.2 10.7,0.2 19,-6.9 19,-6.9 l -50.7,50.4 c 0,0 -58.8,-20.1 -37.4,-101.4 z"
           class="st3"
           id="XMLID_56_" /></g><g
         id="g58"><defs
           id="defs60"><circle
             r="71.800003"
             cy="195.60001"
             cx="-177"
             id="SVGID_3_" /></defs><clipPath
           id="SVGID_4_"><use
             height="100%"
             width="100%"
             y="0"
             x="0"
             id="use64"
             style="overflow:visible"
             xlink:href="#SVGID_3_" /></clipPath><linearGradient
           gradientTransform="matrix(1,0,0,-1,0,140.39)"
           y2="-54.600201"
           x2="-155.96851"
           y1="-132.9003"
           x1="-157.33521"
           gradientUnits="userSpaceOnUse"
           id="XMLID_6_"><stop
             id="stop67"
             style="stop-color:#157986"
             offset="9.852216e-002" /><stop
             id="stop69"
             style="stop-color:#3AB3B7"
             offset="0.6552" /></linearGradient><path
           style="fill:url(#XMLID_6_)"
           clip-path="url(#SVGID_4_)"
           d="m -204.4,262.6 67.9,-67.3 27.3,27.3 c 0,-0.1 -13.2,78.3 -95.2,40 z"
           class="st4"
           id="XMLID_54_" /></g><g
         id="g72"><defs
           id="defs74"><circle
             r="71.800003"
             cy="195.60001"
             cx="-177"
             id="SVGID_5_" /></defs><clipPath
           id="SVGID_6_"><use
             height="100%"
             width="100%"
             y="0"
             x="0"
             id="use78"
             style="overflow:visible"
             xlink:href="#SVGID_5_" /></clipPath><linearGradient
           gradientTransform="matrix(1,0,0,-1,0,140.39)"
           y2="-55.391102"
           x2="-134.73759"
           y1="-136.81059"
           x1="-170.9879"
           gradientUnits="userSpaceOnUse"
           id="XMLID_7_"><stop
             id="stop81"
             style="stop-color:#3D9FA3;stop-opacity:0"
             offset="0.6256" /><stop
             id="stop83"
             style="stop-color:#1D5E65"
             offset="0.931" /></linearGradient><path
           style="fill:url(#XMLID_7_)"
           clip-path="url(#SVGID_6_)"
           d="m -204.1,262.4 67.9,-67.3 27.3,27.3 c 0,-0.1 -13.2,78.3 -95.2,40 z"
           class="st5"
           id="XMLID_52_" /></g><g
         id="g86"><defs
           id="defs88"><circle
             r="71.800003"
             cy="195.60001"
             cx="-177"
             id="SVGID_7_" /></defs><clipPath
           id="SVGID_8_"><use
             height="100%"
             width="100%"
             y="0"
             x="0"
             id="use92"
             style="overflow:visible"
             xlink:href="#SVGID_7_" /></clipPath><linearGradient
           gradientTransform="matrix(1,0,0,-1,0,140.39)"
           y2="-89.425201"
           x2="-119.2565"
           y1="4.5201001"
           x1="-169.20821"
           gradientUnits="userSpaceOnUse"
           id="XMLID_8_"><stop
             id="stop95"
             style="stop-color:#4CC0C2"
             offset="0" /><stop
             id="stop97"
             style="stop-color:#42BBBE"
             offset="0.266" /><stop
             id="stop99"
             style="stop-color:#2EA7AD"
             offset="0.5172" /><stop
             id="stop101"
             style="stop-color:#197F8A"
             offset="0.7635" /><stop
             id="stop103"
             style="stop-color:#136E84"
             offset="0.8571" /><stop
             id="stop105"
             style="stop-color:#116676"
             offset="0.9261" /></linearGradient><path
           style="fill:url(#XMLID_8_)"
           clip-path="url(#SVGID_8_)"
           d="m -108,223.8 c 0,0 -40.1,-38.5 -45.8,-44.4 -5.1,-5.4 -10.7,-11.9 -23.9,-12.4 -10.7,-0.4 -19,6.9 -19,6.9 l 50.7,-50.4 c 0,-0.1 59.3,19 38,100.3 z"
           class="st6"
           id="XMLID_50_" /></g><g
         id="g108"><defs
           id="defs110"><circle
             r="71.800003"
             cy="195.60001"
             cx="-177"
             id="SVGID_9_" /></defs><clipPath
           id="SVGID_10_"><use
             height="100%"
             width="100%"
             y="0"
             x="0"
             id="use114"
             style="overflow:visible"
             xlink:href="#SVGID_9_" /></clipPath><linearGradient
           gradientTransform="matrix(1,0,0,-1,0,140.39)"
           y2="24.708599"
           x2="-188.7247"
           y1="-56.856701"
           x1="-212.1132"
           gradientUnits="userSpaceOnUse"
           id="XMLID_9_"><stop
             id="stop117"
             style="stop-color:#17525D"
             offset="7.389162e-002" /><stop
             id="stop119"
             style="stop-color:#22929B"
             offset="0.4532" /><stop
             id="stop121"
             style="stop-color:#44BCBE"
             offset="0.8522" /><stop
             id="stop123"
             style="stop-color:#54CACC"
             offset="0.9557" /></linearGradient><path
           style="fill:url(#XMLID_9_)"
           clip-path="url(#SVGID_10_)"
           d="m -150.5,128.4 -67.6,67.1 -27.3,-27.3 c 0,0 12.9,-78.1 94.9,-39.8 z"
           class="st7"
           id="XMLID_48_" /></g><g
         id="g126"><defs
           id="defs128"><circle
             r="71.800003"
             cy="195.60001"
             cx="-177"
             id="SVGID_11_" /></defs><clipPath
           id="SVGID_12_"><use
             height="100%"
             width="100%"
             y="0"
             x="0"
             id="use132"
             style="overflow:visible"
             xlink:href="#SVGID_11_" /></clipPath><linearGradient
           gradientTransform="matrix(1,0,0,-1,0,140.39)"
           y2="-3.7413001"
           x2="-177.2836"
           y1="-59.058998"
           x1="-92.101799"
           gradientUnits="userSpaceOnUse"
           id="XMLID_10_"><stop
             id="stop135"
             style="stop-color:#3BAAAE;stop-opacity:0"
             offset="0.803" /><stop
             id="stop137"
             style="stop-color:#1D646A"
             offset="0.9655" /></linearGradient><path
           style="fill:url(#XMLID_10_)"
           clip-path="url(#SVGID_12_)"
           d="m -108,223.9 c 0,0 -40.1,-38.5 -45.8,-44.4 -5.1,-5.4 -10.7,-11.9 -23.9,-12.4 -10.7,-0.4 -19,6.9 -19,6.9 l 50.7,-50.4 c 0.1,0 59.4,19 38,100.3 z"
           class="st8"
           id="XMLID_45_" /></g><g
         id="g140"><defs
           id="defs142"><circle
             r="71.800003"
             cy="195.60001"
             cx="-177"
             id="SVGID_13_" /></defs><clipPath
           id="SVGID_14_"><use
             height="100%"
             width="100%"
             y="0"
             x="0"
             id="use146"
             style="overflow:visible"
             xlink:href="#SVGID_13_" /></clipPath><linearGradient
           gradientTransform="matrix(1,0,0,-1,0,140.39)"
           y2="-105.6756"
           x2="-182.86031"
           y1="-41.222801"
           x1="-259.67209"
           gradientUnits="userSpaceOnUse"
           id="XMLID_11_"><stop
             id="stop149"
             style="stop-color:#1E868F;stop-opacity:0"
             offset="0.6256" /><stop
             id="stop151"
             style="stop-color:#18585F"
             offset="0.9261" /></linearGradient><path
           style="fill:url(#XMLID_11_)"
           clip-path="url(#SVGID_14_)"
           d="m -247.1,166.6 c 0,0 40,39.9 45.8,45.7 5.6,5.5 11.2,11.9 23.3,12.2 10.7,0.2 19,-6.9 19,-6.9 l -50.7,50.4 c 0,0 -58.7,-20.2 -37.4,-101.4 z"
           class="st9"
           id="XMLID_42_" /></g></g><radialGradient
       gradientUnits="userSpaceOnUse"
       gradientTransform="matrix(1,0,0,-1.0907,0,132.3122)"
       r="9.0796003"
       cy="-59.033699"
       cx="-176.9279"
       id="XMLID_13_"><stop
         id="stop155"
         style="stop-color:#69C9CA"
         offset="0.3251" /><stop
         id="stop157"
         style="stop-color:#0BFBFC;stop-opacity:2.805595e-002"
         offset="0.9261" /><stop
         id="stop159"
         style="stop-color:#05FEFF;stop-opacity:0"
         offset="1" /></radialGradient><path
       style="opacity:0.8;fill:url(#XMLID_13_);enable-background:new"
       d="m -176.9,186.5 c 4.9,0 8.8,4.5 8.8,10.1 0,5.6 -4,10.1 -8.8,10.1 -4.9,0 -8.8,-4.5 -8.8,-10.1 -0.1,-5.5 3.9,-10.1 8.8,-10.1 z"
       class="st10"
       id="XMLID_37_" /><radialGradient
       gradientUnits="userSpaceOnUse"
       gradientTransform="matrix(1,0,0,-1,0,140.39)"
       r="7.7820001"
       cy="-55.599899"
       cx="-177"
       id="XMLID_14_"><stop
         id="stop163"
         style="stop-color:#69C9CA"
         offset="0.6847" /><stop
         id="stop165"
         style="stop-color:#4AD9DA;stop-opacity:0.6995"
         offset="0.7602" /><stop
         id="stop167"
         style="stop-color:#05FEFF;stop-opacity:0"
         offset="0.936" /></radialGradient><path
       style="fill:url(#XMLID_14_)"
       d="m -177,188 c 4.2,0 7.6,3.6 7.6,8 0,4.4 -3.4,8 -7.6,8 -4.2,0 -7.6,-3.6 -7.6,-8 0,-4.4 3.4,-8 7.6,-8 z"
       class="st11"
       id="XMLID_33_" /><path
       style="fill:#ffffff"
       d="m -177,190.3 c 3,0 5.4,2.4 5.4,5.4 0,3 -2.4,5.4 -5.4,5.4 -3,0 -5.4,-2.4 -5.4,-5.4 0,-3 2.4,-5.4 5.4,-5.4 z"
       class="st0"
       id="XMLID_17_" /></g></svg>