<svg xmlns="http://www.w3.org/2000/svg" xmlns:xlink="http://www.w3.org/1999/xlink" viewBox="-15 226 568 150" id="Layer_1"><style id="style3">.st0{fill:#fff}.st1{fill:url(#XMLID_2_)}.st1,.st2,.st3{fill-rule:evenodd;clip-rule:evenodd}.st2{opacity:.95;fill:url(#XMLID_3_)}.st3{fill:url(#XMLID_5_)}.st3,.st4,.st5{clip-path:url(#XMLID_4_)}.st4{fill-rule:evenodd;clip-rule:evenodd;fill:url(#XMLID_6_)}.st5{fill:url(#XMLID_7_)}.st5,.st6,.st7{fill-rule:evenodd;clip-rule:evenodd}.st6{clip-path:url(#XMLID_4_);fill:url(#XMLID_8_)}.st7{fill:url(#XMLID_9_)}.st7,.st8,.st9{clip-path:url(#XMLID_4_)}.st8{fill-rule:evenodd;clip-rule:evenodd;fill:url(#XMLID_10_)}.st9{fill:url(#XMLID_11_)}.st10,.st11,.st12,.st9{fill-rule:evenodd;clip-rule:evenodd}.st10{opacity:.8;fill:url(#XMLID_12_)}.st11{fill:url(#XMLID_13_)}.st12{fill:#fff}</style><g id="XMLID_102_"><g id="XMLID_145_"><path d="M157.8 247h28.3c3.9 0 7.3.6 10 1.7 2.8 1.1 5 2.7 6.7 4.5 1.7 1.9 3 4 3.8 6.4.8 2.4 1.2 4.9 1.2 7.5 0 2.5-.4 5-1.2 7.4s-2.1 4.6-3.8 6.5c-1.7 1.9-4 3.4-6.7 4.5-2.8 1.1-6.1 1.7-10 1.7h-14.5v22.5h-13.8V247zm13.8 29.5h10.7c1.6 0 3.1-.1 4.6-.4 1.5-.2 2.8-.7 3.9-1.4s2-1.6 2.7-2.9c.7-1.2 1-2.8 1-4.8s-.3-3.6-1-4.8c-.7-1.2-1.6-2.2-2.7-2.9-1.1-.7-2.4-1.1-3.9-1.4-1.5-.2-3-.4-4.6-.4h-10.7v19z" class="st0" id="XMLID_146_"/><path d="M278.6 286c0 8.5-2.4 14.8-7.1 19-4.8 4.1-11.3 6.2-19.7 6.2-8.5 0-15.1-2.1-19.8-6.2-4.7-4.1-7-10.4-7-19v-39h13.8v39c0 1.7.1 3.4.4 5s.9 3.1 1.8 4.4c.9 1.3 2.2 2.3 3.9 3.1 1.7.8 3.9 1.2 6.7 1.2 4.9 0 8.3-1.1 10.2-3.3 1.9-2.2 2.8-5.6 2.8-10.3V247h13.8v39z" class="st0" id="XMLID_149_"/><path d="M301 247h19.4l14.7 43.2h.2l13.9-43.2h19.4v62.8h-12.9v-44.5h-.2l-15.4 44.5h-10.6l-15.4-44.1h-.1v44.1h-13V247z" class="st0" id="XMLID_151_"/><path d="M391.4 247h28.3c3.9 0 7.3.6 10 1.7 2.8 1.1 5 2.7 6.7 4.5 1.7 1.9 3 4 3.8 6.4.8 2.4 1.2 4.9 1.2 7.5 0 2.5-.4 5-1.2 7.4-.8 2.4-2.1 4.6-3.8 6.5-1.7 1.9-4 3.4-6.7 4.5-2.8 1.1-6.1 1.7-10 1.7h-14.5v22.5h-13.8V247zm13.8 29.5h10.7c1.6 0 3.1-.1 4.6-.4 1.5-.2 2.8-.7 3.9-1.4s2-1.6 2.7-2.9c.7-1.2 1-2.8 1-4.8s-.3-3.6-1-4.8c-.7-1.2-1.6-2.2-2.7-2.9-1.1-.7-2.4-1.1-3.9-1.4-1.5-.2-3-.4-4.6-.4h-10.7v19z" class="st0" id="XMLID_153_"/><path d="M459.8 247h13.8v62.8h-13.8V247z" class="st0" id="XMLID_156_"/><path d="M536.4 268.1c-.2-1.6-.8-3-1.6-4.4-.8-1.3-1.8-2.5-3.1-3.5-1.2-1-2.6-1.8-4.2-2.3s-3.2-.8-4.9-.8c-3.1 0-5.7.6-7.9 1.8-2.2 1.2-3.9 2.8-5.3 4.8-1.3 2-2.3 4.3-2.9 6.9-.6 2.6-.9 5.2-.9 8 0 2.6.3 5.2.9 7.7.6 2.5 1.6 4.7 2.9 6.7 1.3 2 3.1 3.6 5.3 4.8s4.8 1.8 7.9 1.8c4.2 0 7.5-1.3 9.9-3.9 2.4-2.6 3.8-6 4.4-10.2h13.4c-.4 3.9-1.3 7.5-2.7 10.6-1.5 3.2-3.4 5.9-5.8 8.1-2.4 2.2-5.2 3.9-8.4 5.1-3.2 1.2-6.8 1.8-10.6 1.8-4.8 0-9.1-.8-13-2.5-3.8-1.7-7.1-4-9.7-6.9-2.6-2.9-4.7-6.4-6.1-10.3-1.4-4-2.1-8.2-2.1-12.8 0-4.7.7-9 2.1-13.1 1.4-4 3.4-7.5 6.1-10.5 2.6-3 5.9-5.3 9.7-7 3.8-1.7 8.2-2.6 13-2.6 3.5 0 6.7.5 9.8 1.5 3.1 1 5.8 2.4 8.3 4.4 2.4 1.9 4.4 4.3 6 7.1 1.6 2.8 2.6 6 3 9.7h-13.5z" class="st0" id="XMLID_158_"/></g><g id="XMLID_103_"><g id="g14"><path d="M162.6 335.3l5.5 15.6h.1l5.3-15.6h4.8v19.9H175v-15.4l-5.5 15.4h-2.9l-5.5-15.4h-.1v15.4h-3.3v-19.9h4.9z" class="st0" id="XMLID_421_"/><path d="M201.3 335.6c1.2.6 2.2 1.3 3 2.3.8.9 1.4 2.1 1.9 3.3.4 1.3.7 2.6.7 4s-.2 2.8-.7 4c-.4 1.3-1.1 2.4-1.9 3.3-.8.9-1.8 1.7-3 2.2-1.2.5-2.5.8-4 .8s-2.8-.3-4-.8c-1.2-.5-2.2-1.3-3-2.2-.8-.9-1.4-2.1-1.9-3.3-.4-1.3-.7-2.6-.7-4s.2-2.7.7-4c.4-1.3 1.1-2.4 1.9-3.3.8-.9 1.8-1.7 3-2.3 1.2-.6 2.5-.8 4-.8s2.8.3 4 .8zm-6.7 2.7c-.8.4-1.4 1-1.9 1.7s-.8 1.5-1.1 2.4c-.2.9-.3 1.8-.3 2.8 0 .9.1 1.9.3 2.8.2.9.6 1.7 1.1 2.4.5.7 1.1 1.3 1.9 1.7.8.4 1.7.6 2.7.6 1.1 0 2-.2 2.7-.6.8-.4 1.4-1 1.9-1.7s.8-1.5 1.1-2.4c.2-.9.3-1.8.3-2.8 0-.9-.1-1.9-.3-2.8-.2-.9-.6-1.7-1.1-2.4-.5-.7-1.1-1.3-1.9-1.7-.8-.4-1.7-.6-2.7-.6-1.1-.1-2 .2-2.7.6z" class="st0" id="XMLID_418_"/><path d="M225.9 335.3c1.8 0 3.2.4 4.3 1.2 1.1.8 1.6 2.1 1.6 3.7 0 1-.2 1.9-.7 2.6-.5.7-1.2 1.3-2.1 1.7v.1c1.2.3 2.2.8 2.8 1.7.6.9.9 2 .9 3.4 0 .8-.1 1.5-.4 2.2-.3.7-.7 1.3-1.3 1.8-.6.5-1.4.9-2.3 1.2-.9.3-2 .4-3.3.4h-9.1v-19.9h9.6zm-.5 8.3c.8 0 1.5-.2 2.1-.7.6-.5.8-1.2.8-2 0-1-.2-1.7-.8-2.1-.5-.4-1.2-.6-2.2-.6h-5.7v5.5h5.8zm.5 8.7c1.1 0 1.9-.3 2.5-.8.6-.5.9-1.3.9-2.3 0-1-.3-1.7-.9-2.3-.6-.5-1.4-.8-2.5-.8h-6.2v6.2h6.2z" class="st0" id="XMLID_414_"/><path d="M245.6 335.3v19.9h-3.5v-19.9h3.5z" class="st0" id="XMLID_412_"/><path d="M259.7 335.3v16.9h10.1v3h-13.6v-19.9h3.5z" class="st0" id="XMLID_410_"/><path d="M292.8 335.3v3H282v5.2h10v2.8h-10v5.8h11v3h-14.5v-19.9h14.3z" class="st0" id="XMLID_408_"/><path d="M321.1 335.3l5.5 15.6h.1l5.3-15.6h4.8v19.9h-3.3v-15.4h-.1l-5.5 15.4H325l-5.5-15.4h-.1v15.4h-3.3v-19.9h5z" class="st0" id="XMLID_406_"/><path d="M359.8 335.6c1.2.6 2.2 1.3 3 2.3.8.9 1.4 2.1 1.9 3.3.4 1.3.7 2.6.7 4s-.2 2.8-.7 4c-.4 1.3-1.1 2.4-1.9 3.3-.8.9-1.8 1.7-3 2.2-1.2.5-2.5.8-4 .8s-2.8-.3-4-.8c-1.2-.5-2.2-1.3-3-2.2-.8-.9-1.4-2.1-1.9-3.3-.4-1.3-.7-2.6-.7-4s.2-2.7.7-4c.4-1.3 1.1-2.4 1.9-3.3.8-.9 1.8-1.7 3-2.3 1.2-.6 2.5-.8 4-.8s2.8.3 4 .8zm-6.8 2.7c-.8.4-1.4 1-1.9 1.7s-.8 1.5-1.1 2.4c-.2.9-.3 1.8-.3 2.8 0 .9.1 1.9.3 2.8.2.9.6 1.7 1.1 2.4.5.7 1.1 1.3 1.9 1.7.8.4 1.7.6 2.7.6 1.1 0 2-.2 2.7-.6.8-.4 1.4-1 1.9-1.7s.8-1.5 1.1-2.4c.2-.9.3-1.8.3-2.8 0-.9-.1-1.9-.3-2.8-.2-.9-.6-1.7-1.1-2.4-.5-.7-1.1-1.3-1.9-1.7-.8-.4-1.7-.6-2.7-.6-1-.1-1.9.2-2.7.6z" class="st0" id="XMLID_403_"/><path d="M378.3 335.3l9.1 14.7h.1v-14.7h3.3v19.9h-3.7l-9.1-14.6h-.1v14.6h-3.3v-19.9h3.7z" class="st0" id="XMLID_401_"/><path d="M404.6 335.3v19.9h-3.5v-19.9h3.5z" class="st0" id="XMLID_399_"/><path d="M429.4 335.3v3h-6.3v16.9h-3.5v-16.9h-6.3v-3h16.1z" class="st0" id="XMLID_397_"/><path d="M450.4 335.6c1.2.6 2.2 1.3 3 2.3.8.9 1.4 2.1 1.9 3.3.4 1.3.7 2.6.7 4s-.2 2.8-.7 4c-.4 1.3-1.1 2.4-1.9 3.3-.8.9-1.8 1.7-3 2.2-1.2.5-2.5.8-4 .8s-2.8-.3-4-.8c-1.2-.5-2.2-1.3-3-2.2-.8-.9-1.4-2.1-1.9-3.3-.4-1.3-.7-2.6-.7-4s.2-2.7.7-4c.4-1.3 1.1-2.4 1.9-3.3.8-.9 1.8-1.7 3-2.3 1.2-.6 2.5-.8 4-.8s2.8.3 4 .8zm-6.7 2.7c-.8.4-1.4 1-1.9 1.7s-.8 1.5-1.1 2.4c-.2.9-.3 1.8-.3 2.8 0 .9.1 1.9.3 2.8.2.9.6 1.7 1.1 2.4.5.7 1.1 1.3 1.9 1.7.8.4 1.7.6 2.7.6 1.1 0 2-.2 2.7-.6.8-.4 1.4-1 1.9-1.7s.8-1.5 1.1-2.4c.2-.9.3-1.8.3-2.8 0-.9-.1-1.9-.3-2.8-.2-.9-.6-1.7-1.1-2.4-.5-.7-1.1-1.3-1.9-1.7-.8-.4-1.7-.6-2.7-.6-1-.1-1.9.2-2.7.6z" class="st0" id="XMLID_394_"/><path d="M474.9 335.3c2.2 0 3.8.5 4.9 1.4 1.1.9 1.6 2.3 1.6 4 0 .9-.1 1.7-.4 2.4-.3.6-.6 1.1-1 1.5-.4.4-.7.7-1.1.8-.4.2-.6.3-.8.3v.1c.3 0 .6.1 1 .3.3.1.7.4 1 .7.3.3.5.7.7 1.3.2.5.3 1.2.3 2 0 1.2.1 2.2.3 3.2.2 1 .4 1.6.8 2h-3.7c-.3-.4-.4-.9-.5-1.4s-.1-1-.1-1.5c0-.9-.1-1.7-.2-2.4s-.3-1.2-.6-1.6c-.3-.4-.7-.8-1.2-1-.5-.2-1.2-.3-2-.3h-5.1v8.2h-3.5v-19.9h9.6zm-.3 9c1.1 0 2-.3 2.5-.8.6-.5.9-1.3.9-2.4 0-.6-.1-1.1-.3-1.5-.2-.4-.4-.7-.8-.9-.3-.2-.7-.4-1.1-.4-.4-.1-.8-.1-1.3-.1h-5.7v6.2h5.8z" class="st0" id="XMLID_391_"/><path d="M494.8 335.3v19.9h-3.5v-19.9h3.5z" class="st0" id="XMLID_389_"/><path d="M508.8 335.3l9.1 14.7h.1v-14.7h3.3v19.9h-3.7l-9.1-14.6h-.1v14.6h-3.3v-19.9h3.7z" class="st0" id="XMLID_387_"/><path d="M546.8 355.2l-.5-2.3c-.9 1.1-1.9 1.8-2.8 2.2-.9.4-2 .6-3.2.6-1.5 0-2.8-.3-4-.8-1.2-.5-2.2-1.3-3-2.2-.8-.9-1.4-2.1-1.9-3.3-.4-1.3-.7-2.6-.7-4s.2-2.7.7-4c.4-1.3 1.1-2.4 1.9-3.3.8-.9 1.8-1.7 3-2.3 1.2-.6 2.5-.8 4-.8 1.1 0 2.1.1 3.1.4 1 .3 1.8.7 2.6 1.3.8.6 1.4 1.3 1.9 2.1.5.9.8 1.8.9 3h-3.4c-.1-.6-.3-1.2-.6-1.7s-.7-.9-1.2-1.2c-.5-.3-1-.6-1.6-.8-.6-.2-1.2-.3-1.8-.3-1.1 0-2 .2-2.7.6-.8.4-1.4 1-1.9 1.7s-.8 1.5-1.1 2.4c-.2.9-.3 1.8-.3 2.8 0 .9.1 1.9.3 2.8.2.9.6 1.7 1.1 2.4.5.7 1.1 1.3 1.9 1.7.8.4 1.7.6 2.7.6.9 0 1.7-.1 2.4-.3.7-.3 1.3-.6 1.7-1.1.5-.5.8-1.1 1.1-1.7s.4-1.4.4-2.3h-5.3v-2.6h8.5v10.5h-2.2z" class="st0" id="XMLID_385_"/></g></g><g id="XMLID_34_"><radialGradient gradientUnits="userSpaceOnUse" r="47.566" cy="315.01" cx="59.811" id="XMLID_2_"><stop id="stop34" offset="0" stop-color="#364655"/><stop id="stop36" offset=".527" stop-color="#363c49"/><stop id="stop38" offset="1" stop-color="#2d3243"/></radialGradient><circle r="47.6" cy="315" cx="59.8" class="st1" id="XMLID_101_"/><radialGradient gradientUnits="userSpaceOnUse" gradientTransform="matrix(1.0889 0 0 1.2154 -17.21 -43.153)" r="10.346" cy="285.262" cx="70.919" id="XMLID_3_"><stop id="stop42" offset="0" stop-color="#22d7ff"/><stop id="stop44" offset=".98" stop-color="#22d7ff" stop-opacity="0"/></radialGradient><path d="M60 290.7c6.1 0 11 5.8 11 12.9 0 7.1-4.9 12.9-11 12.9s-11-5.8-11-12.9c0-7.2 5-12.9 11-12.9z" class="st2" id="XMLID_99_"/><g id="XMLID_82_"><defs id="defs48"><circle r="72.1" cy="301.5" cx="59.8" id="XMLID_84_"/></defs><clipPath id="XMLID_4_"><use id="use52" xlink:href="#XMLID_84_" overflow="visible"/></clipPath><linearGradient y2="277.967" x2="35.503" y1="373.764" x1="23.741" gradientUnits="userSpaceOnUse" id="XMLID_5_"><stop id="stop55" offset=".108" stop-color="#137482"/><stop id="stop57" offset=".207" stop-color="#198490"/><stop id="stop59" offset=".778" stop-color="#5acfd0"/></linearGradient><path clip-path="url(#XMLID_4_)" d="M-10.5 272.3s40.2 40.1 46 45.9c5.6 5.6 11.2 12 23.4 12.3 10.8.2 19.1-6.9 19.1-6.9l-51 50.6c.1 0-58.9-20.3-37.5-101.9z" class="st3" id="XMLID_97_"/><linearGradient y2="300.776" x2="80.91" y1="379.445" x1="79.537" gradientUnits="userSpaceOnUse" id="XMLID_6_"><stop id="stop63" offset=".099" stop-color="#157986"/><stop id="stop65" offset=".655" stop-color="#3ab3b7"/></linearGradient><path clip-path="url(#XMLID_4_)" d="M32.3 368.8l68.2-67.6 27.4 27.4c0-.1-13.3 78.6-95.6 40.2z" class="st4" id="XMLID_95_"/><linearGradient y2="301.572" x2="102.287" y1="383.373" x1="65.867" gradientUnits="userSpaceOnUse" id="XMLID_7_"><stop id="stop69" offset=".626" stop-color="#3d9fa3" stop-opacity="0"/><stop id="stop71" offset=".931" stop-color="#1d5e65"/></linearGradient><path clip-path="url(#XMLID_4_)" d="M32.6 368.6l68.2-67.6 27.4 27.4c0-.1-13.2 78.6-95.6 40.2z" class="st5" id="XMLID_93_"/><linearGradient y2="335.713" x2="117.794" y1="241.362" x1="67.626" gradientUnits="userSpaceOnUse" id="XMLID_8_"><stop id="stop75" offset="0" stop-color="#4cc0c2"/><stop id="stop77" offset=".266" stop-color="#42bbbe"/><stop id="stop79" offset=".517" stop-color="#2ea7ad"/><stop id="stop81" offset=".763" stop-color="#197f8a"/><stop id="stop83" offset=".857" stop-color="#136e84"/><stop id="stop85" offset=".926" stop-color="#116676"/></linearGradient><path clip-path="url(#XMLID_4_)" d="M129.1 329.7S88.8 291 83.2 285.1c-5.2-5.4-10.7-12-24-12.5-10.8-.4-19.1 6.9-19.1 6.9l51-50.6c-.1 0 59.4 19.2 38 100.8z" class="st6" id="XMLID_91_"/><linearGradient y2="221.164" x2="48.066" y1="303.054" x1="24.584" gradientUnits="userSpaceOnUse" id="XMLID_9_"><stop id="stop89" offset=".074" stop-color="#17525d"/><stop id="stop91" offset=".453" stop-color="#22929b"/><stop id="stop93" offset=".852" stop-color="#44bcbe"/><stop id="stop95" offset=".956" stop-color="#54cacc"/></linearGradient><path clip-path="url(#XMLID_4_)" d="M86.4 234l-67.9 67.4L-8.9 274c.1-.1 13-78.5 95.3-40z" class="st7" id="XMLID_89_"/><linearGradient y2="249.685" x2="59.583" y1="305.236" x1="145.126" gradientUnits="userSpaceOnUse" id="XMLID_10_"><stop id="stop99" offset=".803" stop-color="#3baaae" stop-opacity="0"/><stop id="stop101" offset=".966" stop-color="#1d646a"/></linearGradient><path clip-path="url(#XMLID_4_)" d="M129.1 329.9s-40.3-38.7-45.9-44.6c-5.2-5.4-10.7-12-24-12.5-10.8-.4-19.1 6.9-19.1 6.9l51-50.6s59.5 19.2 38 100.8z" class="st8" id="XMLID_87_"/><linearGradient y2="352.088" x2="53.995" y1="287.306" x1="-23.209" gradientUnits="userSpaceOnUse" id="XMLID_11_"><stop id="stop105" offset=".626" stop-color="#1e868f" stop-opacity="0"/><stop id="stop107" offset=".926" stop-color="#18585f"/></linearGradient><path clip-path="url(#XMLID_4_)" d="M-10.6 272.3s40.2 40.1 46 45.9c5.6 5.6 11.2 12 23.4 12.3 10.8.2 19.1-6.9 19.1-6.9l-51 50.6c.1-.1-58.9-20.3-37.5-101.9z" class="st9" id="XMLID_85_"/></g><radialGradient gradientUnits="userSpaceOnUse" gradientTransform="matrix(1 0 0 1.0907 0 -18.453)" r="9.118" cy="294.267" cx="59.879" id="XMLID_12_"><stop id="stop111" offset=".325" stop-color="#69c9ca"/><stop id="stop113" offset=".926" stop-color="#0bfbfc" stop-opacity=".028"/><stop id="stop115" offset="1" stop-color="#05feff" stop-opacity="0"/></radialGradient><path d="M59.9 292.3c4.9 0 8.9 4.6 8.9 10.2s-4 10.2-8.9 10.2-8.9-4.6-8.9-10.2 4-10.2 8.9-10.2z" class="st10" id="XMLID_80_"/><radialGradient gradientUnits="userSpaceOnUse" r="7.819" cy="301.795" cx="59.811" id="XMLID_13_"><stop id="stop119" offset=".685" stop-color="#69c9ca"/><stop id="stop121" offset=".76" stop-color="#4ad9da" stop-opacity=".7"/><stop id="stop123" offset=".936" stop-color="#05feff" stop-opacity="0"/></radialGradient><path d="M59.8 293.8c4.2 0 7.6 3.6 7.6 8s-3.4 8-7.6 8c-4.2 0-7.6-3.6-7.6-8s3.4-8 7.6-8z" class="st11" id="XMLID_46_"/><path d="M59.8 296.1c3 0 5.4 2.4 5.4 5.4 0 3-2.4 5.4-5.4 5.4-3 0-5.4-2.4-5.4-5.4 0-3 2.4-5.4 5.4-5.4z" class="st12" id="XMLID_35_"/></g></g></svg>