<?xml version="1.0" encoding="UTF-8" standalone="no"?>
<svg
   xmlns:dc="http://purl.org/dc/elements/1.1/"
   xmlns:cc="http://creativecommons.org/ns#"
   xmlns:rdf="http://www.w3.org/1999/02/22-rdf-syntax-ns#"
   xmlns:svg="http://www.w3.org/2000/svg"
   xmlns="http://www.w3.org/2000/svg"
   xmlns:xlink="http://www.w3.org/1999/xlink"
   version="1.1"
   id="svg2"
   viewBox="0 0 592.99998 159.59616"
   height="45.041584mm"
   width="167.35777mm">
  <defs
     id="defs4" />
  <metadata
     id="metadata7">
    <rdf:RDF>
      <cc:Work
         rdf:about="">
        <dc:format>image/svg+xml</dc:format>
        <dc:type
           rdf:resource="http://purl.org/dc/dcmitype/StillImage" />
        <dc:title></dc:title>
      </cc:Work>
    </rdf:RDF>
  </metadata>
  <g
     transform="translate(1079.3571,-121.13556)"
     id="layer1">
    <g
       transform="translate(-1023.6571,-95.868276)"
       id="g3339">
      <g
         id="g3341">
        <g
           id="XMLID_145_">
          <path
             style="fill:#ffffff"
             id="XMLID_146_"
             class="st0"
             d="m 144.8,247 28.3,0 c 3.9,0 7.3,0.6 10,1.7 2.8,1.1 5,2.7 6.7,4.5 1.7,1.9 3,4 3.8,6.4 0.8,2.4 1.2,4.9 1.2,7.5 0,2.5 -0.4,5 -1.2,7.4 -0.8,2.4 -2.1,4.6 -3.8,6.5 -1.7,1.9 -4,3.4 -6.7,4.5 -2.8,1.1 -6.1,1.7 -10,1.7 l -14.5,0 0,22.5 -13.8,0 0,-62.7 z m 13.8,29.5 10.7,0 c 1.6,0 3.1,-0.1 4.6,-0.4 1.5,-0.2 2.8,-0.7 3.9,-1.4 1.1,-0.7 2,-1.6 2.7,-2.9 0.7,-1.2 1,-2.8 1,-4.8 0,-2 -0.3,-3.6 -1,-4.8 -0.7,-1.2 -1.6,-2.2 -2.7,-2.9 -1.1,-0.7 -2.4,-1.1 -3.9,-1.4 -1.5,-0.2 -3,-0.4 -4.6,-0.4 l -10.7,0 0,19 z" />
          <path
             style="fill:#ffffff"
             id="XMLID_149_"
             class="st0"
             d="m 265.6,286 c 0,8.5 -2.4,14.8 -7.1,19 -4.8,4.1 -11.3,6.2 -19.7,6.2 -8.5,0 -15.1,-2.1 -19.8,-6.2 -4.7,-4.1 -7,-10.4 -7,-19 l 0,-39 13.8,0 0,39 c 0,1.7 0.1,3.4 0.4,5 0.3,1.6 0.9,3.1 1.8,4.4 0.9,1.3 2.2,2.3 3.9,3.1 1.7,0.8 3.9,1.2 6.7,1.2 4.9,0 8.3,-1.1 10.2,-3.3 1.9,-2.2 2.8,-5.6 2.8,-10.3 l 0,-39.1 13.8,0 0,39 0.2,0 z" />
          <path
             style="fill:#ffffff"
             id="XMLID_151_"
             class="st0"
             d="m 288,247 19.4,0 14.7,43.2 0.2,0 13.9,-43.2 19.4,0 0,62.8 -12.9,0 0,-44.5 -0.2,0 -15.4,44.5 -10.6,0 -15.4,-44.1 -0.1,0 0,44.1 -13,0 0,-62.8 z" />
          <path
             style="fill:#ffffff"
             id="XMLID_153_"
             class="st0"
             d="m 378.4,247 28.3,0 c 3.9,0 7.3,0.6 10,1.7 2.8,1.1 5,2.7 6.7,4.5 1.7,1.9 3,4 3.8,6.4 0.8,2.4 1.2,4.9 1.2,7.5 0,2.5 -0.4,5 -1.2,7.4 -0.8,2.4 -2.1,4.6 -3.8,6.5 -1.7,1.9 -4,3.4 -6.7,4.5 -2.8,1.1 -6.1,1.7 -10,1.7 l -14.5,0 0,22.5 -13.8,0 0,-62.7 z m 13.8,29.5 10.7,0 c 1.6,0 3.1,-0.1 4.6,-0.4 1.5,-0.2 2.8,-0.7 3.9,-1.4 1.1,-0.7 2,-1.6 2.7,-2.9 0.7,-1.2 1,-2.8 1,-4.8 0,-2 -0.3,-3.6 -1,-4.8 -0.7,-1.2 -1.6,-2.2 -2.7,-2.9 -1.1,-0.7 -2.4,-1.1 -3.9,-1.4 -1.5,-0.2 -3,-0.4 -4.6,-0.4 l -10.7,0 0,19 z" />
          <path
             style="fill:#ffffff"
             id="XMLID_156_"
             class="st0"
             d="m 446.8,247 13.8,0 0,62.8 -13.8,0 0,-62.8 z" />
          <path
             style="fill:#ffffff"
             id="XMLID_158_"
             class="st0"
             d="m 523.4,268.1 c -0.2,-1.6 -0.8,-3 -1.6,-4.4 -0.8,-1.3 -1.8,-2.5 -3.1,-3.5 -1.2,-1 -2.6,-1.8 -4.2,-2.3 -1.6,-0.5 -3.2,-0.8 -4.9,-0.8 -3.1,0 -5.7,0.6 -7.9,1.8 -2.2,1.2 -3.9,2.8 -5.3,4.8 -1.3,2 -2.3,4.3 -2.9,6.9 -0.6,2.6 -0.9,5.2 -0.9,8 0,2.6 0.3,5.2 0.9,7.7 0.6,2.5 1.6,4.7 2.9,6.7 1.3,2 3.1,3.6 5.3,4.8 2.2,1.2 4.8,1.8 7.9,1.8 4.2,0 7.5,-1.3 9.9,-3.9 2.4,-2.6 3.8,-6 4.4,-10.2 l 13.4,0 c -0.4,3.9 -1.3,7.5 -2.7,10.6 -1.5,3.2 -3.4,5.9 -5.8,8.1 -2.4,2.2 -5.2,3.9 -8.4,5.1 -3.2,1.2 -6.8,1.8 -10.6,1.8 -4.8,0 -9.1,-0.8 -13,-2.5 -3.8,-1.7 -7.1,-4 -9.7,-6.9 -2.6,-2.9 -4.7,-6.4 -6.1,-10.3 -1.4,-4 -2.1,-8.2 -2.1,-12.8 0,-4.7 0.7,-9 2.1,-13.1 1.4,-4 3.4,-7.5 6.1,-10.5 2.6,-3 5.9,-5.3 9.7,-7 3.8,-1.7 8.2,-2.6 13,-2.6 3.5,0 6.7,0.5 9.8,1.5 3.1,1 5.8,2.4 8.3,4.4 2.4,1.9 4.4,4.3 6,7.1 1.6,2.8 2.6,6 3,9.7 l -13.5,0 0,0 z" />
        </g>
        <g
           id="XMLID_103_">
          <g
             id="g3351">
            <path
               style="fill:#ffffff"
               id="XMLID_421_"
               class="st0"
               d="m 149.6,335.3 5.5,15.6 0.1,0 5.3,-15.6 4.8,0 0,19.9 -3.3,0 0,-15.4 0,0 -5.5,15.4 -2.9,0 -5.5,-15.4 -0.1,0 0,15.4 -3.3,0 0,-19.9 4.9,0 z" />
            <path
               style="fill:#ffffff"
               id="XMLID_418_"
               class="st0"
               d="m 188.3,335.6 c 1.2,0.6 2.2,1.3 3,2.3 0.8,0.9 1.4,2.1 1.9,3.3 0.4,1.3 0.7,2.6 0.7,4 0,1.4 -0.2,2.8 -0.7,4 -0.4,1.3 -1.1,2.4 -1.9,3.3 -0.8,0.9 -1.8,1.7 -3,2.2 -1.2,0.5 -2.5,0.8 -4,0.8 -1.5,0 -2.8,-0.3 -4,-0.8 -1.2,-0.5 -2.2,-1.3 -3,-2.2 -0.8,-0.9 -1.4,-2.1 -1.9,-3.3 -0.4,-1.3 -0.7,-2.6 -0.7,-4 0,-1.4 0.2,-2.7 0.7,-4 0.4,-1.3 1.1,-2.4 1.9,-3.3 0.8,-0.9 1.8,-1.7 3,-2.3 1.2,-0.6 2.5,-0.8 4,-0.8 1.5,0 2.8,0.3 4,0.8 z m -6.7,2.7 c -0.8,0.4 -1.4,1 -1.9,1.7 -0.5,0.7 -0.8,1.5 -1.1,2.4 -0.2,0.9 -0.3,1.8 -0.3,2.8 0,0.9 0.1,1.9 0.3,2.8 0.2,0.9 0.6,1.7 1.1,2.4 0.5,0.7 1.1,1.3 1.9,1.7 0.8,0.4 1.7,0.6 2.7,0.6 1.1,0 2,-0.2 2.7,-0.6 0.8,-0.4 1.4,-1 1.9,-1.7 0.5,-0.7 0.8,-1.5 1.1,-2.4 0.2,-0.9 0.3,-1.8 0.3,-2.8 0,-0.9 -0.1,-1.9 -0.3,-2.8 -0.2,-0.9 -0.6,-1.7 -1.1,-2.4 -0.5,-0.7 -1.1,-1.3 -1.9,-1.7 -0.8,-0.4 -1.7,-0.6 -2.7,-0.6 -1.1,-0.1 -2,0.2 -2.7,0.6 z" />
            <path
               style="fill:#ffffff"
               id="XMLID_414_"
               class="st0"
               d="m 212.9,335.3 c 1.8,0 3.2,0.4 4.3,1.2 1.1,0.8 1.6,2.1 1.6,3.7 0,1 -0.2,1.9 -0.7,2.6 -0.5,0.7 -1.2,1.3 -2.1,1.7 l 0,0.1 c 1.2,0.3 2.2,0.8 2.8,1.7 0.6,0.9 0.9,2 0.9,3.4 0,0.8 -0.1,1.5 -0.4,2.2 -0.3,0.7 -0.7,1.3 -1.3,1.8 -0.6,0.5 -1.4,0.9 -2.3,1.2 -0.9,0.3 -2,0.4 -3.3,0.4 l -9.1,0 0,-19.9 9.6,0 0,-0.1 z m -0.5,8.3 c 0.8,0 1.5,-0.2 2.1,-0.7 0.6,-0.5 0.8,-1.2 0.8,-2 0,-1 -0.2,-1.7 -0.8,-2.1 -0.5,-0.4 -1.2,-0.6 -2.2,-0.6 l -5.7,0 0,5.5 5.8,-0.1 0,0 z m 0.5,8.7 c 1.1,0 1.9,-0.3 2.5,-0.8 0.6,-0.5 0.9,-1.3 0.9,-2.3 0,-1 -0.3,-1.7 -0.9,-2.3 -0.6,-0.5 -1.4,-0.8 -2.5,-0.8 l -6.2,0 0,6.2 6.2,0 0,0 z" />
            <path
               style="fill:#ffffff"
               id="XMLID_412_"
               class="st0"
               d="m 232.6,335.3 0,19.9 -3.5,0 0,-19.9 3.5,0 z" />
            <path
               style="fill:#ffffff"
               id="XMLID_410_"
               class="st0"
               d="m 246.7,335.3 0,16.9 10.1,0 0,3 -13.6,0 0,-19.9 3.5,0 z" />
            <path
               style="fill:#ffffff"
               id="XMLID_408_"
               class="st0"
               d="m 279.8,335.3 0,3 -10.8,0 0,5.2 10,0 0,2.8 -10,0 0,5.8 11,0 0,3 -14.5,0 0,-19.9 14.3,0 0,0.1 z" />
            <path
               style="fill:#ffffff"
               id="XMLID_406_"
               class="st0"
               d="m 308.1,335.3 5.5,15.6 0.1,0 5.3,-15.6 4.8,0 0,19.9 -3.3,0 0,-15.4 -0.1,0 -5.5,15.4 -2.9,0 -5.5,-15.4 -0.1,0 0,15.4 -3.3,0 0,-19.9 5,0 z" />
            <path
               style="fill:#ffffff"
               id="XMLID_403_"
               class="st0"
               d="m 346.8,335.6 c 1.2,0.6 2.2,1.3 3,2.3 0.8,0.9 1.4,2.1 1.9,3.3 0.4,1.3 0.7,2.6 0.7,4 0,1.4 -0.2,2.8 -0.7,4 -0.4,1.3 -1.1,2.4 -1.9,3.3 -0.8,0.9 -1.8,1.7 -3,2.2 -1.2,0.5 -2.5,0.8 -4,0.8 -1.5,0 -2.8,-0.3 -4,-0.8 -1.2,-0.5 -2.2,-1.3 -3,-2.2 -0.8,-0.9 -1.4,-2.1 -1.9,-3.3 -0.4,-1.3 -0.7,-2.6 -0.7,-4 0,-1.4 0.2,-2.7 0.7,-4 0.4,-1.3 1.1,-2.4 1.9,-3.3 0.8,-0.9 1.8,-1.7 3,-2.3 1.2,-0.6 2.5,-0.8 4,-0.8 1.5,0 2.8,0.3 4,0.8 z m -6.8,2.7 c -0.8,0.4 -1.4,1 -1.9,1.7 -0.5,0.7 -0.8,1.5 -1.1,2.4 -0.2,0.9 -0.3,1.8 -0.3,2.8 0,0.9 0.1,1.9 0.3,2.8 0.2,0.9 0.6,1.7 1.1,2.4 0.5,0.7 1.1,1.3 1.9,1.7 0.8,0.4 1.7,0.6 2.7,0.6 1.1,0 2,-0.2 2.7,-0.6 0.8,-0.4 1.4,-1 1.9,-1.7 0.5,-0.7 0.8,-1.5 1.1,-2.4 0.2,-0.9 0.3,-1.8 0.3,-2.8 0,-0.9 -0.1,-1.9 -0.3,-2.8 -0.2,-0.9 -0.6,-1.7 -1.1,-2.4 -0.5,-0.7 -1.1,-1.3 -1.9,-1.7 -0.8,-0.4 -1.7,-0.6 -2.7,-0.6 -1,-0.1 -1.9,0.2 -2.7,0.6 z" />
            <path
               style="fill:#ffffff"
               id="XMLID_401_"
               class="st0"
               d="m 365.3,335.3 9.1,14.7 0.1,0 0,-14.7 3.3,0 0,19.9 -3.7,0 -9.1,-14.6 -0.1,0 0,14.6 -3.3,0 0,-19.9 3.7,0 z" />
            <path
               style="fill:#ffffff"
               id="XMLID_399_"
               class="st0"
               d="m 391.6,335.3 0,19.9 -3.5,0 0,-19.9 3.5,0 z" />
            <path
               style="fill:#ffffff"
               id="XMLID_397_"
               class="st0"
               d="m 416.4,335.3 0,3 -6.3,0 0,16.9 -3.5,0 0,-16.9 -6.3,0 0,-3 16.1,0 z" />
            <path
               style="fill:#ffffff"
               id="XMLID_394_"
               class="st0"
               d="m 437.4,335.6 c 1.2,0.6 2.2,1.3 3,2.3 0.8,0.9 1.4,2.1 1.9,3.3 0.4,1.3 0.7,2.6 0.7,4 0,1.4 -0.2,2.8 -0.7,4 -0.4,1.3 -1.1,2.4 -1.9,3.3 -0.8,0.9 -1.8,1.7 -3,2.2 -1.2,0.5 -2.5,0.8 -4,0.8 -1.5,0 -2.8,-0.3 -4,-0.8 -1.2,-0.5 -2.2,-1.3 -3,-2.2 -0.8,-0.9 -1.4,-2.1 -1.9,-3.3 -0.4,-1.3 -0.7,-2.6 -0.7,-4 0,-1.4 0.2,-2.7 0.7,-4 0.4,-1.3 1.1,-2.4 1.9,-3.3 0.8,-0.9 1.8,-1.7 3,-2.3 1.2,-0.6 2.5,-0.8 4,-0.8 1.5,0 2.8,0.3 4,0.8 z m -6.7,2.7 c -0.8,0.4 -1.4,1 -1.9,1.7 -0.5,0.7 -0.8,1.5 -1.1,2.4 -0.2,0.9 -0.3,1.8 -0.3,2.8 0,0.9 0.1,1.9 0.3,2.8 0.2,0.9 0.6,1.7 1.1,2.4 0.5,0.7 1.1,1.3 1.9,1.7 0.8,0.4 1.7,0.6 2.7,0.6 1.1,0 2,-0.2 2.7,-0.6 0.8,-0.4 1.4,-1 1.9,-1.7 0.5,-0.7 0.8,-1.5 1.1,-2.4 0.2,-0.9 0.3,-1.8 0.3,-2.8 0,-0.9 -0.1,-1.9 -0.3,-2.8 -0.2,-0.9 -0.6,-1.7 -1.1,-2.4 -0.5,-0.7 -1.1,-1.3 -1.9,-1.7 -0.8,-0.4 -1.7,-0.6 -2.7,-0.6 -1,-0.1 -1.9,0.2 -2.7,0.6 z" />
            <path
               style="fill:#ffffff"
               id="XMLID_391_"
               class="st0"
               d="m 461.9,335.3 c 2.2,0 3.8,0.5 4.9,1.4 1.1,0.9 1.6,2.3 1.6,4 0,0.9 -0.1,1.7 -0.4,2.4 -0.3,0.6 -0.6,1.1 -1,1.5 -0.4,0.4 -0.7,0.7 -1.1,0.8 -0.4,0.2 -0.6,0.3 -0.8,0.3 l 0,0.1 c 0.3,0 0.6,0.1 1,0.3 0.3,0.1 0.7,0.4 1,0.7 0.3,0.3 0.5,0.7 0.7,1.3 0.2,0.5 0.3,1.2 0.3,2 0,1.2 0.1,2.2 0.3,3.2 0.2,1 0.4,1.6 0.8,2 l -3.7,0 c -0.3,-0.4 -0.4,-0.9 -0.5,-1.4 -0.1,-0.5 -0.1,-1 -0.1,-1.5 0,-0.9 -0.1,-1.7 -0.2,-2.4 -0.1,-0.7 -0.3,-1.2 -0.6,-1.6 -0.3,-0.4 -0.7,-0.8 -1.2,-1 -0.5,-0.2 -1.2,-0.3 -2,-0.3 l -5.1,0 0,8.2 -3.5,0 0,-19.9 9.6,0 0,-0.1 z m -0.3,9 c 1.1,0 2,-0.3 2.5,-0.8 0.6,-0.5 0.9,-1.3 0.9,-2.4 0,-0.6 -0.1,-1.1 -0.3,-1.5 -0.2,-0.4 -0.4,-0.7 -0.8,-0.9 -0.3,-0.2 -0.7,-0.4 -1.1,-0.4 -0.4,-0.1 -0.8,-0.1 -1.3,-0.1 l -5.7,0 0,6.2 5.8,0 0,-0.1 z" />
            <path
               style="fill:#ffffff"
               id="XMLID_389_"
               class="st0"
               d="m 481.8,335.3 0,19.9 -3.5,0 0,-19.9 3.5,0 z" />
            <path
               style="fill:#ffffff"
               id="XMLID_387_"
               class="st0"
               d="m 495.8,335.3 9.1,14.7 0.1,0 0,-14.7 3.3,0 0,19.9 -3.7,0 -9.1,-14.6 -0.1,0 0,14.6 -3.3,0 0,-19.9 3.7,0 z" />
            <path
               style="fill:#ffffff"
               id="XMLID_385_"
               class="st0"
               d="m 533.8,355.2 -0.5,-2.3 c -0.9,1.1 -1.9,1.8 -2.8,2.2 -0.9,0.4 -2,0.6 -3.2,0.6 -1.5,0 -2.8,-0.3 -4,-0.8 -1.2,-0.5 -2.2,-1.3 -3,-2.2 -0.8,-0.9 -1.4,-2.1 -1.9,-3.3 -0.4,-1.3 -0.7,-2.6 -0.7,-4 0,-1.4 0.2,-2.7 0.7,-4 0.4,-1.3 1.1,-2.4 1.9,-3.3 0.8,-0.9 1.8,-1.7 3,-2.3 1.2,-0.6 2.5,-0.8 4,-0.8 1.1,0 2.1,0.1 3.1,0.4 1,0.3 1.8,0.7 2.6,1.3 0.8,0.6 1.4,1.3 1.9,2.1 0.5,0.9 0.8,1.8 0.9,3 l -3.4,0 c -0.1,-0.6 -0.3,-1.2 -0.6,-1.7 -0.3,-0.5 -0.7,-0.9 -1.2,-1.2 -0.5,-0.3 -1,-0.6 -1.6,-0.8 -0.6,-0.2 -1.2,-0.3 -1.8,-0.3 -1.1,0 -2,0.2 -2.7,0.6 -0.8,0.4 -1.4,1 -1.9,1.7 -0.5,0.7 -0.8,1.5 -1.1,2.4 -0.2,0.9 -0.3,1.8 -0.3,2.8 0,0.9 0.1,1.9 0.3,2.8 0.2,0.9 0.6,1.7 1.1,2.4 0.5,0.7 1.1,1.3 1.9,1.7 0.8,0.4 1.7,0.6 2.7,0.6 0.9,0 1.7,-0.1 2.4,-0.3 0.7,-0.3 1.3,-0.6 1.7,-1.1 0.5,-0.5 0.8,-1.1 1.1,-1.7 0.3,-0.6 0.4,-1.4 0.4,-2.3 l -5.3,0 0,-2.6 8.5,0 0,10.5 -2.2,0 0,-0.1 z" />
          </g>
        </g>
      </g>
      <g
         id="XMLID_34_">
        <radialGradient
           id="XMLID_2_"
           cx="45.282299"
           cy="281.27631"
           r="43.762699"
           gradientTransform="matrix(1,0,0,-1,0,604)"
           gradientUnits="userSpaceOnUse">
          <stop
             offset="0"
             style="stop-color:#364655"
             id="stop3371" />
          <stop
             offset="0.5271"
             style="stop-color:#363C49"
             id="stop3373" />
          <stop
             offset="1"
             style="stop-color:#2D3243"
             id="stop3375" />
        </radialGradient>
        <circle
           style="fill:url(#XMLID_2_)"
           id="XMLID_101_"
           class="st1"
           cx="45.299999"
           cy="322.70001"
           r="43.799999" />
        <radialGradient
           id="XMLID_3_"
           cx="55.109901"
           cy="311.26971"
           r="9.5180998"
           gradientTransform="matrix(1.0889,0,0,-1.2154,-14.543,690.5181)"
           gradientUnits="userSpaceOnUse">
          <stop
             offset="0"
             style="stop-color:#22D7FF"
             id="stop3379" />
          <stop
             offset="0.9803"
             style="stop-color:#22D7FF;stop-opacity:0"
             id="stop3381" />
        </radialGradient>
        <path
           style="opacity:0.95;fill:url(#XMLID_3_);enable-background:new"
           id="XMLID_99_"
           class="st2"
           d="m 45.5,300.4 c 5.6,0 10.1,5.3 10.1,11.9 0,6.6 -4.5,11.9 -10.1,11.9 -5.6,0 -10.1,-5.3 -10.1,-11.9 0,-6.7 4.5,-11.9 10.1,-11.9 z" />
        <g
           id="XMLID_82_">
          <g
             id="g3385">
            <defs
               id="defs3387">
              <circle
                 id="SVGID_1_"
                 cx="45.299999"
                 cy="310.29999"
                 r="66.300003" />
            </defs>
            <clipPath
               id="SVGID_2_">
              <use
                 height="100%"
                 width="100%"
                 y="0"
                 x="0"
                 xlink:href="#SVGID_1_"
                 style="overflow:visible"
                 id="use3391" />
            </clipPath>
            <linearGradient
               id="XMLID_4_"
               gradientUnits="userSpaceOnUse"
               x1="12.124"
               y1="227.2173"
               x2="22.944201"
               y2="315.34091"
               gradientTransform="matrix(1,0,0,-1,0,604)">
              <stop
                 offset="0.1084"
                 style="stop-color:#137482"
                 id="stop3394" />
              <stop
                 offset="0.2069"
                 style="stop-color:#198490"
                 id="stop3396" />
              <stop
                 offset="0.7783"
                 style="stop-color:#5ACFD0"
                 id="stop3398" />
            </linearGradient>
            <path
               style="fill:url(#XMLID_4_)"
               id="XMLID_97_"
               class="st3"
               d="m -19.4,283.5 c 0,0 37,36.9 42.3,42.2 5.1,5.1 10.3,11 21.5,11.3 9.9,0.2 17.6,-6.3 17.6,-6.3 l -46.9,46.5 c 0.1,0 -54.1,-18.7 -34.5,-93.7 z"
               clip-path="url(#SVGID_2_)" />
          </g>
          <g
             id="g3401">
            <defs
               id="defs3403">
              <circle
                 id="SVGID_3_"
                 cx="45.299999"
                 cy="310.29999"
                 r="66.300003" />
            </defs>
            <clipPath
               id="SVGID_4_">
              <use
                 height="100%"
                 width="100%"
                 y="0"
                 x="0"
                 xlink:href="#SVGID_3_"
                 style="overflow:visible"
                 id="use3407" />
            </clipPath>
            <linearGradient
               id="XMLID_5_"
               gradientUnits="userSpaceOnUse"
               x1="63.451801"
               y1="221.9946"
               x2="64.7136"
               y2="294.2778"
               gradientTransform="matrix(1,0,0,-1,0,604)">
              <stop
                 offset="9.852216e-002"
                 style="stop-color:#157986"
                 id="stop3410" />
              <stop
                 offset="0.6552"
                 style="stop-color:#3AB3B7"
                 id="stop3412" />
            </linearGradient>
            <path
               style="fill:url(#XMLID_5_)"
               id="XMLID_95_"
               class="st4"
               d="m 20,372.2 62.7,-62.2 25.2,25.2 c 0,-0.1 -12.2,72.3 -87.9,37 z"
               clip-path="url(#SVGID_4_)" />
          </g>
          <g
             id="g3415">
            <defs
               id="defs3417">
              <circle
                 id="SVGID_5_"
                 cx="45.299999"
                 cy="310.29999"
                 r="66.300003" />
            </defs>
            <clipPath
               id="SVGID_6_">
              <use
                 height="100%"
                 width="100%"
                 y="0"
                 x="0"
                 xlink:href="#SVGID_5_"
                 style="overflow:visible"
                 id="use3421" />
            </clipPath>
            <linearGradient
               id="XMLID_6_"
               gradientUnits="userSpaceOnUse"
               x1="50.844501"
               y1="218.3632"
               x2="84.319702"
               y2="293.5499"
               gradientTransform="matrix(1,0,0,-1,0,604)">
              <stop
                 offset="0.6256"
                 style="stop-color:#3D9FA3;stop-opacity:0"
                 id="stop3424" />
              <stop
                 offset="0.931"
                 style="stop-color:#1D5E65"
                 id="stop3426" />
            </linearGradient>
            <path
               style="fill:url(#XMLID_6_)"
               id="XMLID_93_"
               class="st5"
               d="M 20.3,372 83,309.9 108.2,335.1 C 108.2,335 96,407.3 20.3,372 Z"
               clip-path="url(#SVGID_6_)" />
          </g>
          <g
             id="g3429">
            <defs
               id="defs3431">
              <circle
                 id="SVGID_7_"
                 cx="45.299999"
                 cy="310.29999"
                 r="66.300003" />
            </defs>
            <clipPath
               id="SVGID_8_">
              <use
                 height="100%"
                 width="100%"
                 y="0"
                 x="0"
                 xlink:href="#SVGID_7_"
                 style="overflow:visible"
                 id="use3435" />
            </clipPath>
            <linearGradient
               id="XMLID_7_"
               gradientUnits="userSpaceOnUse"
               x1="52.538601"
               y1="348.9928"
               x2="98.6539"
               y2="262.26251"
               gradientTransform="matrix(1,0,0,-1,0,604)">
              <stop
                 offset="0"
                 style="stop-color:#4CC0C2"
                 id="stop3438" />
              <stop
                 offset="0.266"
                 style="stop-color:#42BBBE"
                 id="stop3440" />
              <stop
                 offset="0.5172"
                 style="stop-color:#2EA7AD"
                 id="stop3442" />
              <stop
                 offset="0.7635"
                 style="stop-color:#197F8A"
                 id="stop3444" />
              <stop
                 offset="0.8571"
                 style="stop-color:#136E84"
                 id="stop3446" />
              <stop
                 offset="0.9261"
                 style="stop-color:#116676"
                 id="stop3448" />
            </linearGradient>
            <path
               style="fill:url(#XMLID_7_)"
               id="XMLID_91_"
               class="st6"
               d="m 109,336.2 c 0,0 -37.1,-35.6 -42.2,-41 -4.8,-5 -9.8,-11 -22.1,-11.5 -9.9,-0.4 -17.6,6.3 -17.6,6.3 L 74,243.5 c 0,0.1 54.7,17.7 35,92.7 z"
               clip-path="url(#SVGID_8_)" />
          </g>
          <g
             id="g3451">
            <defs
               id="defs3453">
              <circle
                 id="SVGID_9_"
                 cx="45.299999"
                 cy="310.29999"
                 r="66.300003" />
            </defs>
            <clipPath
               id="SVGID_10_">
              <use
                 height="100%"
                 width="100%"
                 y="0"
                 x="0"
                 xlink:href="#SVGID_9_"
                 style="overflow:visible"
                 id="use3457" />
            </clipPath>
            <linearGradient
               id="XMLID_8_"
               gradientUnits="userSpaceOnUse"
               x1="12.8849"
               y1="292.2648"
               x2="34.4869"
               y2="367.59979"
               gradientTransform="matrix(1,0,0,-1,0,604)">
              <stop
                 offset="7.389162e-002"
                 style="stop-color:#17525D"
                 id="stop3460" />
              <stop
                 offset="0.4532"
                 style="stop-color:#22929B"
                 id="stop3462" />
              <stop
                 offset="0.8522"
                 style="stop-color:#44BCBE"
                 id="stop3464" />
              <stop
                 offset="0.9557"
                 style="stop-color:#54CACC"
                 id="stop3466" />
            </linearGradient>
            <path
               style="fill:url(#XMLID_8_)"
               id="XMLID_89_"
               class="st7"
               d="M 69.7,248.3 7.3,310.3 -17.9,285 c 0.1,-0.1 12,-72.1 87.6,-36.7 z"
               clip-path="url(#SVGID_10_)" />
          </g>
          <g
             id="g3469">
            <defs
               id="defs3471">
              <circle
                 id="SVGID_11_"
                 cx="45.299999"
                 cy="310.29999"
                 r="66.300003" />
            </defs>
            <clipPath
               id="SVGID_12_">
              <use
                 height="100%"
                 width="100%"
                 y="0"
                 x="0"
                 xlink:href="#SVGID_11_"
                 style="overflow:visible"
                 id="use3475" />
            </clipPath>
            <linearGradient
               id="XMLID_9_"
               gradientUnits="userSpaceOnUse"
               x1="123.7256"
               y1="290.25949"
               x2="45.090801"
               y2="341.32571"
               gradientTransform="matrix(1,0,0,-1,0,604)">
              <stop
                 offset="0.803"
                 style="stop-color:#3BAAAE;stop-opacity:0"
                 id="stop3478" />
              <stop
                 offset="0.9655"
                 style="stop-color:#1D646A"
                 id="stop3480" />
            </linearGradient>
            <path
               style="fill:url(#XMLID_9_)"
               id="XMLID_87_"
               class="st8"
               d="m 109,336.4 c 0,0 -37.1,-35.6 -42.2,-41 -4.8,-5 -9.8,-11 -22.1,-11.5 -9.9,-0.4 -17.6,6.3 -17.6,6.3 L 74,243.7 c 0.1,0 54.8,17.7 35,92.7 z"
               clip-path="url(#SVGID_12_)" />
          </g>
          <g
             id="g3483">
            <defs
               id="defs3485">
              <circle
                 id="SVGID_13_"
                 cx="45.299999"
                 cy="310.29999"
                 r="66.300003" />
            </defs>
            <clipPath
               id="SVGID_14_">
              <use
                 height="100%"
                 width="100%"
                 y="0"
                 x="0"
                 xlink:href="#SVGID_13_"
                 style="overflow:visible"
                 id="use3489" />
            </clipPath>
            <linearGradient
               id="XMLID_10_"
               gradientUnits="userSpaceOnUse"
               x1="-31.068001"
               y1="306.67929"
               x2="39.903198"
               y2="247.1273"
               gradientTransform="matrix(1,0,0,-1,0,604)">
              <stop
                 offset="0.6256"
                 style="stop-color:#1E868F;stop-opacity:0"
                 id="stop3492" />
              <stop
                 offset="0.9261"
                 style="stop-color:#18585F"
                 id="stop3494" />
            </linearGradient>
            <path
               style="fill:url(#XMLID_10_)"
               id="XMLID_85_"
               class="st9"
               d="m -19.4,283.5 c 0,0 37,36.9 42.3,42.2 5.1,5.1 10.3,11 21.5,11.3 9.9,0.2 17.6,-6.3 17.6,-6.3 l -47,46.5 c 0.1,-0.1 -54.1,-18.7 -34.4,-93.7 z"
               clip-path="url(#SVGID_14_)" />
          </g>
        </g>
        <radialGradient
           id="XMLID_11_"
           cx="45.355099"
           cy="301.56549"
           r="8.3813"
           gradientTransform="matrix(1,0,0,-1.0907,0,640.1489)"
           gradientUnits="userSpaceOnUse">
          <stop
             offset="0.3251"
             style="stop-color:#69C9CA"
             id="stop3498" />
          <stop
             offset="0.9261"
             style="stop-color:#0BFBFC;stop-opacity:2.805595e-002"
             id="stop3500" />
          <stop
             offset="1"
             style="stop-color:#05FEFF;stop-opacity:0"
             id="stop3502" />
        </radialGradient>
        <path
           style="opacity:0.8;fill:url(#XMLID_11_);enable-background:new"
           id="XMLID_80_"
           class="st10"
           d="m 45.4,301.9 c 4.5,0 8.2,4.2 8.2,9.4 0,5.1 -3.7,9.4 -8.2,9.4 -4.5,0 -8.2,-4.2 -8.2,-9.4 0,-5.2 3.7,-9.4 8.2,-9.4 z" />
        <radialGradient
           id="XMLID_12_"
           cx="45.282299"
           cy="293.4122"
           r="7.1963"
           gradientTransform="matrix(1,0,0,-1,0,604)"
           gradientUnits="userSpaceOnUse">
          <stop
             offset="0.6847"
             style="stop-color:#69C9CA"
             id="stop3506" />
          <stop
             offset="0.7602"
             style="stop-color:#4AD9DA;stop-opacity:0.6995"
             id="stop3508" />
          <stop
             offset="0.936"
             style="stop-color:#05FEFF;stop-opacity:0"
             id="stop3510" />
        </radialGradient>
        <path
           style="fill:url(#XMLID_12_)"
           id="XMLID_46_"
           class="st11"
           d="m 45.3,303.2 c 3.9,0 7,3.3 7,7.4 0,4.1 -3.1,7.4 -7,7.4 -3.9,0 -7,-3.3 -7,-7.4 0,-4.1 3.1,-7.4 7,-7.4 z" />
        <path
           style="fill:#ffffff"
           id="XMLID_35_"
           class="st0"
           d="m 45.3,305.3 c 2.8,0 5,2.2 5,5 0,2.8 -2.2,5 -5,5 -2.8,0 -5,-2.2 -5,-5 0,-2.7 2.2,-5 5,-5 z" />
      </g>
      <linearGradient
         id="SVGID_15_"
         gradientUnits="userSpaceOnUse"
         x1="20.024599"
         y1="218.8631"
         x2="28.3571"
         y2="278.1524">
        <stop
           offset="0"
           style="stop-color:#E83710"
           id="stop3515" />
        <stop
           offset="0.5911"
           style="stop-color:#A91E31"
           id="stop3517" />
        <stop
           offset="0.654"
           style="stop-color:#A41C31"
           id="stop3519" />
        <stop
           offset="0.7278"
           style="stop-color:#961830"
           id="stop3521" />
        <stop
           offset="0.8066"
           style="stop-color:#7E102E"
           id="stop3523" />
        <stop
           offset="0.8818"
           style="stop-color:#61072C"
           id="stop3525" />
      </linearGradient>
      <path
         style="fill:url(#SVGID_15_)"
         class="st12"
         d="M 103.8,267.6 C 83.2,180.3 -21.5,230.7 -34.5,238.9 c -9.7,6.1 -17.9,11.5 -17.9,11.5 0,0 41.1,-10.3 39.1,17.5 l 117.1,-0.3 0,0 z"
         id="path3527" />
      <linearGradient
         id="SVGID_16_"
         gradientUnits="userSpaceOnUse"
         x1="44.696499"
         y1="261.27811"
         x2="44.696499"
         y2="289.004">
        <stop
           offset="0"
           style="stop-color:#FFFFFF"
           id="stop3530" />
        <stop
           offset="1"
           style="stop-color:#DBDBDB"
           id="stop3532" />
      </linearGradient>
      <path
         style="fill:url(#SVGID_16_)"
         class="st13"
         d="m 101.3,288.4 c 0,0 -29.7,-4 -56.7,-4 -27,0 -55.1,4 -55.1,4 -8,1 -8.4,1.8 -8.5,-8.5 l -0.7,-6.9 c 0,-4.7 3.8,-8.5 8.5,-8.5 0,0 21.5,-3.3 52,-3.3 30.5,0 59.8,3.3 59.8,3.3 4.7,0 8.5,3.8 8.5,8.5 l -0.3,11.5 c 0,4.7 0.1,5.1 -7.5,3.9 z"
         id="path3534" />
      <linearGradient
         id="SVGID_17_"
         gradientUnits="userSpaceOnUse"
         x1="-55.658199"
         y1="246.04221"
         x2="-32.258099"
         y2="246.04221">
        <stop
           offset="0"
           style="stop-color:#FFFFFF"
           id="stop3537" />
        <stop
           offset="1"
           style="stop-color:#DBDBDB"
           id="stop3539" />
      </linearGradient>
      <circle
         style="fill:url(#SVGID_17_)"
         class="st14"
         cx="-44"
         cy="246"
         r="11.7"
         id="circle3541" />
    </g>
  </g>
  <style
     type="text/css"
     id="style3337">
	.st0{fill:#FFFFFF;}
	.st1{fill:url(#XMLID_2_);}
	.st2{opacity:0.95;fill:url(#XMLID_3_);enable-background:new    ;}
	.st3{clip-path:url(#SVGID_2_);fill:url(#XMLID_4_);}
	.st4{clip-path:url(#SVGID_4_);fill:url(#XMLID_5_);}
	.st5{clip-path:url(#SVGID_6_);fill:url(#XMLID_6_);}
	.st6{clip-path:url(#SVGID_8_);fill:url(#XMLID_7_);}
	.st7{clip-path:url(#SVGID_10_);fill:url(#XMLID_8_);}
	.st8{clip-path:url(#SVGID_12_);fill:url(#XMLID_9_);}
	.st9{clip-path:url(#SVGID_14_);fill:url(#XMLID_10_);}
	.st10{opacity:0.8;fill:url(#XMLID_11_);enable-background:new    ;}
	.st11{fill:url(#XMLID_12_);}
	.st12{fill:url(#SVGID_15_);}
	.st13{fill:url(#SVGID_16_);}
	.st14{fill:url(#SVGID_17_);}
</style>
</svg>
