<svg xmlns="http://www.w3.org/2000/svg" xmlns:xlink="http://www.w3.org/1999/xlink" id="svg2" viewBox="0 0 592.99998 159.59616" height="170.236" width="632.533"><g transform="translate(1079.357 -121.136)" id="layer1"><g transform="translate(-1023.657 -95.868)" id="g3339"><g id="g3341"><g id="XMLID_145_"><path id="XMLID_146_" class="st0" d="M144.8 247h28.3c3.9 0 7.3.6 10 1.7 2.8 1.1 5 2.7 6.7 4.5 1.7 1.9 3 4 3.8 6.4.8 2.4 1.2 4.9 1.2 7.5 0 2.5-.4 5-1.2 7.4-.8 2.4-2.1 4.6-3.8 6.5-1.7 1.9-4 3.4-6.7 4.5-2.8 1.1-6.1 1.7-10 1.7h-14.5v22.5h-13.8V247zm13.8 29.5h10.7c1.6 0 3.1-.1 4.6-.4 1.5-.2 2.8-.7 3.9-1.4s2-1.6 2.7-2.9c.7-1.2 1-2.8 1-4.8s-.3-3.6-1-4.8c-.7-1.2-1.6-2.2-2.7-2.9-1.1-.7-2.4-1.1-3.9-1.4-1.5-.2-3-.4-4.6-.4h-10.7v19z" fill="#fff"/><path id="XMLID_149_" class="st0" d="M265.6 286c0 8.5-2.4 14.8-7.1 19-4.8 4.1-11.3 6.2-19.7 6.2-8.5 0-15.1-2.1-19.8-6.2-4.7-4.1-7-10.4-7-19v-39h13.8v39c0 1.7.1 3.4.4 5 .3 1.6.9 3.1 1.8 4.4.9 1.3 2.2 2.3 3.9 3.1 1.7.8 3.9 1.2 6.7 1.2 4.9 0 8.3-1.1 10.2-3.3 1.9-2.2 2.8-5.6 2.8-10.3V247h13.8v39h.2z" fill="#fff"/><path id="XMLID_151_" class="st0" d="M288 247h19.4l14.7 43.2h.2l13.9-43.2h19.4v62.8h-12.9v-44.5h-.2l-15.4 44.5h-10.6l-15.4-44.1h-.1v44.1h-13V247z" fill="#fff"/><path id="XMLID_153_" class="st0" d="M378.4 247h28.3c3.9 0 7.3.6 10 1.7 2.8 1.1 5 2.7 6.7 4.5 1.7 1.9 3 4 3.8 6.4.8 2.4 1.2 4.9 1.2 7.5 0 2.5-.4 5-1.2 7.4-.8 2.4-2.1 4.6-3.8 6.5-1.7 1.9-4 3.4-6.7 4.5-2.8 1.1-6.1 1.7-10 1.7h-14.5v22.5h-13.8V247zm13.8 29.5h10.7c1.6 0 3.1-.1 4.6-.4 1.5-.2 2.8-.7 3.9-1.4s2-1.6 2.7-2.9c.7-1.2 1-2.8 1-4.8s-.3-3.6-1-4.8c-.7-1.2-1.6-2.2-2.7-2.9-1.1-.7-2.4-1.1-3.9-1.4-1.5-.2-3-.4-4.6-.4h-10.7v19z" fill="#fff"/><path id="XMLID_156_" class="st0" d="M446.8 247h13.8v62.8h-13.8V247z" fill="#fff"/><path id="XMLID_158_" class="st0" d="M523.4 268.1c-.2-1.6-.8-3-1.6-4.4-.8-1.3-1.8-2.5-3.1-3.5-1.2-1-2.6-1.8-4.2-2.3-1.6-.5-3.2-.8-4.9-.8-3.1 0-5.7.6-7.9 1.8-2.2 1.2-3.9 2.8-5.3 4.8-1.3 2-2.3 4.3-2.9 6.9-.6 2.6-.9 5.2-.9 8 0 2.6.3 5.2.9 7.7.6 2.5 1.6 4.7 2.9 6.7 1.3 2 3.1 3.6 5.3 4.8 2.2 1.2 4.8 1.8 7.9 1.8 4.2 0 7.5-1.3 9.9-3.9 2.4-2.6 3.8-6 4.4-10.2h13.4c-.4 3.9-1.3 7.5-2.7 10.6-1.5 3.2-3.4 5.9-5.8 8.1-2.4 2.2-5.2 3.9-8.4 5.1-3.2 1.2-6.8 1.8-10.6 1.8-4.8 0-9.1-.8-13-2.5-3.8-1.7-7.1-4-9.7-6.9-2.6-2.9-4.7-6.4-6.1-10.3-1.4-4-2.1-8.2-2.1-12.8 0-4.7.7-9 2.1-13.1 1.4-4 3.4-7.5 6.1-10.5 2.6-3 5.9-5.3 9.7-7 3.8-1.7 8.2-2.6 13-2.6 3.5 0 6.7.5 9.8 1.5 3.1 1 5.8 2.4 8.3 4.4 2.4 1.9 4.4 4.3 6 7.1 1.6 2.8 2.6 6 3 9.7h-13.5z" fill="#fff"/></g><g id="XMLID_103_"><g id="g3351"><path id="XMLID_421_" class="st0" d="M149.6 335.3l5.5 15.6h.1l5.3-15.6h4.8v19.9H162v-15.4l-5.5 15.4h-2.9l-5.5-15.4h-.1v15.4h-3.3v-19.9h4.9z" fill="#fff"/><path id="XMLID_418_" class="st0" d="M188.3 335.6c1.2.6 2.2 1.3 3 2.3.8.9 1.4 2.1 1.9 3.3.4 1.3.7 2.6.7 4s-.2 2.8-.7 4c-.4 1.3-1.1 2.4-1.9 3.3-.8.9-1.8 1.7-3 2.2-1.2.5-2.5.8-4 .8s-2.8-.3-4-.8c-1.2-.5-2.2-1.3-3-2.2-.8-.9-1.4-2.1-1.9-3.3-.4-1.3-.7-2.6-.7-4s.2-2.7.7-4c.4-1.3 1.1-2.4 1.9-3.3.8-.9 1.8-1.7 3-2.3 1.2-.6 2.5-.8 4-.8s2.8.3 4 .8zm-6.7 2.7c-.8.4-1.4 1-1.9 1.7s-.8 1.5-1.1 2.4c-.2.9-.3 1.8-.3 2.8 0 .9.1 1.9.3 2.8.2.9.6 1.7 1.1 2.4.5.7 1.1 1.3 1.9 1.7.8.4 1.7.6 2.7.6 1.1 0 2-.2 2.7-.6.8-.4 1.4-1 1.9-1.7s.8-1.5 1.1-2.4c.2-.9.3-1.8.3-2.8 0-.9-.1-1.9-.3-2.8-.2-.9-.6-1.7-1.1-2.4-.5-.7-1.1-1.3-1.9-1.7-.8-.4-1.7-.6-2.7-.6-1.1-.1-2 .2-2.7.6z" fill="#fff"/><path id="XMLID_414_" class="st0" d="M212.9 335.3c1.8 0 3.2.4 4.3 1.2 1.1.8 1.6 2.1 1.6 3.7 0 1-.2 1.9-.7 2.6-.5.7-1.2 1.3-2.1 1.7v.1c1.2.3 2.2.8 2.8 1.7.6.9.9 2 .9 3.4 0 .8-.1 1.5-.4 2.2-.3.7-.7 1.3-1.3 1.8-.6.5-1.4.9-2.3 1.2-.9.3-2 .4-3.3.4h-9.1v-19.9h9.6v-.1zm-.5 8.3c.8 0 1.5-.2 2.1-.7.6-.5.8-1.2.8-2 0-1-.2-1.7-.8-2.1-.5-.4-1.2-.6-2.2-.6h-5.7v5.5l5.8-.1zm.5 8.7c1.1 0 1.9-.3 2.5-.8.6-.5.9-1.3.9-2.3 0-1-.3-1.7-.9-2.3-.6-.5-1.4-.8-2.5-.8h-6.2v6.2h6.2z" fill="#fff"/><path id="XMLID_412_" class="st0" d="M232.6 335.3v19.9h-3.5v-19.9h3.5z" fill="#fff"/><path id="XMLID_410_" class="st0" d="M246.7 335.3v16.9h10.1v3h-13.6v-19.9h3.5z" fill="#fff"/><path id="XMLID_408_" class="st0" d="M279.8 335.3v3H269v5.2h10v2.8h-10v5.8h11v3h-14.5v-19.9h14.3v.1z" fill="#fff"/><path id="XMLID_406_" class="st0" d="M308.1 335.3l5.5 15.6h.1l5.3-15.6h4.8v19.9h-3.3v-15.4h-.1l-5.5 15.4H312l-5.5-15.4h-.1v15.4h-3.3v-19.9h5z" fill="#fff"/><path id="XMLID_403_" class="st0" d="M346.8 335.6c1.2.6 2.2 1.3 3 2.3.8.9 1.4 2.1 1.9 3.3.4 1.3.7 2.6.7 4s-.2 2.8-.7 4c-.4 1.3-1.1 2.4-1.9 3.3-.8.9-1.8 1.7-3 2.2-1.2.5-2.5.8-4 .8s-2.8-.3-4-.8c-1.2-.5-2.2-1.3-3-2.2-.8-.9-1.4-2.1-1.9-3.3-.4-1.3-.7-2.6-.7-4s.2-2.7.7-4c.4-1.3 1.1-2.4 1.9-3.3.8-.9 1.8-1.7 3-2.3 1.2-.6 2.5-.8 4-.8s2.8.3 4 .8zm-6.8 2.7c-.8.4-1.4 1-1.9 1.7s-.8 1.5-1.1 2.4c-.2.9-.3 1.8-.3 2.8 0 .9.1 1.9.3 2.8.2.9.6 1.7 1.1 2.4.5.7 1.1 1.3 1.9 1.7.8.4 1.7.6 2.7.6 1.1 0 2-.2 2.7-.6.8-.4 1.4-1 1.9-1.7s.8-1.5 1.1-2.4c.2-.9.3-1.8.3-2.8 0-.9-.1-1.9-.3-2.8-.2-.9-.6-1.7-1.1-2.4-.5-.7-1.1-1.3-1.9-1.7-.8-.4-1.7-.6-2.7-.6-1-.1-1.9.2-2.7.6z" fill="#fff"/><path id="XMLID_401_" class="st0" d="M365.3 335.3l9.1 14.7h.1v-14.7h3.3v19.9h-3.7l-9.1-14.6h-.1v14.6h-3.3v-19.9h3.7z" fill="#fff"/><path id="XMLID_399_" class="st0" d="M391.6 335.3v19.9h-3.5v-19.9h3.5z" fill="#fff"/><path id="XMLID_397_" class="st0" d="M416.4 335.3v3h-6.3v16.9h-3.5v-16.9h-6.3v-3h16.1z" fill="#fff"/><path id="XMLID_394_" class="st0" d="M437.4 335.6c1.2.6 2.2 1.3 3 2.3.8.9 1.4 2.1 1.9 3.3.4 1.3.7 2.6.7 4s-.2 2.8-.7 4c-.4 1.3-1.1 2.4-1.9 3.3-.8.9-1.8 1.7-3 2.2-1.2.5-2.5.8-4 .8s-2.8-.3-4-.8c-1.2-.5-2.2-1.3-3-2.2-.8-.9-1.4-2.1-1.9-3.3-.4-1.3-.7-2.6-.7-4s.2-2.7.7-4c.4-1.3 1.1-2.4 1.9-3.3.8-.9 1.8-1.7 3-2.3 1.2-.6 2.5-.8 4-.8s2.8.3 4 .8zm-6.7 2.7c-.8.4-1.4 1-1.9 1.7s-.8 1.5-1.1 2.4c-.2.9-.3 1.8-.3 2.8 0 .9.1 1.9.3 2.8.2.9.6 1.7 1.1 2.4.5.7 1.1 1.3 1.9 1.7.8.4 1.7.6 2.7.6 1.1 0 2-.2 2.7-.6.8-.4 1.4-1 1.9-1.7s.8-1.5 1.1-2.4c.2-.9.3-1.8.3-2.8 0-.9-.1-1.9-.3-2.8-.2-.9-.6-1.7-1.1-2.4-.5-.7-1.1-1.3-1.9-1.7-.8-.4-1.7-.6-2.7-.6-1-.1-1.9.2-2.7.6z" fill="#fff"/><path id="XMLID_391_" class="st0" d="M461.9 335.3c2.2 0 3.8.5 4.9 1.4 1.1.9 1.6 2.3 1.6 4 0 .9-.1 1.7-.4 2.4-.3.6-.6 1.1-1 1.5-.4.4-.7.7-1.1.8-.4.2-.6.3-.8.3v.1c.3 0 .6.1 1 .3.3.1.7.4 1 .7.3.3.5.7.7 1.3.2.5.3 1.2.3 2 0 1.2.1 2.2.3 3.2.2 1 .4 1.6.8 2h-3.7c-.3-.4-.4-.9-.5-1.4-.1-.5-.1-1-.1-1.5 0-.9-.1-1.7-.2-2.4s-.3-1.2-.6-1.6c-.3-.4-.7-.8-1.2-1-.5-.2-1.2-.3-2-.3h-5.1v8.2h-3.5v-19.9h9.6v-.1zm-.3 9c1.1 0 2-.3 2.5-.8.6-.5.9-1.3.9-2.4 0-.6-.1-1.1-.3-1.5-.2-.4-.4-.7-.8-.9-.3-.2-.7-.4-1.1-.4-.4-.1-.8-.1-1.3-.1h-5.7v6.2h5.8v-.1z" fill="#fff"/><path id="XMLID_389_" class="st0" d="M481.8 335.3v19.9h-3.5v-19.9h3.5z" fill="#fff"/><path id="XMLID_387_" class="st0" d="M495.8 335.3l9.1 14.7h.1v-14.7h3.3v19.9h-3.7l-9.1-14.6h-.1v14.6h-3.3v-19.9h3.7z" fill="#fff"/><path id="XMLID_385_" class="st0" d="M533.8 355.2l-.5-2.3c-.9 1.1-1.9 1.8-2.8 2.2-.9.4-2 .6-3.2.6-1.5 0-2.8-.3-4-.8-1.2-.5-2.2-1.3-3-2.2-.8-.9-1.4-2.1-1.9-3.3-.4-1.3-.7-2.6-.7-4s.2-2.7.7-4c.4-1.3 1.1-2.4 1.9-3.3.8-.9 1.8-1.7 3-2.3 1.2-.6 2.5-.8 4-.8 1.1 0 2.1.1 3.1.4 1 .3 1.8.7 2.6 1.3.8.6 1.4 1.3 1.9 2.1.5.9.8 1.8.9 3h-3.4c-.1-.6-.3-1.2-.6-1.7s-.7-.9-1.2-1.2c-.5-.3-1-.6-1.6-.8-.6-.2-1.2-.3-1.8-.3-1.1 0-2 .2-2.7.6-.8.4-1.4 1-1.9 1.7s-.8 1.5-1.1 2.4c-.2.9-.3 1.8-.3 2.8 0 .9.1 1.9.3 2.8.2.9.6 1.7 1.1 2.4.5.7 1.1 1.3 1.9 1.7.8.4 1.7.6 2.7.6.9 0 1.7-.1 2.4-.3.7-.3 1.3-.6 1.7-1.1.5-.5.8-1.1 1.1-1.7.3-.6.4-1.4.4-2.3h-5.3v-2.6h8.5v10.5h-2.2v-.1z" fill="#fff"/></g></g></g><g id="XMLID_34_"><radialGradient id="XMLID_2_" cx="45.282" cy="281.276" r="43.763" gradientTransform="matrix(1 0 0 -1 0 604)" gradientUnits="userSpaceOnUse"><stop offset="0" id="stop3371" stop-color="#364655"/><stop offset=".527" id="stop3373" stop-color="#363c49"/><stop offset="1" id="stop3375" stop-color="#2d3243"/></radialGradient><circle id="XMLID_101_" class="st1" cx="45.3" cy="322.7" r="43.8" fill="url(#XMLID_2_)"/><radialGradient id="XMLID_3_" cx="55.11" cy="311.27" r="9.518" gradientTransform="matrix(1.0889 0 0 -1.2154 -14.543 690.518)" gradientUnits="userSpaceOnUse"><stop offset="0" id="stop3379" stop-color="#22d7ff"/><stop offset=".98" id="stop3381" stop-color="#22d7ff" stop-opacity="0"/></radialGradient><path id="XMLID_99_" class="st2" d="M45.5 300.4c5.6 0 10.1 5.3 10.1 11.9 0 6.6-4.5 11.9-10.1 11.9s-10.1-5.3-10.1-11.9c0-6.7 4.5-11.9 10.1-11.9z" opacity=".95" fill="url(#XMLID_3_)"/><g id="XMLID_82_"><g id="g3385"><defs id="defs3387"><circle id="SVGID_1_" cx="45.3" cy="310.3" r="66.3"/></defs><clipPath id="SVGID_2_"><use height="100%" width="100%" xlink:href="#SVGID_1_" id="use3391" overflow="visible"/></clipPath><linearGradient id="XMLID_4_" gradientUnits="userSpaceOnUse" x1="12.124" y1="227.217" x2="22.944" y2="315.341" gradientTransform="matrix(1 0 0 -1 0 604)"><stop offset=".108" id="stop3394" stop-color="#137482"/><stop offset=".207" id="stop3396" stop-color="#198490"/><stop offset=".778" id="stop3398" stop-color="#5acfd0"/></linearGradient><path id="XMLID_97_" class="st3" d="M-19.4 283.5s37 36.9 42.3 42.2c5.1 5.1 10.3 11 21.5 11.3 9.9.2 17.6-6.3 17.6-6.3l-46.9 46.5c.1 0-54.1-18.7-34.5-93.7z" clip-path="url(#SVGID_2_)" fill="url(#XMLID_4_)"/></g><g id="g3401"><defs id="defs3403"><circle id="SVGID_3_" cx="45.3" cy="310.3" r="66.3"/></defs><clipPath id="SVGID_4_"><use height="100%" width="100%" xlink:href="#SVGID_3_" id="use3407" overflow="visible"/></clipPath><linearGradient id="XMLID_5_" gradientUnits="userSpaceOnUse" x1="63.452" y1="221.995" x2="64.714" y2="294.278" gradientTransform="matrix(1 0 0 -1 0 604)"><stop offset=".099" id="stop3410" stop-color="#157986"/><stop offset=".655" id="stop3412" stop-color="#3ab3b7"/></linearGradient><path id="XMLID_95_" class="st4" d="M20 372.2L82.7 310l25.2 25.2c0-.1-12.2 72.3-87.9 37z" clip-path="url(#SVGID_4_)" fill="url(#XMLID_5_)"/></g><g id="g3415"><defs id="defs3417"><circle id="SVGID_5_" cx="45.3" cy="310.3" r="66.3"/></defs><clipPath id="SVGID_6_"><use height="100%" width="100%" xlink:href="#SVGID_5_" id="use3421" overflow="visible"/></clipPath><linearGradient id="XMLID_6_" gradientUnits="userSpaceOnUse" x1="50.845" y1="218.363" x2="84.32" y2="293.55" gradientTransform="matrix(1 0 0 -1 0 604)"><stop offset=".626" id="stop3424" stop-color="#3d9fa3" stop-opacity="0"/><stop offset=".931" id="stop3426" stop-color="#1d5e65"/></linearGradient><path id="XMLID_93_" class="st5" d="M20.3 372L83 309.9l25.2 25.2c0-.1-12.2 72.2-87.9 36.9z" clip-path="url(#SVGID_6_)" fill="url(#XMLID_6_)"/></g><g id="g3429"><defs id="defs3431"><circle id="SVGID_7_" cx="45.3" cy="310.3" r="66.3"/></defs><clipPath id="SVGID_8_"><use height="100%" width="100%" xlink:href="#SVGID_7_" id="use3435" overflow="visible"/></clipPath><linearGradient id="XMLID_7_" gradientUnits="userSpaceOnUse" x1="52.539" y1="348.993" x2="98.654" y2="262.263" gradientTransform="matrix(1 0 0 -1 0 604)"><stop offset="0" id="stop3438" stop-color="#4cc0c2"/><stop offset=".266" id="stop3440" stop-color="#42bbbe"/><stop offset=".517" id="stop3442" stop-color="#2ea7ad"/><stop offset=".763" id="stop3444" stop-color="#197f8a"/><stop offset=".857" id="stop3446" stop-color="#136e84"/><stop offset=".926" id="stop3448" stop-color="#116676"/></linearGradient><path id="XMLID_91_" class="st6" d="M109 336.2s-37.1-35.6-42.2-41c-4.8-5-9.8-11-22.1-11.5-9.9-.4-17.6 6.3-17.6 6.3L74 243.5c0 .1 54.7 17.7 35 92.7z" clip-path="url(#SVGID_8_)" fill="url(#XMLID_7_)"/></g><g id="g3451"><defs id="defs3453"><circle id="SVGID_9_" cx="45.3" cy="310.3" r="66.3"/></defs><clipPath id="SVGID_10_"><use height="100%" width="100%" xlink:href="#SVGID_9_" id="use3457" overflow="visible"/></clipPath><linearGradient id="XMLID_8_" gradientUnits="userSpaceOnUse" x1="12.885" y1="292.265" x2="34.487" y2="367.6" gradientTransform="matrix(1 0 0 -1 0 604)"><stop offset=".074" id="stop3460" stop-color="#17525d"/><stop offset=".453" id="stop3462" stop-color="#22929b"/><stop offset=".852" id="stop3464" stop-color="#44bcbe"/><stop offset=".956" id="stop3466" stop-color="#54cacc"/></linearGradient><path id="XMLID_89_" class="st7" d="M69.7 248.3l-62.4 62-25.2-25.3c.1-.1 12-72.1 87.6-36.7z" clip-path="url(#SVGID_10_)" fill="url(#XMLID_8_)"/></g><g id="g3469"><defs id="defs3471"><circle id="SVGID_11_" cx="45.3" cy="310.3" r="66.3"/></defs><clipPath id="SVGID_12_"><use height="100%" width="100%" xlink:href="#SVGID_11_" id="use3475" overflow="visible"/></clipPath><linearGradient id="XMLID_9_" gradientUnits="userSpaceOnUse" x1="123.726" y1="290.259" x2="45.091" y2="341.326" gradientTransform="matrix(1 0 0 -1 0 604)"><stop offset=".803" id="stop3478" stop-color="#3baaae" stop-opacity="0"/><stop offset=".966" id="stop3480" stop-color="#1d646a"/></linearGradient><path id="XMLID_87_" class="st8" d="M109 336.4s-37.1-35.6-42.2-41c-4.8-5-9.8-11-22.1-11.5-9.9-.4-17.6 6.3-17.6 6.3L74 243.7c.1 0 54.8 17.7 35 92.7z" clip-path="url(#SVGID_12_)" fill="url(#XMLID_9_)"/></g><g id="g3483"><defs id="defs3485"><circle id="SVGID_13_" cx="45.3" cy="310.3" r="66.3"/></defs><clipPath id="SVGID_14_"><use height="100%" width="100%" xlink:href="#SVGID_13_" id="use3489" overflow="visible"/></clipPath><linearGradient id="XMLID_10_" gradientUnits="userSpaceOnUse" x1="-31.068" y1="306.679" x2="39.903" y2="247.127" gradientTransform="matrix(1 0 0 -1 0 604)"><stop offset=".626" id="stop3492" stop-color="#1e868f" stop-opacity="0"/><stop offset=".926" id="stop3494" stop-color="#18585f"/></linearGradient><path id="XMLID_85_" class="st9" d="M-19.4 283.5s37 36.9 42.3 42.2c5.1 5.1 10.3 11 21.5 11.3 9.9.2 17.6-6.3 17.6-6.3l-47 46.5c.1-.1-54.1-18.7-34.4-93.7z" clip-path="url(#SVGID_14_)" fill="url(#XMLID_10_)"/></g></g><radialGradient id="XMLID_11_" cx="45.355" cy="301.565" r="8.381" gradientTransform="matrix(1 0 0 -1.0907 0 640.149)" gradientUnits="userSpaceOnUse"><stop offset=".325" id="stop3498" stop-color="#69c9ca"/><stop offset=".926" id="stop3500" stop-color="#0bfbfc" stop-opacity=".028"/><stop offset="1" id="stop3502" stop-color="#05feff" stop-opacity="0"/></radialGradient><path id="XMLID_80_" class="st10" d="M45.4 301.9c4.5 0 8.2 4.2 8.2 9.4 0 5.1-3.7 9.4-8.2 9.4-4.5 0-8.2-4.2-8.2-9.4s3.7-9.4 8.2-9.4z" opacity=".8" fill="url(#XMLID_11_)"/><radialGradient id="XMLID_12_" cx="45.282" cy="293.412" r="7.196" gradientTransform="matrix(1 0 0 -1 0 604)" gradientUnits="userSpaceOnUse"><stop offset=".685" id="stop3506" stop-color="#69c9ca"/><stop offset=".76" id="stop3508" stop-color="#4ad9da" stop-opacity=".7"/><stop offset=".936" id="stop3510" stop-color="#05feff" stop-opacity="0"/></radialGradient><path id="XMLID_46_" class="st11" d="M45.3 303.2c3.9 0 7 3.3 7 7.4 0 4.1-3.1 7.4-7 7.4s-7-3.3-7-7.4c0-4.1 3.1-7.4 7-7.4z" fill="url(#XMLID_12_)"/><path id="XMLID_35_" class="st0" d="M45.3 305.3c2.8 0 5 2.2 5 5s-2.2 5-5 5-5-2.2-5-5c0-2.7 2.2-5 5-5z" fill="#fff"/></g><linearGradient id="SVGID_15_" gradientUnits="userSpaceOnUse" x1="20.025" y1="218.863" x2="28.357" y2="278.152"><stop offset="0" id="stop3515" stop-color="#e83710"/><stop offset=".591" id="stop3517" stop-color="#a91e31"/><stop offset=".654" id="stop3519" stop-color="#a41c31"/><stop offset=".728" id="stop3521" stop-color="#961830"/><stop offset=".807" id="stop3523" stop-color="#7e102e"/><stop offset=".882" id="stop3525" stop-color="#61072c"/></linearGradient><path class="st12" d="M103.8 267.6c-20.6-87.3-125.3-36.9-138.3-28.7-9.7 6.1-17.9 11.5-17.9 11.5s41.1-10.3 39.1 17.5l117.1-.3z" id="path3527" fill="url(#SVGID_15_)"/><linearGradient id="SVGID_16_" gradientUnits="userSpaceOnUse" x1="44.696" y1="261.278" x2="44.696" y2="289.004"><stop offset="0" id="stop3530" stop-color="#fff"/><stop offset="1" id="stop3532" stop-color="#dbdbdb"/></linearGradient><path class="st13" d="M101.3 288.4s-29.7-4-56.7-4c-27 0-55.1 4-55.1 4-8 1-8.4 1.8-8.5-8.5l-.7-6.9c0-4.7 3.8-8.5 8.5-8.5 0 0 21.5-3.3 52-3.3s59.8 3.3 59.8 3.3c4.7 0 8.5 3.8 8.5 8.5l-.3 11.5c0 4.7.1 5.1-7.5 3.9z" id="path3534" fill="url(#SVGID_16_)"/><linearGradient id="SVGID_17_" gradientUnits="userSpaceOnUse" x1="-55.658" y1="246.042" x2="-32.258" y2="246.042"><stop offset="0" id="stop3537" stop-color="#fff"/><stop offset="1" id="stop3539" stop-color="#dbdbdb"/></linearGradient><circle class="st14" cx="-44" cy="246" r="11.7" id="circle3541" fill="url(#SVGID_17_)"/></g></g><style id="style3337">.st0{fill:#fff}.st1{fill:url(#XMLID_2_)}.st2{opacity:.95;fill:url(#XMLID_3_);enable-background:new}.st3{clip-path:url(#SVGID_2_);fill:url(#XMLID_4_)}.st4{clip-path:url(#SVGID_4_);fill:url(#XMLID_5_)}.st5{clip-path:url(#SVGID_6_);fill:url(#XMLID_6_)}.st6{clip-path:url(#SVGID_8_);fill:url(#XMLID_7_)}.st7{clip-path:url(#SVGID_10_);fill:url(#XMLID_8_)}.st8{clip-path:url(#SVGID_12_);fill:url(#XMLID_9_)}.st9{clip-path:url(#SVGID_14_);fill:url(#XMLID_10_)}.st10{opacity:.8;fill:url(#XMLID_11_);enable-background:new}.st11{fill:url(#XMLID_12_)}.st12{fill:url(#SVGID_15_)}.st13{fill:url(#SVGID_16_)}.st14{fill:url(#SVGID_17_)}</style></svg>