<?xml version="1.0" encoding="utf-8"?>
<!-- Generator: Adobe Illustrator 19.0.0, SVG Export Plug-In . SVG Version: 6.00 Build 0)  -->
<svg version="1.1" id="Layer_1" xmlns="http://www.w3.org/2000/svg" xmlns:xlink="http://www.w3.org/1999/xlink" x="0px" y="0px"
	 viewBox="0 0 21 16" style="enable-background:new 0 0 21 16;" xml:space="preserve">
<style type="text/css">
	.st0{fill:#FFFFFF;}
</style>
<g id="_x23_000000ff">
	<g id="XMLID_18_">
		<path id="XMLID_19_" class="st0" d="M11.7,0h2.5c0,0.1,0,0.2,0,0.3c0,0.8,0,1.6,0,2.5c-0.6,0-1.2,0-1.8,0c-0.2,0-0.4,0.1-0.5,0.2
			c-0.1,0.1-0.2,0.4-0.2,0.5c0,0.6,0,1.1,0,1.7c0.8,0,1.7,0,2.5,0C14.1,6.1,14,7.1,13.9,8c-0.7,0-1.5,0-2.2,0c0,2.7,0,5.3,0,8
			c-1.1,0-2.2,0-3.3,0c0-2.7,0-5.3,0-8C7.8,8,7.3,8,6.8,8V5.2c0.5,0,1.1,0,1.6,0c0-0.6,0-1.2,0-1.8c0-0.6,0.1-1.2,0.4-1.7
			C9,1.2,9.4,0.7,9.9,0.4C10.4,0.1,11,0,11.7,0z"/>
	</g>
</g>
</svg>
