<?xml version="1.0" encoding="utf-8"?>
<!-- Generator: Adobe Illustrator 19.0.0, SVG Export Plug-In . SVG Version: 6.00 Build 0)  -->
<svg version="1.1" id="Layer_1" xmlns="http://www.w3.org/2000/svg" xmlns:xlink="http://www.w3.org/1999/xlink" x="0px" y="0px"
	 viewBox="0 0 21 16" style="enable-background:new 0 0 21 16;" xml:space="preserve">
<style type="text/css">
	.st0{fill:#FFFFFF;}
</style>
<g id="XMLID_4_">
	<g id="XMLID_6_">
		<path id="XMLID_7_" class="st0" d="M7.7,1h3.4c0.2,0,0.6,0,0.7,0c0.2,0.1,0.3,0.4,0.1,0.6c-0.3,0.3-0.7,0.5-1,0.7
			c-0.1,0.1-0.3,0.1-0.5,0.1l0,0c0,0,0,0.1-0.1,0.1l0,0c0.5,0.7,0.7,1.5,0.7,2.3c0,0.8-0.4,1.5-1,2.1C9.8,7.2,9.4,7.4,9.2,7.7
			C9.1,7.9,9,8.1,9,8.2c0.1,0.1,0.1,0.2,0.2,0.4c0.3,0.3,0.5,0.5,0.9,0.8c0.6,0.4,1.1,0.9,1.4,1.6c0.2,0.5,0.2,1,0.2,1.5
			c0,0.7-0.3,1.3-0.7,1.8c-0.6,0.8-1.5,1.2-2.4,1.5C7.8,16,6.9,16,6,15.9c-0.7-0.1-1.3-0.2-1.9-0.5c-0.6-0.3-1.2-0.6-1.6-1.2
			c-0.2-0.3-0.4-0.7-0.4-1.1V13c0-0.9,0.6-1.8,1.3-2.4c1-0.8,2.2-1.1,3.4-1.1C6.7,9.1,6.6,8.6,6.7,8.2c-0.4,0-0.9-0.1-1.3-0.2
			C4.7,7.7,4.1,7.2,3.7,6.5C3.3,5.9,3.1,5.1,3.1,4.4c0.1-0.8,0.5-1.5,1-2C4.9,1.6,5.9,1.1,7,1C7.2,1,7.5,1,7.7,1z M6.5,2.4
			C6.2,2.4,6,2.5,5.9,2.7C5.6,3,5.4,3.5,5.4,3.9C5.3,4.7,5.5,5.4,6,6.1C6.3,6.5,6.7,6.8,7.1,7c0.3,0.1,0.7,0.1,1-0.1
			c0.3-0.2,0.5-0.6,0.6-1C8.9,5.2,8.9,4.6,8.7,4c-0.2-0.5-0.5-1-1-1.4C7.3,2.4,6.9,2.3,6.5,2.4z M6.7,10.7c-0.7,0.1-1.4,0.4-1.8,0.9
			c-0.3,0.3-0.4,0.7-0.4,1.1c0,0.5,0.3,1,0.7,1.3c0.6,0.5,1.3,0.7,2,0.6c0.7,0,1.3-0.1,1.9-0.4c0.4-0.2,0.7-0.6,0.8-1.1
			c0.1-0.4,0.1-0.8-0.1-1.2c-0.2-0.3-0.5-0.5-0.8-0.8c-0.2-0.1-0.4-0.3-0.6-0.4C7.8,10.6,7.2,10.6,6.7,10.7z"/>
	</g>
	<path id="XMLID_5_" class="st0" d="M14.6,4.6c0-0.2,0.2-0.4,0.3-0.4c0.2,0,0.5,0,0.7,0c0.2,0,0.3,0.2,0.3,0.4c0,0.8,0,1.7,0,2.5
		c0.8,0,1.7,0,2.5,0c0.2,0,0.3,0.1,0.3,0.3v0.8c0,0.2-0.2,0.4-0.4,0.3c-0.8,0-1.6,0-2.4,0c0,0.8,0,1.7,0,2.5c0,0.2-0.1,0.4-0.3,0.4
		c-0.2,0-0.5,0-0.7,0c-0.2,0-0.4-0.2-0.3-0.4c0-0.8,0-1.7,0-2.5c-0.8,0-1.7,0-2.5,0c-0.2,0-0.3-0.1-0.4-0.3c0-0.2,0-0.4,0-0.6
		c0-0.1,0-0.2,0-0.3c0.1-0.1,0.2-0.2,0.3-0.2c0.8,0,1.7,0,2.5,0C14.6,6.3,14.6,5.4,14.6,4.6z"/>
</g>
</svg>
