<?xml version="1.0" encoding="utf-8"?>
<!-- Generator: Adobe Illustrator 19.0.0, SVG Export Plug-In . SVG Version: 6.00 Build 0)  -->
<svg version="1.1" id="Layer_1" xmlns="http://www.w3.org/2000/svg" xmlns:xlink="http://www.w3.org/1999/xlink" x="0px" y="0px"
	 viewBox="0 0 21 16" style="enable-background:new 0 0 21 16;" xml:space="preserve">
<style type="text/css">
	.st0{fill:#FE8373;}
</style>
<g id="_x23_e02f2fff">
	<path id="XMLID_12_" class="st0" d="M9.1,0.5h2c2.1,0,4.2,0.1,6.3,0.2c0.5,0,1.1,0.1,1.5,0.3c0.5,0.3,1,0.7,1.2,1.2
		c0.2,0.5,0.4,1,0.5,1.6c0.1,1.1,0.2,2.2,0.2,3.3v2.3c0,0.9-0.1,1.9-0.2,2.8c-0.1,0.7-0.2,1.4-0.5,2.1c-0.3,0.6-0.7,1-1.3,1.3
		c-0.4,0.2-0.9,0.2-1.4,0.3c-2.2,0.1-4.4,0.2-6.6,0.2h-0.6C8.6,16,6.8,16,5,15.9c-0.5,0-1,0-1.5-0.1c-0.4-0.1-0.8-0.1-1.2-0.2
		c-0.6-0.2-1.1-0.6-1.4-1.2c-0.3-0.5-0.4-1.1-0.5-1.7c-0.1-1.1-0.2-2.2-0.2-3.3V7c0-0.9,0.1-1.8,0.2-2.8c0.1-0.7,0.2-1.4,0.5-2
		C1,1.6,1.5,1.2,2.1,0.9C2.5,0.7,3,0.7,3.5,0.7c1.8-0.1,3.6-0.2,5.4-0.2C9,0.5,9,0.5,9.1,0.5 M7.9,4.3c0,2.6,0,5.3,0,7.9
		c2.2-1.3,4.4-2.6,6.6-4C12.3,6.9,10.1,5.6,7.9,4.3z"/>
</g>
</svg>
