<?xml version="1.0" encoding="utf-8"?>
<!-- Generator: Adobe Illustrator 19.0.0, SVG Export Plug-In . SVG Version: 6.00 Build 0)  -->
<svg version="1.1" id="Layer_1" xmlns="http://www.w3.org/2000/svg" xmlns:xlink="http://www.w3.org/1999/xlink" x="0px" y="0px"
	 viewBox="0 0 112 44" style="enable-background:new 0 0 112 44;" xml:space="preserve">
<style type="text/css">
	.st0{fill:url(#XMLID_19_);}
	.st1{fill:url(#XMLID_20_);}
	.st2{fill:url(#XMLID_21_);}
	.st3{fill:url(#XMLID_22_);}
	.st4{fill:url(#XMLID_23_);}
	.st5{fill:url(#XMLID_24_);}
	.st6{fill:url(#XMLID_25_);}
	.st7{fill:url(#XMLID_26_);}
	.st8{fill:url(#XMLID_27_);}
	.st9{fill:url(#XMLID_28_);}
	.st10{fill:url(#XMLID_29_);}
	.st11{fill:url(#XMLID_30_);}
	.st12{fill:url(#XMLID_31_);}
	.st13{fill:url(#XMLID_32_);}
	.st14{fill:url(#XMLID_33_);}
	.st15{fill:url(#XMLID_34_);}
	.st16{fill:url(#XMLID_35_);}
	.st17{fill:url(#XMLID_36_);}
	.st18{fill:url(#XMLID_37_);}
	.st19{fill:url(#XMLID_38_);}
	.st20{fill:url(#XMLID_39_);}
	.st21{fill:url(#XMLID_40_);}
	.st22{fill:#9C9C9C;}
	.st23{fill:#F07A60;}
</style>
<g id="_x23_8bc64dff">
	<linearGradient id="XMLID_19_" gradientUnits="userSpaceOnUse" x1="43.5762" y1="34.5691" x2="18.4798" y2="-2.4562">
		<stop  offset="0" style="stop-color:#EB5A62"/>
		<stop  offset="1" style="stop-color:#FDC95D"/>
	</linearGradient>
	<path id="XMLID_78_" class="st0" d="M21.7,0h0.4c0.2,0.1,0.4,0.2,0.6,0.4c0.2,0.2,0.2,0.5,0.2,0.8c0,1,0,2,0,2.9
		c0,0.3-0.1,0.6-0.3,0.9c-0.4,0.3-1,0.3-1.3,0C21,4.8,21,4.5,21,4.2c0-0.9,0-1.8,0-2.7c0-0.3,0-0.6,0.1-0.9
		C21.2,0.3,21.5,0.1,21.7,0z"/>
	<linearGradient id="XMLID_20_" gradientUnits="userSpaceOnUse" x1="48.12" y1="31.4893" x2="23.0236" y2="-5.5361">
		<stop  offset="0" style="stop-color:#EB5A62"/>
		<stop  offset="1" style="stop-color:#FDC95D"/>
	</linearGradient>
	<path id="XMLID_77_" class="st1" d="M26.6,0.7c0.4-0.2,0.9,0,1.3,0.1c2.8,0.8,5.4,2.1,7.7,3.9c3.2,2.5,5.7,5.9,7.1,9.7
		c0.8,2.2,1.3,4.6,1.4,7v1.4c-0.1,1.9-0.4,3.8-0.9,5.7c-0.1,0.4-0.4,0.8-0.8,0.9c-0.4,0.1-0.7-0.1-1-0.3c-0.8-0.5-1.6-0.9-2.4-1.4
		c-0.2-0.1-0.5-0.3-0.6-0.6c-0.1-0.3,0-0.7,0.1-1c0.8-3.2,0.6-6.6-0.5-9.7c-0.8-2.2-2.1-4.2-3.7-5.9c-1.9-2-4.4-3.5-7-4.3
		c-0.3-0.1-0.6-0.2-0.8-0.5C26,5.5,26,5.1,26,4.8c0-1.1,0-2.1,0-3.2C26,1.2,26.2,0.9,26.6,0.7z"/>
	<linearGradient id="XMLID_21_" gradientUnits="userSpaceOnUse" x1="40.1146" y1="36.9155" x2="15.0182" y2="-0.1099">
		<stop  offset="0" style="stop-color:#EB5A62"/>
		<stop  offset="1" style="stop-color:#FDC95D"/>
	</linearGradient>
	<path id="XMLID_76_" class="st2" d="M16.3,0.8c0.3-0.1,0.7,0.1,0.7,0.4c0.2,0.7,0.4,1.3,0.5,2c0.1,0.3,0,0.6-0.2,0.8
		c-0.3,0.2-0.8,0-0.9-0.3C16.3,3.1,16.2,2.5,16,2c-0.1-0.2-0.1-0.5-0.1-0.7C15.9,1.1,16,0.8,16.3,0.8z"/>
	<linearGradient id="XMLID_22_" gradientUnits="userSpaceOnUse" x1="35.8185" y1="39.8275" x2="10.7221" y2="2.8021">
		<stop  offset="0" style="stop-color:#EB5A62"/>
		<stop  offset="1" style="stop-color:#FDC95D"/>
	</linearGradient>
	<path id="XMLID_75_" class="st3" d="M11.1,2.9c0.3-0.1,0.5,0.1,0.7,0.3c0.3,0.5,0.6,1.1,0.9,1.6C12.9,5,13,5.3,12.9,5.6
		c-0.1,0.3-0.4,0.4-0.6,0.3c-0.2,0-0.4-0.2-0.5-0.4c-0.3-0.5-0.6-1-0.9-1.5c-0.1-0.2-0.2-0.4-0.2-0.6C10.7,3.2,10.9,2.9,11.1,2.9z"
		/>
	<linearGradient id="XMLID_23_" gradientUnits="userSpaceOnUse" x1="31.5627" y1="42.7121" x2="6.4662" y2="5.6868">
		<stop  offset="0" style="stop-color:#EB5A62"/>
		<stop  offset="1" style="stop-color:#FDC95D"/>
	</linearGradient>
	<path id="XMLID_73_" class="st4" d="M6.8,6.2C7,6.1,7.3,6.2,7.4,6.4c0.4,0.4,0.9,0.9,1.3,1.3c0.2,0.2,0.4,0.4,0.3,0.6
		c0,0.3-0.3,0.6-0.6,0.5C8.2,8.9,8,8.7,7.9,8.5C7.5,8.1,7.1,7.7,6.7,7.3C6.5,7.1,6.3,6.9,6.4,6.7C6.3,6.4,6.5,6.2,6.8,6.2z"/>
	<linearGradient id="XMLID_24_" gradientUnits="userSpaceOnUse" x1="34.66" y1="40.6127" x2="9.5636" y2="3.5873">
		<stop  offset="0" style="stop-color:#EB5A62"/>
		<stop  offset="1" style="stop-color:#FDC95D"/>
	</linearGradient>
	<path id="XMLID_70_" class="st5" d="M20.8,7.4c3.7-0.3,7.4,0.8,10.3,3.2c1.8,1.5,3.3,3.3,4.2,5.5c1.1,2.6,1.5,5.5,1,8.3
		c-0.4,2.4-1.4,4.7-3,6.6c-1.3,1.6-2.9,2.9-4.7,3.9c-2.4,1.3-5.2,1.8-8,1.6c-2.3-0.2-4.6-1-6.5-2.2c-2.2-1.4-4.1-3.4-5.2-5.8
		c-1-2-1.5-4.2-1.5-6.3c0-2.4,0.6-4.9,1.7-7c1.1-2,2.6-3.7,4.5-5.1C15.7,8.5,18.2,7.6,20.8,7.4 M21,10.7c-1.7,0.1-3.4,0.7-4.9,1.6
		c-1.8,1.1-3.2,2.6-4.2,4.4c-0.8,1.6-1.3,3.4-1.3,5.2c0,2.3,0.7,4.6,2.1,6.5c0.8,1.2,1.9,2.2,3,2.9c1.8,1.2,4,1.9,6.2,1.9
		c2.5,0,5.1-0.9,7-2.5c1.8-1.4,3.1-3.4,3.8-5.6c0.8-2.6,0.6-5.5-0.5-7.9c-1.1-2.4-3.1-4.5-5.6-5.6C25,10.8,23,10.5,21,10.7z"/>
	<linearGradient id="XMLID_25_" gradientUnits="userSpaceOnUse" x1="27.2736" y1="45.6193" x2="2.1772" y2="8.5939">
		<stop  offset="0" style="stop-color:#EB5A62"/>
		<stop  offset="1" style="stop-color:#FDC95D"/>
	</linearGradient>
	<path id="XMLID_69_" class="st6" d="M3.2,10.8c0.2-0.1,0.5,0,0.8,0.1c0.5,0.3,1,0.6,1.5,0.9c0.2,0.1,0.4,0.3,0.5,0.5
		C6,12.6,5.8,12.9,5.5,13c-0.2,0.1-0.5,0-0.7-0.1c-0.5-0.3-1-0.6-1.5-0.9c-0.2-0.1-0.4-0.2-0.5-0.5C2.8,11.2,2.9,10.9,3.2,10.8z"/>
	<linearGradient id="XMLID_26_" gradientUnits="userSpaceOnUse" x1="23.6093" y1="48.1031" x2="-1.4872" y2="11.0777">
		<stop  offset="0" style="stop-color:#EB5A62"/>
		<stop  offset="1" style="stop-color:#FDC95D"/>
	</linearGradient>
	<path id="XMLID_68_" class="st7" d="M1.1,15.9c0.2-0.1,0.5,0,0.7,0c0.5,0.2,1.1,0.3,1.6,0.4c0.2,0.1,0.5,0.1,0.5,0.4
		c0.1,0.3,0,0.6-0.2,0.7c-0.2,0.1-0.5,0.1-0.7,0c-0.6-0.2-1.1-0.3-1.7-0.5c-0.2-0.1-0.4-0.2-0.5-0.4C0.6,16.4,0.8,16,1.1,15.9z"/>
	<linearGradient id="XMLID_27_" gradientUnits="userSpaceOnUse" x1="33.117" y1="41.6586" x2="8.0205" y2="4.6332">
		<stop  offset="0" style="stop-color:#EB5A62"/>
		<stop  offset="1" style="stop-color:#FDC95D"/>
	</linearGradient>
	<path id="XMLID_67_" class="st8" d="M16.9,16.2c1-0.2,2.1,0.3,2.4,1.3c0.5,1,0,2.3-0.9,2.8c-0.9,0.6-2.2,0.3-2.9-0.6
		c-0.6-0.8-0.6-1.9,0-2.7C15.9,16.6,16.4,16.3,16.9,16.2z"/>
	<linearGradient id="XMLID_28_" gradientUnits="userSpaceOnUse" x1="39.5485" y1="37.2992" x2="14.4521" y2="0.2738">
		<stop  offset="0" style="stop-color:#EB5A62"/>
		<stop  offset="1" style="stop-color:#FDC95D"/>
	</linearGradient>
	<path id="XMLID_66_" class="st9" d="M26.3,16.2c1-0.2,2.1,0.3,2.4,1.3c0.5,1,0,2.3-0.9,2.8c-0.9,0.5-2.2,0.3-2.8-0.6
		c-0.6-0.8-0.6-1.9,0-2.7C25.3,16.6,25.8,16.3,26.3,16.2z"/>
	<linearGradient id="XMLID_29_" gradientUnits="userSpaceOnUse" x1="21.4284" y1="49.5813" x2="-3.668" y2="12.556">
		<stop  offset="0" style="stop-color:#EB5A62"/>
		<stop  offset="1" style="stop-color:#FDC95D"/>
	</linearGradient>
	<path id="XMLID_65_" class="st10" d="M0.4,21.1c0.2-0.2,0.5-0.2,0.8-0.2c1,0,2,0,2.9,0c0.3,0,0.6,0.1,0.8,0.3c0.4,0.3,0.4,1,0,1.3
		c-0.2,0.2-0.5,0.3-0.8,0.3c-0.9,0-1.8,0-2.7,0c-0.3,0-0.7,0-1-0.1c-0.3-0.1-0.4-0.4-0.5-0.7v-0.4C0.1,21.4,0.2,21.2,0.4,21.1z"/>
	<linearGradient id="XMLID_30_" gradientUnits="userSpaceOnUse" x1="32.5234" y1="42.061" x2="7.4269" y2="5.0356">
		<stop  offset="0" style="stop-color:#EB5A62"/>
		<stop  offset="1" style="stop-color:#FDC95D"/>
	</linearGradient>
	<path id="XMLID_64_" class="st11" d="M17.3,25.5c0.3-0.1,0.6,0,0.9,0.2c0.3,0.2,0.5,0.5,0.7,0.8c0.8,0.7,1.8,1,2.9,1.1
		c1.4,0.1,2.9-0.5,3.8-1.6c0.2-0.2,0.5-0.4,0.8-0.4c0.5,0,1,0.4,1,0.9c0,0.3-0.1,0.5-0.3,0.7c-0.7,0.9-1.7,1.5-2.7,1.9
		c-1.2,0.5-2.5,0.5-3.8,0.3c-1.3-0.2-2.6-0.9-3.5-1.9c-0.3-0.3-0.6-0.6-0.6-1C16.5,26.1,16.8,25.6,17.3,25.5z"/>
	<linearGradient id="XMLID_31_" gradientUnits="userSpaceOnUse" x1="18.7272" y1="51.4123" x2="-6.3693" y2="14.3869">
		<stop  offset="0" style="stop-color:#EB5A62"/>
		<stop  offset="1" style="stop-color:#FDC95D"/>
	</linearGradient>
	<path id="XMLID_63_" class="st12" d="M3.2,26.4c0.2,0,0.4-0.1,0.6,0.1C4,26.6,4.1,27,3.9,27.2c-0.1,0.3-0.4,0.3-0.6,0.4
		c-0.6,0.1-1.2,0.3-1.8,0.5c-0.3,0.1-0.7-0.1-0.8-0.4c-0.1-0.3,0.1-0.6,0.4-0.7C1.8,26.8,2.5,26.6,3.2,26.4z"/>
	<linearGradient id="XMLID_32_" gradientUnits="userSpaceOnUse" x1="17.8172" y1="52.029" x2="-7.2792" y2="15.0037">
		<stop  offset="0" style="stop-color:#EB5A62"/>
		<stop  offset="1" style="stop-color:#FDC95D"/>
	</linearGradient>
	<path id="XMLID_62_" class="st13" d="M5.1,31.1c0.4-0.2,0.8,0.2,0.8,0.6c0,0.3-0.3,0.5-0.6,0.7c-0.5,0.3-0.9,0.5-1.4,0.8
		c-0.2,0.1-0.5,0.2-0.7,0.2c-0.3-0.1-0.5-0.4-0.4-0.7c0.1-0.3,0.4-0.4,0.7-0.6C4.1,31.7,4.6,31.3,5.1,31.1z"/>
	<linearGradient id="XMLID_33_" gradientUnits="userSpaceOnUse" x1="41.8169" y1="35.7616" x2="16.7205" y2="-1.2637">
		<stop  offset="0" style="stop-color:#EB5A62"/>
		<stop  offset="1" style="stop-color:#FDC95D"/>
	</linearGradient>
	<path id="XMLID_61_" class="st14" d="M38.3,31.2c0.3-0.1,0.6,0.1,0.8,0.2c0.5,0.3,1.1,0.6,1.6,0.9c0.3,0.2,0.4,0.6,0.2,0.9
		c-0.2,0.2-0.5,0.3-0.8,0.1c-0.5-0.3-1-0.6-1.6-0.9c-0.2-0.1-0.5-0.3-0.6-0.5C37.9,31.6,38,31.3,38.3,31.2z"/>
	<linearGradient id="XMLID_34_" gradientUnits="userSpaceOnUse" x1="18.102" y1="51.836" x2="-6.9944" y2="14.8106">
		<stop  offset="0" style="stop-color:#EB5A62"/>
		<stop  offset="1" style="stop-color:#FDC95D"/>
	</linearGradient>
	<path id="XMLID_56_" class="st15" d="M8.2,35c0.3-0.1,0.7,0.1,0.7,0.4C9,35.7,8.8,36,8.6,36.2c-0.4,0.4-0.8,0.8-1.2,1.2
		c-0.2,0.2-0.3,0.3-0.6,0.3c-0.3,0-0.6-0.3-0.6-0.6c0-0.2,0.2-0.4,0.3-0.6c0.4-0.4,0.8-0.8,1.2-1.2C7.9,35.2,8,35.1,8.2,35z"/>
	<linearGradient id="XMLID_35_" gradientUnits="userSpaceOnUse" x1="37.7744" y1="38.5017" x2="12.678" y2="1.4764">
		<stop  offset="0" style="stop-color:#EB5A62"/>
		<stop  offset="1" style="stop-color:#FDC95D"/>
	</linearGradient>
	<path id="XMLID_55_" class="st16" d="M35.4,35c0.2-0.1,0.5,0,0.7,0.2c0.4,0.4,0.9,0.9,1.3,1.3c0.2,0.2,0.4,0.4,0.4,0.6
		c0,0.3-0.3,0.6-0.6,0.6c-0.3,0-0.5-0.2-0.7-0.4c-0.4-0.4-0.9-0.9-1.3-1.3C34.8,35.7,34.9,35.1,35.4,35z"/>
	<linearGradient id="XMLID_36_" gradientUnits="userSpaceOnUse" x1="19.4603" y1="50.9153" x2="-5.6362" y2="13.89">
		<stop  offset="0" style="stop-color:#EB5A62"/>
		<stop  offset="1" style="stop-color:#FDC95D"/>
	</linearGradient>
	<path id="XMLID_54_" class="st17" d="M12.1,38.1c0.3-0.1,0.6,0,0.7,0.3c0.1,0.2,0,0.5-0.1,0.7c-0.3,0.5-0.6,1-0.9,1.6
		c-0.1,0.3-0.4,0.5-0.7,0.5c-0.4,0-0.6-0.5-0.4-0.9c0.3-0.5,0.6-1,0.9-1.6C11.8,38.5,11.9,38.2,12.1,38.1z"/>
	<linearGradient id="XMLID_37_" gradientUnits="userSpaceOnUse" x1="33.3979" y1="41.4682" x2="8.3015" y2="4.4428">
		<stop  offset="0" style="stop-color:#EB5A62"/>
		<stop  offset="1" style="stop-color:#FDC95D"/>
	</linearGradient>
	<path id="XMLID_53_" class="st18" d="M31.3,38.1c0.3-0.1,0.6,0,0.8,0.3c0.3,0.5,0.6,1.1,0.9,1.6c0.1,0.2,0.3,0.5,0.2,0.7
		c-0.1,0.3-0.4,0.5-0.7,0.4c-0.3-0.1-0.4-0.3-0.6-0.6c-0.3-0.5-0.6-1.1-0.9-1.6C30.9,38.7,31,38.2,31.3,38.1z"/>
	<linearGradient id="XMLID_38_" gradientUnits="userSpaceOnUse" x1="25.5937" y1="46.758" x2="0.4973" y2="9.7326">
		<stop  offset="0" style="stop-color:#EB5A62"/>
		<stop  offset="1" style="stop-color:#FDC95D"/>
	</linearGradient>
	<path id="XMLID_52_" class="st19" d="M21.2,39c0.3-0.4,0.9-0.4,1.3-0.1c0.3,0.2,0.4,0.5,0.3,0.8c0,1,0,2,0,3c0,0.3,0,0.6-0.2,0.8
		c-0.1,0.2-0.4,0.3-0.6,0.4h-0.4c-0.2-0.1-0.4-0.2-0.6-0.4C21,43.3,21,43,21,42.8c0-1,0-1.9,0-2.9C21,39.6,21,39.3,21.2,39z"/>
	<linearGradient id="XMLID_39_" gradientUnits="userSpaceOnUse" x1="21.8967" y1="49.2639" x2="-3.1997" y2="12.2385">
		<stop  offset="0" style="stop-color:#EB5A62"/>
		<stop  offset="1" style="stop-color:#FDC95D"/>
	</linearGradient>
	<path id="XMLID_51_" class="st20" d="M16.8,40c0.2-0.1,0.5,0,0.7,0.3c0.1,0.2,0.1,0.5,0,0.7c-0.2,0.6-0.3,1.2-0.5,1.7
		c-0.1,0.2-0.2,0.5-0.4,0.5c-0.3,0.1-0.7-0.1-0.7-0.4c0-0.3,0.1-0.5,0.1-0.7c0.1-0.5,0.3-1,0.4-1.5C16.5,40.3,16.6,40,16.8,40z"/>
	<linearGradient id="XMLID_40_" gradientUnits="userSpaceOnUse" x1="29.1011" y1="44.3806" x2="4.0047" y2="7.3553">
		<stop  offset="0" style="stop-color:#EB5A62"/>
		<stop  offset="1" style="stop-color:#FDC95D"/>
	</linearGradient>
	<path id="XMLID_50_" class="st21" d="M26.8,40c0.3-0.1,0.7,0.1,0.8,0.4c0.2,0.6,0.3,1.2,0.5,1.8c0.1,0.2,0.2,0.5,0,0.8
		c-0.1,0.3-0.5,0.4-0.7,0.2c-0.2-0.1-0.3-0.4-0.4-0.7c-0.2-0.6-0.3-1.2-0.5-1.8C26.3,40.5,26.4,40.1,26.8,40z"/>
</g>
<g id="XMLID_1_">
	<path id="XMLID_3_" class="st22" d="M56,26.9h5.8v1.8h-8V15.9H56V26.9z"/>
	<path id="XMLID_5_" class="st22" d="M64.4,16.7c0-0.3,0.1-0.6,0.3-0.8c0.2-0.2,0.5-0.3,0.9-0.3s0.7,0.1,0.9,0.3
		c0.2,0.2,0.3,0.5,0.3,0.8c0,0.3-0.1,0.6-0.3,0.8c-0.2,0.2-0.5,0.3-0.9,0.3s-0.7-0.1-0.9-0.3S64.4,17.1,64.4,16.7z M66.7,28.7h-2.1
		v-9.5h2.1V28.7z"/>
	<path id="XMLID_8_" class="st22" d="M72.1,19.2l0.1,1c0.7-0.8,1.6-1.2,2.7-1.2c1.3,0,2.1,0.5,2.6,1.5c0.7-1,1.7-1.5,2.9-1.5
		c1,0,1.8,0.3,2.3,0.9c0.5,0.6,0.8,1.4,0.8,2.6v6.3h-2.1v-6.2c0-0.6-0.1-1-0.4-1.3c-0.3-0.3-0.7-0.4-1.3-0.4c-0.5,0-0.9,0.1-1.2,0.4
		c-0.3,0.3-0.5,0.6-0.6,1l0,6.5h-2.1v-6.3c0-1.1-0.6-1.7-1.7-1.7c-0.9,0-1.5,0.3-1.8,1v6.9h-2.1v-9.5H72.1z"/>
	<path id="XMLID_10_" class="st22" d="M86.9,16.7c0-0.3,0.1-0.6,0.3-0.8c0.2-0.2,0.5-0.3,0.9-0.3s0.7,0.1,0.9,0.3
		c0.2,0.2,0.3,0.5,0.3,0.8c0,0.3-0.1,0.6-0.3,0.8c-0.2,0.2-0.5,0.3-0.9,0.3s-0.7-0.1-0.9-0.3S86.9,17.1,86.9,16.7z M89.1,28.7H87
		v-9.5h2.1V28.7z"/>
	<path id="XMLID_13_" class="st22" d="M95.2,16.9v2.3h1.7v1.6h-1.7v5.3c0,0.4,0.1,0.6,0.2,0.8s0.4,0.2,0.8,0.2c0.2,0,0.5,0,0.7-0.1
		v1.7c-0.5,0.1-1,0.2-1.4,0.2c-1.6,0-2.5-0.9-2.5-2.7v-5.4h-1.6v-1.6h1.6v-2.3H95.2z"/>
	<path id="XMLID_15_" class="st23" d="M101.1,28.7H100V15.2h1.1V28.7z"/>
	<path id="XMLID_17_" class="st23" d="M108,27.2l2.8-8h1.1l-4.1,11.1l-0.2,0.5c-0.5,1.2-1.3,1.7-2.4,1.7c-0.3,0-0.5,0-0.8-0.1l0-0.9
		l0.5,0.1c0.5,0,0.9-0.1,1.3-0.4s0.6-0.7,0.8-1.3l0.5-1.3l-3.6-9.4h1.2L108,27.2z"/>
</g>
</svg>
