<?xml version="1.0" encoding="utf-8"?>
<!-- Generator: Adobe Illustrator 19.0.0, SVG Export Plug-In . SVG Version: 6.00 Build 0)  -->
<svg version="1.1" id="Layer_1" xmlns="http://www.w3.org/2000/svg" xmlns:xlink="http://www.w3.org/1999/xlink" x="0px" y="0px"
	 viewBox="0 0 88 119" style="enable-background:new 0 0 88 119;" xml:space="preserve">
<style type="text/css">
	.st0{fill-rule:evenodd;clip-rule:evenodd;fill:#FFFFFF;}
	.st1{fill:#E8E8E8;}
	.st2{fill:url(#XMLID_90_);}
	.st3{fill:url(#XMLID_91_);}
	.st4{fill:url(#XMLID_92_);}
	.st5{fill:url(#XMLID_93_);}
	.st6{fill:url(#XMLID_94_);}
	.st7{fill:url(#XMLID_95_);}
	.st8{fill:url(#XMLID_96_);}
	.st9{fill:url(#XMLID_97_);}
	.st10{fill:url(#XMLID_98_);}
	.st11{fill:url(#XMLID_99_);}
	.st12{fill:url(#XMLID_100_);}
	.st13{fill:url(#XMLID_101_);}
	.st14{fill:url(#XMLID_102_);}
	.st15{fill:url(#XMLID_103_);}
	.st16{fill:url(#XMLID_104_);}
	.st17{fill:url(#XMLID_105_);}
	.st18{fill:url(#XMLID_106_);}
	.st19{fill:url(#XMLID_107_);}
	.st20{fill:url(#XMLID_108_);}
	.st21{fill:url(#XMLID_109_);}
	.st22{fill:url(#XMLID_110_);}
	.st23{fill:url(#XMLID_111_);}
	.st24{fill:#FFFFFF;}
	.st25{fill:#F07A60;}
</style>
<g id="XMLID_48_">
	<g id="XMLID_3_">
		<path id="XMLID_88_" class="st0" d="M22.1,84.8c-11.3,0-20.4-9.2-20.4-20.4V20.6c0-11.3,9.2-20.4,20.4-20.4h43.9
			c11.3,0,20.4,9.2,20.4,20.4v43.9c0,11.3-9.2,20.4-20.4,20.4H22.1z"/>
		<path id="XMLID_85_" class="st1" d="M65.9,0.3c11.2,0,20.3,9.1,20.3,20.3v43.9c0,11.2-9.1,20.3-20.3,20.3H22.1
			c-11.2,0-20.3-9.1-20.3-20.3V20.6c0-11.2,9.1-20.3,20.3-20.3H65.9 M65.9,0H22.1C10.7,0,1.5,9.2,1.5,20.6v43.9
			C1.5,75.8,10.7,85,22.1,85h43.9c11.4,0,20.6-9.2,20.6-20.6V20.6C86.5,9.2,77.3,0,65.9,0L65.9,0z"/>
	</g>
	<g id="_x23_8bc64dff">
		<linearGradient id="XMLID_90_" gradientUnits="userSpaceOnUse" x1="73.7446" y1="59.8537" x2="39.0946" y2="8.7337">
			<stop  offset="0" style="stop-color:#EB5A62"/>
			<stop  offset="1" style="stop-color:#FDC95D"/>
		</linearGradient>
		<path id="XMLID_78_" class="st2" d="M43.6,12.1h0.6c0.3,0.1,0.6,0.3,0.8,0.6c0.2,0.3,0.2,0.7,0.2,1.1c0,1.4,0,2.7,0,4.1
			c0,0.4-0.1,0.9-0.4,1.2c-0.5,0.5-1.3,0.4-1.8,0c-0.3-0.3-0.4-0.7-0.4-1.1c0-1.3,0-2.5,0-3.8c0-0.4,0-0.8,0.1-1.2
			C42.8,12.5,43.2,12.3,43.6,12.1z"/>
		<linearGradient id="XMLID_91_" gradientUnits="userSpaceOnUse" x1="80.0181" y1="55.6015" x2="45.3681" y2="4.4815">
			<stop  offset="0" style="stop-color:#EB5A62"/>
			<stop  offset="1" style="stop-color:#FDC95D"/>
		</linearGradient>
		<path id="XMLID_77_" class="st3" d="M50.3,13.1c0.6-0.2,1.2,0,1.8,0.2c3.9,1.1,7.5,2.9,10.7,5.4c4.4,3.4,7.8,8.1,9.8,13.4
			c1.2,3.1,1.8,6.3,1.9,9.6v2c-0.1,2.7-0.5,5.3-1.3,7.8c-0.2,0.6-0.5,1.1-1.2,1.3c-0.5,0.1-1-0.2-1.4-0.4c-1.1-0.7-2.2-1.3-3.4-1.9
			c-0.3-0.2-0.7-0.4-0.8-0.8c-0.1-0.5,0-0.9,0.1-1.4c1.1-4.4,0.8-9.1-0.7-13.3c-1.1-3-2.9-5.8-5.1-8.1c-2.7-2.8-6-4.8-9.7-5.9
			c-0.4-0.1-0.9-0.3-1.2-0.6c-0.3-0.4-0.3-0.8-0.3-1.3c0-1.5,0-2.9,0-4.4C49.5,13.8,49.8,13.3,50.3,13.1z"/>
		<linearGradient id="XMLID_92_" gradientUnits="userSpaceOnUse" x1="68.9653" y1="63.0933" x2="34.3153" y2="11.9733">
			<stop  offset="0" style="stop-color:#EB5A62"/>
			<stop  offset="1" style="stop-color:#FDC95D"/>
		</linearGradient>
		<path id="XMLID_76_" class="st4" d="M36,13.2c0.4-0.2,0.9,0.2,1,0.6c0.3,0.9,0.5,1.8,0.7,2.8c0.1,0.4,0,0.8-0.3,1
			c-0.4,0.3-1.1,0-1.2-0.4c-0.2-0.7-0.4-1.5-0.6-2.3c-0.1-0.3-0.2-0.6-0.2-0.9C35.5,13.6,35.7,13.3,36,13.2z"/>
		<linearGradient id="XMLID_93_" gradientUnits="userSpaceOnUse" x1="63.0337" y1="67.1138" x2="28.3837" y2="15.9938">
			<stop  offset="0" style="stop-color:#EB5A62"/>
			<stop  offset="1" style="stop-color:#FDC95D"/>
		</linearGradient>
		<path id="XMLID_75_" class="st5" d="M28.9,16.1c0.4-0.1,0.8,0.1,0.9,0.4c0.4,0.7,0.8,1.5,1.3,2.2c0.2,0.3,0.4,0.7,0.2,1.1
			c-0.1,0.4-0.5,0.6-0.9,0.5c-0.3-0.1-0.5-0.3-0.7-0.6c-0.4-0.7-0.8-1.4-1.2-2.1c-0.1-0.2-0.3-0.5-0.3-0.8
			C28.4,16.5,28.6,16.2,28.9,16.1z"/>
		<linearGradient id="XMLID_94_" gradientUnits="userSpaceOnUse" x1="57.1578" y1="71.0966" x2="22.5078" y2="19.9766">
			<stop  offset="0" style="stop-color:#EB5A62"/>
			<stop  offset="1" style="stop-color:#FDC95D"/>
		</linearGradient>
		<path id="XMLID_73_" class="st6" d="M23,20.6c0.3-0.1,0.6,0.1,0.9,0.3c0.6,0.6,1.2,1.2,1.8,1.8c0.2,0.2,0.5,0.5,0.5,0.9
			c0,0.4-0.4,0.8-0.8,0.7c-0.3,0-0.6-0.2-0.8-0.5c-0.6-0.6-1.1-1.2-1.7-1.7c-0.2-0.2-0.4-0.5-0.4-0.8C22.3,21,22.6,20.7,23,20.6z"/>
		<linearGradient id="XMLID_95_" gradientUnits="userSpaceOnUse" x1="61.4342" y1="68.1979" x2="26.7842" y2="17.0779">
			<stop  offset="0" style="stop-color:#EB5A62"/>
			<stop  offset="1" style="stop-color:#FDC95D"/>
		</linearGradient>
		<path id="XMLID_70_" class="st7" d="M42.3,22.4c5.1-0.4,10.3,1.2,14.2,4.4c2.5,2,4.5,4.6,5.8,7.5c1.6,3.6,2.1,7.6,1.4,11.5
			c-0.6,3.3-2,6.5-4.1,9.1c-1.8,2.2-4,4.1-6.5,5.4c-3.4,1.7-7.2,2.5-11,2.2c-3.2-0.3-6.3-1.3-9-3.1c-3.1-1.9-5.6-4.7-7.2-8
			c-1.4-2.7-2.1-5.7-2.1-8.8c0-3.4,0.8-6.7,2.4-9.7c1.5-2.8,3.6-5.2,6.2-7C35.3,23.9,38.8,22.6,42.3,22.4 M42.6,26.9
			c-2.4,0.2-4.7,1-6.8,2.2c-2.4,1.5-4.4,3.6-5.7,6.1c-1.2,2.2-1.8,4.7-1.8,7.2c0,3.2,1,6.3,2.9,8.9c1.1,1.6,2.6,3,4.2,4.1
			C37.9,57.1,41,58,44,58c3.5,0,7-1.2,9.7-3.4c2.5-2,4.3-4.7,5.2-7.7c1.1-3.6,0.8-7.6-0.7-11c-1.5-3.4-4.3-6.2-7.7-7.7
			C48,27.1,45.3,26.6,42.6,26.9z"/>
		<linearGradient id="XMLID_96_" gradientUnits="userSpaceOnUse" x1="51.236" y1="75.1104" x2="16.586" y2="23.9904">
			<stop  offset="0" style="stop-color:#EB5A62"/>
			<stop  offset="1" style="stop-color:#FDC95D"/>
		</linearGradient>
		<path id="XMLID_69_" class="st8" d="M17.9,27c0.3-0.2,0.7,0,1,0.2c0.7,0.4,1.4,0.8,2.1,1.2c0.3,0.2,0.6,0.4,0.7,0.7
			c0.1,0.4-0.1,0.8-0.5,0.9c-0.3,0.1-0.6,0-0.9-0.2c-0.7-0.4-1.4-0.8-2.1-1.2c-0.3-0.2-0.6-0.3-0.6-0.6C17.4,27.6,17.6,27.2,17.9,27
			z"/>
		<linearGradient id="XMLID_97_" gradientUnits="userSpaceOnUse" x1="46.1767" y1="78.5397" x2="11.5267" y2="27.4197">
			<stop  offset="0" style="stop-color:#EB5A62"/>
			<stop  offset="1" style="stop-color:#FDC95D"/>
		</linearGradient>
		<path id="XMLID_68_" class="st9" d="M15.1,34.1c0.3-0.1,0.6,0,1,0.1c0.8,0.2,1.5,0.4,2.3,0.6c0.3,0.1,0.6,0.2,0.8,0.5
			c0.2,0.4,0,0.8-0.3,1c-0.3,0.2-0.7,0.1-1,0c-0.8-0.2-1.6-0.4-2.3-0.6c-0.3-0.1-0.6-0.2-0.8-0.5C14.4,34.8,14.6,34.3,15.1,34.1z"/>
		<linearGradient id="XMLID_98_" gradientUnits="userSpaceOnUse" x1="59.3038" y1="69.642" x2="24.6538" y2="18.522">
			<stop  offset="0" style="stop-color:#EB5A62"/>
			<stop  offset="1" style="stop-color:#FDC95D"/>
		</linearGradient>
		<path id="XMLID_67_" class="st10" d="M36.9,34.5c1.4-0.3,2.8,0.5,3.4,1.7c0.7,1.4,0.1,3.2-1.3,3.9c-1.3,0.8-3.1,0.4-4-0.8
			c-0.8-1.1-0.8-2.7,0-3.7C35.5,35.1,36.2,34.6,36.9,34.5z"/>
		<linearGradient id="XMLID_99_" gradientUnits="userSpaceOnUse" x1="68.1837" y1="63.6231" x2="33.5337" y2="12.5031">
			<stop  offset="0" style="stop-color:#EB5A62"/>
			<stop  offset="1" style="stop-color:#FDC95D"/>
		</linearGradient>
		<path id="XMLID_66_" class="st11" d="M49.9,34.5c1.4-0.3,2.8,0.5,3.4,1.7c0.7,1.4,0.1,3.2-1.3,3.9c-1.3,0.7-3,0.4-3.9-0.8
			c-0.8-1-0.9-2.6,0-3.7C48.5,35.1,49.1,34.6,49.9,34.5z"/>
		<linearGradient id="XMLID_100_" gradientUnits="userSpaceOnUse" x1="43.1656" y1="80.5807" x2="8.5156" y2="29.4607">
			<stop  offset="0" style="stop-color:#EB5A62"/>
			<stop  offset="1" style="stop-color:#FDC95D"/>
		</linearGradient>
		<path id="XMLID_65_" class="st12" d="M14.2,41.2c0.3-0.2,0.7-0.2,1.1-0.2c1.4,0,2.7,0,4.1,0c0.4,0,0.9,0.1,1.1,0.4
			c0.5,0.5,0.5,1.4,0,1.8c-0.3,0.3-0.7,0.4-1.1,0.4c-1.2,0-2.5,0-3.7,0c-0.4,0-0.9,0-1.3-0.1c-0.4-0.2-0.6-0.5-0.8-0.9V42
			C13.7,41.7,13.9,41.4,14.2,41.2z"/>
		<linearGradient id="XMLID_101_" gradientUnits="userSpaceOnUse" x1="58.4842" y1="70.1975" x2="23.8342" y2="19.0775">
			<stop  offset="0" style="stop-color:#EB5A62"/>
			<stop  offset="1" style="stop-color:#FDC95D"/>
		</linearGradient>
		<path id="XMLID_64_" class="st13" d="M37.5,47.3c0.4-0.1,0.9,0,1.2,0.3c0.4,0.3,0.6,0.7,1,1.1c1.1,1,2.5,1.4,4,1.5
			c2,0.1,4-0.7,5.3-2.2c0.3-0.3,0.7-0.6,1.1-0.6c0.7,0,1.3,0.6,1.4,1.3c0,0.4-0.1,0.7-0.4,1c-1,1.2-2.3,2.1-3.8,2.6
			c-1.7,0.6-3.5,0.7-5.3,0.4c-1.8-0.3-3.5-1.2-4.8-2.6c-0.3-0.4-0.8-0.8-0.8-1.4C36.4,48.1,36.8,47.5,37.5,47.3z"/>
		<linearGradient id="XMLID_102_" gradientUnits="userSpaceOnUse" x1="39.4361" y1="83.1086" x2="4.7861" y2="31.9886">
			<stop  offset="0" style="stop-color:#EB5A62"/>
			<stop  offset="1" style="stop-color:#FDC95D"/>
		</linearGradient>
		<path id="XMLID_63_" class="st14" d="M17.9,48.6c0.3-0.1,0.6-0.1,0.8,0.1c0.3,0.2,0.4,0.7,0.3,1c-0.2,0.4-0.6,0.5-0.9,0.5
			c-0.8,0.2-1.7,0.5-2.5,0.7c-0.4,0.1-1-0.1-1.1-0.5c-0.1-0.4,0.2-0.9,0.6-1C16.1,49.1,17,48.9,17.9,48.6z"/>
		<linearGradient id="XMLID_103_" gradientUnits="userSpaceOnUse" x1="38.1798" y1="83.9602" x2="3.5298" y2="32.8402">
			<stop  offset="0" style="stop-color:#EB5A62"/>
			<stop  offset="1" style="stop-color:#FDC95D"/>
		</linearGradient>
		<path id="XMLID_62_" class="st15" d="M20.6,55c0.5-0.2,1.1,0.2,1.1,0.8c0,0.5-0.4,0.7-0.8,0.9c-0.7,0.4-1.3,0.7-1.9,1.1
			c-0.3,0.2-0.6,0.3-1,0.2c-0.4-0.1-0.6-0.6-0.5-1c0.1-0.4,0.6-0.6,1-0.8C19.2,55.8,19.9,55.4,20.6,55z"/>
		<linearGradient id="XMLID_104_" gradientUnits="userSpaceOnUse" x1="71.3156" y1="61.5002" x2="36.6656" y2="10.3802">
			<stop  offset="0" style="stop-color:#EB5A62"/>
			<stop  offset="1" style="stop-color:#FDC95D"/>
		</linearGradient>
		<path id="XMLID_61_" class="st16" d="M66.4,55.2c0.4-0.2,0.8,0.1,1.1,0.3c0.7,0.4,1.5,0.9,2.2,1.3c0.4,0.2,0.6,0.8,0.3,1.2
			c-0.3,0.3-0.8,0.4-1.1,0.2c-0.7-0.4-1.4-0.9-2.2-1.3c-0.3-0.2-0.7-0.4-0.8-0.7C65.8,55.7,66.1,55.3,66.4,55.2z"/>
		<linearGradient id="XMLID_105_" gradientUnits="userSpaceOnUse" x1="38.573" y1="83.6936" x2="3.923" y2="32.5736">
			<stop  offset="0" style="stop-color:#EB5A62"/>
			<stop  offset="1" style="stop-color:#FDC95D"/>
		</linearGradient>
		<path id="XMLID_56_" class="st17" d="M24.9,60.5c0.4-0.1,0.9,0.1,1,0.6c0.1,0.4-0.2,0.7-0.4,1c-0.6,0.6-1.1,1.1-1.7,1.7
			c-0.2,0.2-0.5,0.4-0.8,0.5c-0.4,0-0.8-0.3-0.8-0.8c0-0.3,0.2-0.6,0.4-0.8c0.6-0.6,1.1-1.1,1.7-1.7C24.5,60.8,24.7,60.6,24.9,60.5z
			"/>
		<linearGradient id="XMLID_106_" gradientUnits="userSpaceOnUse" x1="65.7341" y1="65.2834" x2="31.0841" y2="14.1634">
			<stop  offset="0" style="stop-color:#EB5A62"/>
			<stop  offset="1" style="stop-color:#FDC95D"/>
		</linearGradient>
		<path id="XMLID_55_" class="st18" d="M62.4,60.5c0.3-0.1,0.7,0,0.9,0.3c0.6,0.6,1.2,1.2,1.8,1.8c0.2,0.2,0.5,0.5,0.5,0.9
			c0,0.4-0.4,0.8-0.8,0.8c-0.4,0-0.7-0.3-0.9-0.6c-0.6-0.6-1.2-1.2-1.8-1.8C61.7,61.4,61.8,60.6,62.4,60.5z"/>
		<linearGradient id="XMLID_107_" gradientUnits="userSpaceOnUse" x1="40.4483" y1="82.4225" x2="5.7983" y2="31.3025">
			<stop  offset="0" style="stop-color:#EB5A62"/>
			<stop  offset="1" style="stop-color:#FDC95D"/>
		</linearGradient>
		<path id="XMLID_54_" class="st19" d="M30.3,64.7c0.4-0.2,0.9,0.1,1,0.5c0.1,0.3,0,0.6-0.2,0.9c-0.4,0.7-0.8,1.4-1.3,2.2
			c-0.2,0.4-0.5,0.7-1,0.7c-0.6,0-0.9-0.7-0.6-1.2c0.4-0.7,0.8-1.4,1.2-2.2C29.8,65.2,30,64.8,30.3,64.7z"/>
		<linearGradient id="XMLID_108_" gradientUnits="userSpaceOnUse" x1="59.6917" y1="69.3791" x2="25.0417" y2="18.2591">
			<stop  offset="0" style="stop-color:#EB5A62"/>
			<stop  offset="1" style="stop-color:#FDC95D"/>
		</linearGradient>
		<path id="XMLID_53_" class="st20" d="M56.8,64.7c0.4-0.2,0.9,0,1.1,0.4c0.4,0.7,0.8,1.5,1.3,2.2c0.2,0.3,0.4,0.7,0.3,1
			c-0.1,0.4-0.5,0.6-0.9,0.5c-0.4-0.1-0.6-0.5-0.8-0.8c-0.4-0.8-0.9-1.5-1.3-2.2C56.3,65.5,56.4,64.9,56.8,64.7z"/>
		<linearGradient id="XMLID_109_" gradientUnits="userSpaceOnUse" x1="48.9166" y1="76.6826" x2="14.2666" y2="25.5626">
			<stop  offset="0" style="stop-color:#EB5A62"/>
			<stop  offset="1" style="stop-color:#FDC95D"/>
		</linearGradient>
		<path id="XMLID_52_" class="st21" d="M42.9,66c0.4-0.5,1.3-0.6,1.8-0.1c0.3,0.3,0.5,0.7,0.5,1.1c0,1.4,0,2.8,0,4.1
			c0,0.4,0,0.8-0.2,1.1c-0.2,0.3-0.5,0.4-0.8,0.6h-0.6c-0.3-0.1-0.6-0.3-0.8-0.6c-0.2-0.3-0.2-0.7-0.2-1.1c0-1.3,0-2.6,0-4
			C42.6,66.8,42.6,66.3,42.9,66z"/>
		<linearGradient id="XMLID_110_" gradientUnits="userSpaceOnUse" x1="43.8122" y1="80.1424" x2="9.1622" y2="29.0224">
			<stop  offset="0" style="stop-color:#EB5A62"/>
			<stop  offset="1" style="stop-color:#FDC95D"/>
		</linearGradient>
		<path id="XMLID_51_" class="st22" d="M36.8,67.3c0.3-0.1,0.7,0.1,0.9,0.4c0.2,0.3,0.1,0.7,0,1c-0.2,0.8-0.4,1.6-0.7,2.4
			c-0.1,0.3-0.3,0.6-0.6,0.7c-0.4,0.2-0.9-0.2-1-0.6c-0.1-0.4,0.1-0.7,0.2-1c0.2-0.7,0.4-1.4,0.6-2.1C36.3,67.7,36.5,67.4,36.8,67.3
			z"/>
		<linearGradient id="XMLID_111_" gradientUnits="userSpaceOnUse" x1="53.7591" y1="73.4002" x2="19.1091" y2="22.2802">
			<stop  offset="0" style="stop-color:#EB5A62"/>
			<stop  offset="1" style="stop-color:#FDC95D"/>
		</linearGradient>
		<path id="XMLID_50_" class="st23" d="M50.5,67.3c0.4-0.2,0.9,0.2,1,0.6c0.2,0.8,0.4,1.7,0.7,2.5c0.1,0.3,0.2,0.7,0,1.1
			c-0.2,0.4-0.7,0.5-1,0.3c-0.3-0.2-0.5-0.6-0.5-0.9c-0.2-0.8-0.4-1.6-0.7-2.5C49.9,68,50.1,67.5,50.5,67.3z"/>
	</g>
</g>
<g id="XMLID_17_">
	<path id="XMLID_21_" class="st24" d="M3.5,110.5h8.8v2.7H0.1V93.9h3.4V110.5z"/>
	<path id="XMLID_23_" class="st24" d="M16.1,95.1c0-0.5,0.2-0.9,0.5-1.2c0.3-0.3,0.8-0.5,1.3-0.5s1,0.2,1.4,0.5
		c0.3,0.3,0.5,0.7,0.5,1.2c0,0.5-0.2,0.9-0.5,1.2c-0.3,0.3-0.8,0.5-1.4,0.5s-1-0.2-1.3-0.5C16.3,96,16.1,95.6,16.1,95.1z
		 M19.6,113.2h-3.2V98.8h3.2V113.2z"/>
	<path id="XMLID_57_" class="st24" d="M27.7,98.8l0.1,1.5c1-1.2,2.4-1.8,4.1-1.8c1.9,0,3.2,0.7,3.9,2.2c1-1.5,2.5-2.2,4.4-2.2
		c1.6,0,2.8,0.4,3.5,1.3c0.8,0.9,1.2,2.2,1.2,3.9v9.4h-3.2v-9.3c0-0.9-0.2-1.6-0.6-2c-0.4-0.4-1.1-0.6-2-0.6c-0.7,0-1.3,0.2-1.8,0.6
		s-0.8,0.9-1,1.5l0,9.8h-3.2v-9.4c0-1.7-0.9-2.5-2.6-2.5c-1.3,0-2.2,0.5-2.7,1.6v10.4h-3.2V98.8H27.7z"/>
	<path id="XMLID_59_" class="st24" d="M50,95.1c0-0.5,0.2-0.9,0.5-1.2c0.3-0.3,0.8-0.5,1.3-0.5s1,0.2,1.4,0.5
		c0.3,0.3,0.5,0.7,0.5,1.2c0,0.5-0.2,0.9-0.5,1.2s-0.8,0.5-1.4,0.5s-1-0.2-1.3-0.5C50.1,96,50,95.6,50,95.1z M53.4,113.2h-3.2V98.8
		h3.2V113.2z"/>
	<path id="XMLID_79_" class="st24" d="M62.6,95.3v3.5h2.5v2.4h-2.5v8c0,0.5,0.1,0.9,0.3,1.2s0.6,0.4,1.2,0.4c0.4,0,0.7,0,1.1-0.1
		v2.5c-0.7,0.2-1.4,0.3-2.1,0.3c-2.5,0-3.7-1.4-3.7-4.1v-8.1H57v-2.4h2.4v-3.5H62.6z"/>
	<path id="XMLID_82_" class="st25" d="M71.4,113.2h-1.6V92.8h1.6V113.2z"/>
	<path id="XMLID_84_" class="st25" d="M81.9,110.9l4.2-12.1h1.7l-6.1,16.8l-0.3,0.7c-0.8,1.7-2,2.6-3.6,2.6c-0.4,0-0.8-0.1-1.2-0.2
		l0-1.3l0.8,0.1c0.8,0,1.4-0.2,1.9-0.6c0.5-0.4,0.9-1,1.2-2l0.7-1.9l-5.4-14.2h1.7L81.9,110.9z"/>
</g>
</svg>
