<?xml version="1.0" encoding="utf-8"?>
<!-- Generator: Adobe Illustrator 19.0.0, SVG Export Plug-In . SVG Version: 6.00 Build 0)  -->
<svg version="1.1" id="Layer_1" xmlns="http://www.w3.org/2000/svg" xmlns:xlink="http://www.w3.org/1999/xlink" x="0px" y="0px"
	 viewBox="0 0 191 85" style="enable-background:new 0 0 191 85;" xml:space="preserve">
<style type="text/css">
	.st0{fill-rule:evenodd;clip-rule:evenodd;fill:#FFFFFF;}
	.st1{fill:#E8E8E8;}
	.st2{fill:url(#XMLID_39_);}
	.st3{fill:url(#XMLID_40_);}
	.st4{fill:url(#XMLID_41_);}
	.st5{fill:url(#XMLID_42_);}
	.st6{fill:url(#XMLID_43_);}
	.st7{fill:url(#XMLID_44_);}
	.st8{fill:url(#XMLID_45_);}
	.st9{fill:url(#XMLID_46_);}
	.st10{fill:url(#XMLID_47_);}
	.st11{fill:url(#XMLID_48_);}
	.st12{fill:url(#XMLID_49_);}
	.st13{fill:url(#XMLID_57_);}
	.st14{fill:url(#XMLID_58_);}
	.st15{fill:url(#XMLID_59_);}
	.st16{fill:url(#XMLID_60_);}
	.st17{fill:url(#XMLID_74_);}
	.st18{fill:url(#XMLID_79_);}
	.st19{fill:url(#XMLID_80_);}
	.st20{fill:url(#XMLID_81_);}
	.st21{fill:url(#XMLID_82_);}
	.st22{fill:url(#XMLID_83_);}
	.st23{fill:url(#XMLID_84_);}
	.st24{fill:#FFFFFF;}
	.st25{fill:#F07A60;}
</style>
<g id="XMLID_3_">
	<path id="XMLID_24_" class="st0" d="M20.6,84.8c-11.3,0-20.4-9.2-20.4-20.4V20.6C0.1,9.3,9.3,0.1,20.6,0.1h43.9
		c11.3,0,20.4,9.2,20.4,20.4v43.9c0,11.3-9.2,20.4-20.4,20.4H20.6z"/>
	<path id="XMLID_21_" class="st1" d="M64.4,0.3c11.2,0,20.3,9.1,20.3,20.3v43.9c0,11.2-9.1,20.3-20.3,20.3H20.6
		c-11.2,0-20.3-9.1-20.3-20.3V20.6C0.3,9.4,9.4,0.3,20.6,0.3H64.4 M64.4,0H20.6C9.2,0,0,9.2,0,20.6v43.9C0,75.8,9.2,85,20.6,85h43.9
		C75.8,85,85,75.8,85,64.4V20.6C85,9.2,75.8,0,64.4,0L64.4,0z"/>
</g>
<g id="_x23_8bc64dff">
	<linearGradient id="XMLID_39_" gradientUnits="userSpaceOnUse" x1="72.2446" y1="59.8537" x2="37.5946" y2="8.7337">
		<stop  offset="0" style="stop-color:#EB5A62"/>
		<stop  offset="1" style="stop-color:#FDC95D"/>
	</linearGradient>
	<path id="XMLID_78_" class="st2" d="M42.1,12.1h0.6c0.3,0.1,0.6,0.3,0.8,0.6c0.2,0.3,0.2,0.7,0.2,1.1c0,1.4,0,2.7,0,4.1
		c0,0.4-0.1,0.9-0.4,1.2c-0.5,0.5-1.3,0.4-1.8,0c-0.3-0.3-0.4-0.7-0.4-1.1c0-1.3,0-2.5,0-3.8c0-0.4,0-0.8,0.1-1.2
		C41.3,12.5,41.7,12.3,42.1,12.1z"/>
	<linearGradient id="XMLID_40_" gradientUnits="userSpaceOnUse" x1="78.5181" y1="55.6015" x2="43.8681" y2="4.4815">
		<stop  offset="0" style="stop-color:#EB5A62"/>
		<stop  offset="1" style="stop-color:#FDC95D"/>
	</linearGradient>
	<path id="XMLID_77_" class="st3" d="M48.8,13.1c0.6-0.2,1.2,0,1.8,0.2c3.9,1.1,7.5,2.9,10.7,5.4c4.4,3.4,7.8,8.1,9.8,13.4
		c1.2,3.1,1.8,6.3,1.9,9.6v2c-0.1,2.7-0.5,5.3-1.3,7.8c-0.2,0.6-0.5,1.1-1.2,1.3c-0.5,0.1-1-0.2-1.4-0.4c-1.1-0.7-2.2-1.3-3.4-1.9
		c-0.3-0.2-0.7-0.4-0.8-0.8c-0.1-0.5,0-0.9,0.1-1.4c1.1-4.4,0.8-9.1-0.7-13.3c-1.1-3-2.9-5.8-5.1-8.1c-2.7-2.8-6-4.8-9.7-5.9
		c-0.4-0.1-0.9-0.3-1.2-0.6C48,19.7,48,19.2,48,18.8c0-1.5,0-2.9,0-4.4C48,13.8,48.3,13.3,48.8,13.1z"/>
	<linearGradient id="XMLID_41_" gradientUnits="userSpaceOnUse" x1="67.4653" y1="63.0933" x2="32.8153" y2="11.9733">
		<stop  offset="0" style="stop-color:#EB5A62"/>
		<stop  offset="1" style="stop-color:#FDC95D"/>
	</linearGradient>
	<path id="XMLID_76_" class="st4" d="M34.5,13.2c0.4-0.2,0.9,0.2,1,0.6c0.3,0.9,0.5,1.8,0.7,2.8c0.1,0.4,0,0.8-0.3,1
		c-0.4,0.3-1.1,0-1.2-0.4c-0.2-0.7-0.4-1.5-0.6-2.3c-0.1-0.3-0.2-0.6-0.2-0.9C34,13.6,34.2,13.3,34.5,13.2z"/>
	<linearGradient id="XMLID_42_" gradientUnits="userSpaceOnUse" x1="61.5337" y1="67.1138" x2="26.8837" y2="15.9938">
		<stop  offset="0" style="stop-color:#EB5A62"/>
		<stop  offset="1" style="stop-color:#FDC95D"/>
	</linearGradient>
	<path id="XMLID_75_" class="st5" d="M27.4,16.1c0.4-0.1,0.8,0.1,0.9,0.4c0.4,0.7,0.8,1.5,1.3,2.2c0.2,0.3,0.4,0.7,0.2,1.1
		c-0.1,0.4-0.5,0.6-0.9,0.5c-0.3-0.1-0.5-0.3-0.7-0.6c-0.4-0.7-0.8-1.4-1.2-2.1c-0.1-0.2-0.3-0.5-0.3-0.8
		C26.9,16.5,27.1,16.2,27.4,16.1z"/>
	<linearGradient id="XMLID_43_" gradientUnits="userSpaceOnUse" x1="55.6578" y1="71.0966" x2="21.0078" y2="19.9766">
		<stop  offset="0" style="stop-color:#EB5A62"/>
		<stop  offset="1" style="stop-color:#FDC95D"/>
	</linearGradient>
	<path id="XMLID_73_" class="st6" d="M21.5,20.6c0.3-0.1,0.6,0.1,0.9,0.3c0.6,0.6,1.2,1.2,1.8,1.8c0.2,0.2,0.5,0.5,0.5,0.9
		c0,0.4-0.4,0.8-0.8,0.7c-0.3,0-0.6-0.2-0.8-0.5c-0.6-0.6-1.1-1.2-1.7-1.7c-0.2-0.2-0.4-0.5-0.4-0.8C20.8,21,21.1,20.7,21.5,20.6z"
		/>
	<linearGradient id="XMLID_44_" gradientUnits="userSpaceOnUse" x1="59.9342" y1="68.1979" x2="25.2842" y2="17.0779">
		<stop  offset="0" style="stop-color:#EB5A62"/>
		<stop  offset="1" style="stop-color:#FDC95D"/>
	</linearGradient>
	<path id="XMLID_70_" class="st7" d="M40.8,22.4c5.1-0.4,10.3,1.2,14.2,4.4c2.5,2,4.5,4.6,5.8,7.5c1.6,3.6,2.1,7.6,1.4,11.5
		c-0.6,3.3-2,6.5-4.1,9.1c-1.8,2.2-4,4.1-6.5,5.4c-3.4,1.7-7.2,2.5-11,2.2c-3.2-0.3-6.3-1.3-9-3.1c-3.1-1.9-5.6-4.7-7.2-8
		c-1.4-2.7-2.1-5.7-2.1-8.8c0-3.4,0.8-6.7,2.4-9.7c1.5-2.8,3.6-5.2,6.2-7C33.8,23.9,37.3,22.6,40.8,22.4 M41.1,26.9
		c-2.4,0.2-4.7,1-6.8,2.2c-2.4,1.5-4.4,3.6-5.7,6.1c-1.2,2.2-1.8,4.7-1.8,7.2c0,3.2,1,6.3,2.9,8.9c1.1,1.6,2.6,3,4.2,4.1
		c2.5,1.7,5.6,2.6,8.6,2.6c3.5,0,7-1.2,9.7-3.4c2.5-2,4.3-4.7,5.2-7.7c1.1-3.6,0.8-7.6-0.7-11c-1.5-3.4-4.3-6.2-7.7-7.7
		C46.5,27.1,43.8,26.6,41.1,26.9z"/>
	<linearGradient id="XMLID_45_" gradientUnits="userSpaceOnUse" x1="49.736" y1="75.1104" x2="15.086" y2="23.9904">
		<stop  offset="0" style="stop-color:#EB5A62"/>
		<stop  offset="1" style="stop-color:#FDC95D"/>
	</linearGradient>
	<path id="XMLID_69_" class="st8" d="M16.4,27c0.3-0.2,0.7,0,1,0.2c0.7,0.4,1.4,0.8,2.1,1.2c0.3,0.2,0.6,0.4,0.7,0.7
		c0.1,0.4-0.1,0.8-0.5,0.9c-0.3,0.1-0.6,0-0.9-0.2c-0.7-0.4-1.4-0.8-2.1-1.2c-0.3-0.2-0.6-0.3-0.6-0.6C15.9,27.6,16.1,27.2,16.4,27z
		"/>
	<linearGradient id="XMLID_46_" gradientUnits="userSpaceOnUse" x1="44.6767" y1="78.5397" x2="10.0267" y2="27.4197">
		<stop  offset="0" style="stop-color:#EB5A62"/>
		<stop  offset="1" style="stop-color:#FDC95D"/>
	</linearGradient>
	<path id="XMLID_68_" class="st9" d="M13.6,34.1c0.3-0.1,0.6,0,1,0.1c0.8,0.2,1.5,0.4,2.3,0.6c0.3,0.1,0.6,0.2,0.8,0.5
		c0.2,0.4,0,0.8-0.3,1c-0.3,0.2-0.7,0.1-1,0c-0.8-0.2-1.6-0.4-2.3-0.6c-0.3-0.1-0.6-0.2-0.8-0.5C12.9,34.8,13.1,34.3,13.6,34.1z"/>
	<linearGradient id="XMLID_47_" gradientUnits="userSpaceOnUse" x1="57.8038" y1="69.642" x2="23.1538" y2="18.522">
		<stop  offset="0" style="stop-color:#EB5A62"/>
		<stop  offset="1" style="stop-color:#FDC95D"/>
	</linearGradient>
	<path id="XMLID_67_" class="st10" d="M35.4,34.5c1.4-0.3,2.8,0.5,3.4,1.7c0.7,1.4,0.1,3.2-1.3,3.9c-1.3,0.8-3.1,0.4-4-0.8
		c-0.8-1.1-0.8-2.7,0-3.7C34,35.1,34.7,34.6,35.4,34.5z"/>
	<linearGradient id="XMLID_48_" gradientUnits="userSpaceOnUse" x1="66.6837" y1="63.6231" x2="32.0337" y2="12.5031">
		<stop  offset="0" style="stop-color:#EB5A62"/>
		<stop  offset="1" style="stop-color:#FDC95D"/>
	</linearGradient>
	<path id="XMLID_66_" class="st11" d="M48.4,34.5c1.4-0.3,2.8,0.5,3.4,1.7c0.7,1.4,0.1,3.2-1.3,3.9c-1.3,0.7-3,0.4-3.9-0.8
		c-0.8-1-0.9-2.6,0-3.7C47,35.1,47.6,34.6,48.4,34.5z"/>
	<linearGradient id="XMLID_49_" gradientUnits="userSpaceOnUse" x1="41.6656" y1="80.5807" x2="7.0156" y2="29.4607">
		<stop  offset="0" style="stop-color:#EB5A62"/>
		<stop  offset="1" style="stop-color:#FDC95D"/>
	</linearGradient>
	<path id="XMLID_65_" class="st12" d="M12.7,41.2C13,41,13.4,41,13.8,41c1.4,0,2.7,0,4.1,0c0.4,0,0.9,0.1,1.1,0.4
		c0.5,0.5,0.5,1.4,0,1.8c-0.3,0.3-0.7,0.4-1.1,0.4c-1.2,0-2.5,0-3.7,0c-0.4,0-0.9,0-1.3-0.1c-0.4-0.2-0.6-0.5-0.8-0.9V42
		C12.2,41.7,12.4,41.4,12.7,41.2z"/>
	<linearGradient id="XMLID_57_" gradientUnits="userSpaceOnUse" x1="56.9842" y1="70.1975" x2="22.3342" y2="19.0775">
		<stop  offset="0" style="stop-color:#EB5A62"/>
		<stop  offset="1" style="stop-color:#FDC95D"/>
	</linearGradient>
	<path id="XMLID_64_" class="st13" d="M36,47.3c0.4-0.1,0.9,0,1.2,0.3c0.4,0.3,0.6,0.7,1,1.1c1.1,1,2.5,1.4,4,1.5
		c2,0.1,4-0.7,5.3-2.2c0.3-0.3,0.7-0.6,1.1-0.6c0.7,0,1.3,0.6,1.4,1.3c0,0.4-0.1,0.7-0.4,1c-1,1.2-2.3,2.1-3.8,2.6
		c-1.7,0.6-3.5,0.7-5.3,0.4c-1.8-0.3-3.5-1.2-4.8-2.6c-0.3-0.4-0.8-0.8-0.8-1.4C34.9,48.1,35.3,47.5,36,47.3z"/>
	<linearGradient id="XMLID_58_" gradientUnits="userSpaceOnUse" x1="37.9361" y1="83.1086" x2="3.2861" y2="31.9886">
		<stop  offset="0" style="stop-color:#EB5A62"/>
		<stop  offset="1" style="stop-color:#FDC95D"/>
	</linearGradient>
	<path id="XMLID_63_" class="st14" d="M16.4,48.6c0.3-0.1,0.6-0.1,0.8,0.1c0.3,0.2,0.4,0.7,0.3,1c-0.2,0.4-0.6,0.5-0.9,0.5
		c-0.8,0.2-1.7,0.5-2.5,0.7c-0.4,0.1-1-0.1-1.1-0.5c-0.1-0.4,0.2-0.9,0.6-1C14.6,49.1,15.5,48.9,16.4,48.6z"/>
	<linearGradient id="XMLID_59_" gradientUnits="userSpaceOnUse" x1="36.6798" y1="83.9602" x2="2.0298" y2="32.8402">
		<stop  offset="0" style="stop-color:#EB5A62"/>
		<stop  offset="1" style="stop-color:#FDC95D"/>
	</linearGradient>
	<path id="XMLID_62_" class="st15" d="M19.1,55c0.5-0.2,1.1,0.2,1.1,0.8c0,0.5-0.4,0.7-0.8,0.9c-0.7,0.4-1.3,0.7-1.9,1.1
		c-0.3,0.2-0.6,0.3-1,0.2c-0.4-0.1-0.6-0.6-0.5-1c0.1-0.4,0.6-0.6,1-0.8C17.7,55.8,18.4,55.4,19.1,55z"/>
	<linearGradient id="XMLID_60_" gradientUnits="userSpaceOnUse" x1="69.8156" y1="61.5002" x2="35.1656" y2="10.3802">
		<stop  offset="0" style="stop-color:#EB5A62"/>
		<stop  offset="1" style="stop-color:#FDC95D"/>
	</linearGradient>
	<path id="XMLID_61_" class="st16" d="M64.9,55.2c0.4-0.2,0.8,0.1,1.1,0.3c0.7,0.4,1.5,0.9,2.2,1.3c0.4,0.2,0.6,0.8,0.3,1.2
		c-0.3,0.3-0.8,0.4-1.1,0.2c-0.7-0.4-1.4-0.9-2.2-1.3c-0.3-0.2-0.7-0.4-0.8-0.7C64.3,55.7,64.6,55.3,64.9,55.2z"/>
	<linearGradient id="XMLID_74_" gradientUnits="userSpaceOnUse" x1="37.073" y1="83.6936" x2="2.423" y2="32.5736">
		<stop  offset="0" style="stop-color:#EB5A62"/>
		<stop  offset="1" style="stop-color:#FDC95D"/>
	</linearGradient>
	<path id="XMLID_56_" class="st17" d="M23.4,60.5c0.4-0.1,0.9,0.1,1,0.6c0.1,0.4-0.2,0.7-0.4,1c-0.6,0.6-1.1,1.1-1.7,1.7
		c-0.2,0.2-0.5,0.4-0.8,0.5c-0.4,0-0.8-0.3-0.8-0.8c0-0.3,0.2-0.6,0.4-0.8c0.6-0.6,1.1-1.1,1.7-1.7C23,60.8,23.2,60.6,23.4,60.5z"/>
	<linearGradient id="XMLID_79_" gradientUnits="userSpaceOnUse" x1="64.2341" y1="65.2834" x2="29.5841" y2="14.1634">
		<stop  offset="0" style="stop-color:#EB5A62"/>
		<stop  offset="1" style="stop-color:#FDC95D"/>
	</linearGradient>
	<path id="XMLID_55_" class="st18" d="M60.9,60.5c0.3-0.1,0.7,0,0.9,0.3c0.6,0.6,1.2,1.2,1.8,1.8c0.2,0.2,0.5,0.5,0.5,0.9
		c0,0.4-0.4,0.8-0.8,0.8c-0.4,0-0.7-0.3-0.9-0.6c-0.6-0.6-1.2-1.2-1.8-1.8C60.2,61.4,60.3,60.6,60.9,60.5z"/>
	<linearGradient id="XMLID_80_" gradientUnits="userSpaceOnUse" x1="38.9483" y1="82.4225" x2="4.2983" y2="31.3025">
		<stop  offset="0" style="stop-color:#EB5A62"/>
		<stop  offset="1" style="stop-color:#FDC95D"/>
	</linearGradient>
	<path id="XMLID_54_" class="st19" d="M28.8,64.7c0.4-0.2,0.9,0.1,1,0.5c0.1,0.3,0,0.6-0.2,0.9c-0.4,0.7-0.8,1.4-1.3,2.2
		c-0.2,0.4-0.5,0.7-1,0.7c-0.6,0-0.9-0.7-0.6-1.2c0.4-0.7,0.8-1.4,1.2-2.2C28.3,65.2,28.5,64.8,28.8,64.7z"/>
	<linearGradient id="XMLID_81_" gradientUnits="userSpaceOnUse" x1="58.1917" y1="69.3791" x2="23.5417" y2="18.2591">
		<stop  offset="0" style="stop-color:#EB5A62"/>
		<stop  offset="1" style="stop-color:#FDC95D"/>
	</linearGradient>
	<path id="XMLID_53_" class="st20" d="M55.3,64.7c0.4-0.2,0.9,0,1.1,0.4c0.4,0.7,0.8,1.5,1.3,2.2c0.2,0.3,0.4,0.7,0.3,1
		c-0.1,0.4-0.5,0.6-0.9,0.5c-0.4-0.1-0.6-0.5-0.8-0.8c-0.4-0.8-0.9-1.5-1.3-2.2C54.8,65.5,54.9,64.9,55.3,64.7z"/>
	<linearGradient id="XMLID_82_" gradientUnits="userSpaceOnUse" x1="47.4166" y1="76.6826" x2="12.7666" y2="25.5626">
		<stop  offset="0" style="stop-color:#EB5A62"/>
		<stop  offset="1" style="stop-color:#FDC95D"/>
	</linearGradient>
	<path id="XMLID_52_" class="st21" d="M41.4,66c0.4-0.5,1.3-0.6,1.8-0.1c0.3,0.3,0.5,0.7,0.5,1.1c0,1.4,0,2.8,0,4.1
		c0,0.4,0,0.8-0.2,1.1c-0.2,0.3-0.5,0.4-0.8,0.6h-0.6c-0.3-0.1-0.6-0.3-0.8-0.6c-0.2-0.3-0.2-0.7-0.2-1.1c0-1.3,0-2.6,0-4
		C41.1,66.8,41.1,66.3,41.4,66z"/>
	<linearGradient id="XMLID_83_" gradientUnits="userSpaceOnUse" x1="42.3122" y1="80.1424" x2="7.6622" y2="29.0224">
		<stop  offset="0" style="stop-color:#EB5A62"/>
		<stop  offset="1" style="stop-color:#FDC95D"/>
	</linearGradient>
	<path id="XMLID_51_" class="st22" d="M35.3,67.3c0.3-0.1,0.7,0.1,0.9,0.4c0.2,0.3,0.1,0.7,0,1c-0.2,0.8-0.4,1.6-0.7,2.4
		c-0.1,0.3-0.3,0.6-0.6,0.7c-0.4,0.2-0.9-0.2-1-0.6c-0.1-0.4,0.1-0.7,0.2-1c0.2-0.7,0.4-1.4,0.6-2.1C34.8,67.7,35,67.4,35.3,67.3z"
		/>
	<linearGradient id="XMLID_84_" gradientUnits="userSpaceOnUse" x1="52.2591" y1="73.4002" x2="17.6091" y2="22.2802">
		<stop  offset="0" style="stop-color:#EB5A62"/>
		<stop  offset="1" style="stop-color:#FDC95D"/>
	</linearGradient>
	<path id="XMLID_50_" class="st23" d="M49,67.3c0.4-0.2,0.9,0.2,1,0.6c0.2,0.8,0.4,1.7,0.7,2.5c0.1,0.3,0.2,0.7,0,1.1
		c-0.2,0.4-0.7,0.5-1,0.3c-0.3-0.2-0.5-0.6-0.5-0.9c-0.2-0.8-0.4-1.6-0.7-2.5C48.4,68,48.6,67.5,49,67.3z"/>
</g>
<g id="XMLID_18_">
	<path id="XMLID_19_" class="st24" d="M101,47.9h9.3v2.9H97.5V30.3h3.6V47.9z"/>
	<path id="XMLID_25_" class="st24" d="M114.5,31.6c0-0.5,0.2-1,0.5-1.3c0.3-0.3,0.8-0.5,1.4-0.5c0.6,0,1.1,0.2,1.4,0.5
		s0.5,0.8,0.5,1.3c0,0.5-0.2,1-0.5,1.3s-0.8,0.5-1.4,0.5c-0.6,0-1.1-0.2-1.4-0.5C114.6,32.5,114.5,32.1,114.5,31.6z M118.1,50.7
		h-3.4V35.6h3.4V50.7z"/>
	<path id="XMLID_28_" class="st24" d="M126.7,35.6l0.1,1.6c1.1-1.2,2.5-1.9,4.4-1.9c2,0,3.4,0.8,4.2,2.3c1.1-1.6,2.7-2.3,4.7-2.3
		c1.7,0,2.9,0.5,3.7,1.4s1.2,2.3,1.3,4.1v10h-3.4v-9.9c0-1-0.2-1.7-0.6-2.1c-0.4-0.4-1.1-0.7-2.1-0.7c-0.8,0-1.4,0.2-1.9,0.6
		s-0.8,1-1,1.6l0,10.4h-3.4v-10c0-1.8-1-2.7-2.7-2.7c-1.4,0-2.3,0.6-2.9,1.7v11h-3.4V35.6H126.7z"/>
	<path id="XMLID_30_" class="st24" d="M150.3,31.6c0-0.5,0.2-1,0.5-1.3c0.3-0.3,0.8-0.5,1.4-0.5c0.6,0,1.1,0.2,1.4,0.5
		s0.5,0.8,0.5,1.3c0,0.5-0.2,1-0.5,1.3s-0.8,0.5-1.4,0.5c-0.6,0-1.1-0.2-1.4-0.5C150.4,32.5,150.3,32.1,150.3,31.6z M153.9,50.7
		h-3.4V35.6h3.4V50.7z"/>
	<path id="XMLID_33_" class="st24" d="M163.6,31.9v3.7h2.7v2.5h-2.7v8.5c0,0.6,0.1,1,0.3,1.3c0.2,0.3,0.6,0.4,1.2,0.4
		c0.4,0,0.8,0,1.2-0.1v2.6c-0.8,0.2-1.5,0.3-2.2,0.3c-2.6,0-3.9-1.4-3.9-4.3v-8.6h-2.5v-2.5h2.5v-3.7H163.6z"/>
	<path id="XMLID_35_" class="st25" d="M172.9,50.7h-1.7V29.2h1.7V50.7z"/>
	<path id="XMLID_37_" class="st25" d="M184,48.3l4.4-12.8h1.8l-6.5,17.8l-0.3,0.8c-0.8,1.8-2.1,2.8-3.9,2.8c-0.4,0-0.8-0.1-1.3-0.2
		l0-1.4l0.9,0.1c0.8,0,1.5-0.2,2-0.6c0.5-0.4,0.9-1.1,1.3-2.1l0.7-2l-5.7-15.1h1.8L184,48.3z"/>
</g>
</svg>
