<?xml version="1.0" encoding="utf-8"?>
<!-- Generator: Adobe Illustrator 19.0.0, SVG Export Plug-In . SVG Version: 6.00 Build 0)  -->
<svg version="1.1" id="Layer_1" xmlns="http://www.w3.org/2000/svg" xmlns:xlink="http://www.w3.org/1999/xlink" x="0px" y="0px"
	 viewBox="0 0 17 27" style="enable-background:new 0 0 17 27;" xml:space="preserve">
<style type="text/css">
	.st0{fill:#FFFFFF;}
	.st1{fill-rule:evenodd;clip-rule:evenodd;fill:#FFFFFF;}
</style>
<g id="XMLID_3_">
	<g id="XMLID_1_">
		<path id="XMLID_23_" class="st0" d="M8.5,1C12.6,1,16,4.4,16,8.5v10c0,4.1-3.4,7.5-7.5,7.5S1,22.6,1,18.5v-10C1,4.4,4.4,1,8.5,1
			 M8.5,0C3.8,0,0,3.8,0,8.5v10C0,23.2,3.8,27,8.5,27s8.5-3.8,8.5-8.5v-10C17,3.8,13.2,0,8.5,0L8.5,0z"/>
	</g>
	<path id="XMLID_4_" class="st1" d="M8.5,5.2c1.4,0,2.5,1.1,2.5,2.5c0,1.4-1.1,2.5-2.5,2.5C7.1,10.2,6,9,6,7.7
		C6,6.3,7.1,5.2,8.5,5.2z"/>
</g>
</svg>
