<svg viewBox="0 0 196 196" xmlns="http://www.w3.org/2000/svg"><defs><linearGradient id="a" x1="50%" x2="50%" y1="50%" y2="100%"><stop stop-color="#fff" offset="0"/><stop stop-color="#E9E5E5" offset="1"/></linearGradient><linearGradient id="b" x1="34.417%" x2="77.096%" y1="11.47%" y2="90.267%"><stop stop-color="#058DF7" offset="0"/><stop stop-color="#0794F1" offset=".058"/><stop stop-color="#10ACDC" offset=".245"/><stop stop-color="#4BCC77" offset=".415"/><stop stop-color="#5CD45B" offset=".566"/><stop stop-color="#CFF400" offset="1"/></linearGradient><linearGradient id="c" x1="50%" x2="50%" y2="90.923%"><stop stop-color="#005DF6" offset="0"/><stop stop-color="#03A5F2" offset=".5"/><stop stop-color="#6AD657" offset="1"/></linearGradient></defs><g fill-rule="evenodd"><rect x="1" y="1" width="194" height="194" rx="45" fill="url(#a)" stroke="#D9D9D9"/><path d="M81.318 98.371c-.145-12.643 1.537-23.442 5.071-32.397 3.534-8.955 8.428-15.687 14.734-20.193 6.306-4.507 13.423-6.76 21.376-6.76 12.14 0 21.747 5.033 28.847 15.1 7.1 10.069 10.743 24.292 10.953 42.67.224 19.55-3.242 34.477-10.37 44.778s-17.275 15.452-30.382 15.452c-7.535 0-14.337-2.255-20.38-6.76-6.043-4.507-10.828-11.15-14.356-19.93s-5.35-19.433-5.493-31.959zM147.049 58.7c-5.981-9.12-14.332-13.68-25.079-13.68-6.83 0-12.846 2.036-18.105 6.109-5.259 4.072-9.353 10.125-12.308 18.154-2.956 8.03-4.368 17.782-4.236 29.253.127 11.127 1.678 20.649 4.68 28.565 3.002 7.915 7.042 13.88 12.176 17.896s11.034 6.022 17.7 6.022c11.183 0 19.754-4.674 25.742-14.024s8.883-22.628 8.686-39.836c-.189-16.519-3.274-29.339-9.255-38.459z" fill="url(#b)"/><path d="M57.141 47.058L32.38 63.176v-7.05l25.653-16.144h5.53v115.97h-6.065V47.062h-.357z" fill="url(#c)"/></g></svg>